<?xml version="1.0" encoding="UTF-8" standalone="no"?>
<!-- Created with Inkscape (http://www.inkscape.org/) -->

<svg
   xmlns:dc="http://purl.org/dc/elements/1.1/"
   xmlns:cc="http://creativecommons.org/ns#"
   xmlns:rdf="http://www.w3.org/1999/02/22-rdf-syntax-ns#"
   xmlns:svg="http://www.w3.org/2000/svg"
   xmlns="http://www.w3.org/2000/svg"
   xmlns:sodipodi="http://sodipodi.sourceforge.net/DTD/sodipodi-0.dtd"
   xmlns:inkscape="http://www.inkscape.org/namespaces/inkscape"
   width="200"
   height="240"
   id="svg2"
   version="1.1"
   inkscape:version="0.48.5 r10040"
   sodipodi:docname="flutiste.svg">
  <defs
     id="defs4">
    <linearGradient
       id="linearGradient3862">
      <stop
         style="stop-color:#0000ff;stop-opacity:1;"
         offset="0"
         id="stop3864" />
      <stop
         id="stop3878"
         offset="1"
         style="stop-color:#00007f;stop-opacity:0.49803922;" />
      <stop
         style="stop-color:#000000;stop-opacity:0;"
         offset="1"
         id="stop3866" />
    </linearGradient>
    <filter
       id="filter3917"
       inkscape:label="Neon"
       inkscape:menu="Bevels"
       inkscape:menu-tooltip="Neon light effect"
       x="-0.25"
       y="-0.25"
       width="1.5"
       height="1.5"
       color-interpolation-filters="sRGB">
      <feGaussianBlur
         id="feGaussianBlur3919"
         stdDeviation="1"
         result="result1" />
      <feComposite
         id="feComposite3921"
         in2="result1"
         in="result1"
         result="result4"
         operator="in" />
      <feGaussianBlur
         id="feGaussianBlur3923"
         stdDeviation="7"
         result="result6"
         in="result4" />
      <feComposite
         id="feComposite3925"
         in2="result4"
         operator="over"
         in="result6"
         result="result8" />
      <feComposite
         id="feComposite3927"
         in2="result8"
         operator="in"
         result="fbSourceGraphic"
         in="result6" />
      <feSpecularLighting
         id="feSpecularLighting3929"
         specularExponent="45"
         specularConstant="2"
         surfaceScale="2.5"
         lighting-color="rgb(255,255,255)"
         result="result1"
         in="fbSourceGraphic">
        <fePointLight
           id="fePointLight3931"
           z="20000"
           y="-10000"
           x="-5000" />
      </feSpecularLighting>
      <feComposite
         id="feComposite3933"
         in2="fbSourceGraphic"
         operator="in"
         result="result2"
         in="result1" />
      <feComposite
         id="feComposite3935"
         in2="result2"
         k3="1.5"
         k2="1.2"
         operator="arithmetic"
         result="result4"
         in="fbSourceGraphic" />
      <feComposite
         id="feComposite3937"
         in2="result4"
         operator="over"
         in="result9"
         result="result9" />
      <feBlend
         id="feBlend3939"
         in2="result9"
         mode="screen" />
    </filter>
  </defs>
  <sodipodi:namedview
     id="base"
     pagecolor="#ffffff"
     bordercolor="#666666"
     borderopacity="1.0"
     inkscape:pageopacity="0.0"
     inkscape:pageshadow="2"
     inkscape:zoom="2.8"
     inkscape:cx="35.38917"
     inkscape:cy="143.38374"
     inkscape:document-units="px"
     inkscape:current-layer="layer1"
     showgrid="false"
     inkscape:window-width="1920"
     inkscape:window-height="1018"
     inkscape:window-x="-8"
     inkscape:window-y="-8"
     inkscape:window-maximized="1" />
  <metadata
     id="metadata7">
    <rdf:RDF>
      <cc:Work
         rdf:about="">
        <dc:format>image/svg+xml</dc:format>
        <dc:type
           rdf:resource="http://purl.org/dc/dcmitype/StillImage" />
        <dc:title />
      </cc:Work>
    </rdf:RDF>
  </metadata>
  <g
     inkscape:label="Calque 1"
     inkscape:groupmode="layer"
     id="layer1"
     transform="translate(0,-812.36215)">
    <g
       id="g3028"
       transform="matrix(1.1019341,0,0,1.1019341,-76.718452,369.15352)">
      <path
         style="fill:#fad3a7"
         d="m 138.14322,606.33675 c -4.49987,-2.60788 -5.9285,-6.39951 -3.17098,-8.41586 2.63659,-1.92793 1.83225,-1.74931 -10.09458,2.24166 -14.57181,4.87603 -19.98395,5.36535 -25.438178,2.29991 -5.879285,-3.30435 -8.255074,-8.29983 -8.744136,-18.38598 -0.589902,-12.16582 2.830155,-17.2192 13.331184,-19.69778 l 5.09796,-1.20329 -1.77197,-3.04946 c -2.71553,-4.67328 -3.95604,-13.26217 -2.7394,-18.96665 0.76976,-3.60916 2.13074,-5.95074 5.30178,-9.12178 l 4.26619,-4.26619 -6.40849,-2.72364 C 95.873142,519.99035 87.216523,509.68246 85.746705,498.8203 c -0.539728,-3.98867 -1.355427,-5.3745 -5.124201,-8.70572 -7.6971,-6.80347 -11.502556,-18.79706 -7.690831,-24.23907 2.138896,-3.0537 7.219762,-4.5257 11.44177,-3.31484 1.882466,0.53988 3.48982,0.8768 3.571897,0.74871 0.08208,-0.1281 1.848821,-3.07315 3.926096,-6.54457 12.085914,-20.19724 26.690834,-27.58054 54.557134,-27.58054 27.22041,0 40.61719,6.35065 53.04059,25.14354 2.6365,3.98823 4.96506,7.76562 5.17459,8.3942 0.28385,0.85155 1.3027,0.83866 3.99713,-0.0506 4.28223,-1.41326 9.90682,0.39061 11.7072,3.75465 3.48073,6.50381 -1.45907,19.64846 -9.40609,25.0293 -2.5927,1.75549 -3.51342,3.10121 -3.51342,5.13517 0,5.72785 -3.33697,13.19346 -8.34787,18.67618 -5.23744,5.73059 -9.65468,8.52636 -18.65213,11.80535 l -5.5,2.0044 4.04328,4.16676 4.04327,4.16676 4.71159,-5.88804 c 9.85275,-12.31291 22.37544,-18.6422 34.86413,-17.62121 17.96276,1.4685 28.09874,12.83242 26.562,29.77987 -0.65211,7.19163 -3.89434,14.19669 -7.28608,15.74207 -1.39276,0.63458 -4.27846,1.15379 -6.41266,1.15379 -3.00096,0 -4.35008,-0.59714 -5.95295,-2.63486 -2.69222,-3.42261 -2.63501,-4.09285 0.92742,-10.86514 3.34436,-6.35773 3.50274,-7.3025 1.83706,-10.95828 -3.24718,-7.12678 -22.25592,-4.79066 -32.61273,4.00802 -5.64169,4.79293 -11.96613,14.37159 -13.25125,20.06963 -0.6975,3.0926 -0.61809,3.18178 3.40639,3.82519 5.66913,0.90635 12.27164,4.99067 14.29729,8.84433 1.06669,2.02929 1.83039,6.33945 2.07505,11.71111 0.33711,7.40124 0.0873,9.07413 -1.93233,12.94146 -3.50989,6.72091 -6.66544,8.56174 -14.64281,8.54209 -7.34068,-0.0181 -13.19147,-1.41856 -23.42667,-5.60753 -3.7125,-1.51943 -6.75,-2.557 -6.75,-2.30574 0,0.25127 0.54253,1.32558 1.20561,2.38735 3.89559,6.23783 -13.8432,10.81442 -22.49096,5.80264 z"
         id="path3042"
         inkscape:connector-curvature="0" />
      <path
         style="fill:#c89bca"
         d="m 140.42908,607.45303 c -5.76655,-2.29944 -8.99386,-7.89765 -5.35738,-9.2931 0.90372,-0.34679 1.39879,-0.87487 1.10015,-1.1735 -0.29864,-0.29864 -5.29629,1.08117 -11.10589,3.06624 -14.20208,4.85268 -19.22063,5.38806 -24.87017,2.65317 -6.366434,-3.08194 -9.045266,-8.31796 -9.518925,-18.6056 -0.560555,-12.17496 2.857455,-17.24514 13.284665,-19.7061 l 5.03297,-1.18785 -1.82246,-3.6835 c -2.57855,-5.21172 -3.65219,-13.23748 -2.49602,-18.65841 0.70785,-3.31887 2.16901,-5.75699 5.36629,-8.95427 3.6758,-3.6758 4.10709,-4.4865 2.63992,-4.96229 -6.47429,-2.09957 -14.553916,-6.98493 -18.462198,-11.1632 -4.573763,-4.88972 -8.79146,-13.94239 -8.79146,-18.86958 0,-1.82379 -1.369379,-3.79179 -4.644178,-6.67439 -9.633948,-8.48014 -12.440662,-22.87248 -5.214633,-26.73973 2.780241,-1.48794 9.618493,-1.56476 11.05902,-0.12423 0.763916,0.76391 1.815002,-0.36723 3.649425,-3.92737 3.365179,-6.53096 12.167174,-17.14808 17.297334,-20.86434 16.42462,-11.89794 54.30364,-13.03641 74.1825,-2.2296 5.93143,3.22453 14.18982,11.99049 19.22767,20.40943 2.07727,3.47142 3.88451,6.45697 4.01609,6.63457 0.13157,0.17759 1.74392,-0.0843 3.583,-0.58189 4.29774,-1.16292 9.31721,0.16913 11.29896,2.99848 3.89144,5.5558 0.0779,17.4806 -7.81101,24.42468 -3.2748,2.8826 -4.64418,4.8506 -4.64418,6.67439 0,4.65598 -4.18805,13.91014 -8.32749,18.4009 -4.68717,5.08498 -10.53214,8.73731 -18.73728,11.70832 l -5.7891,2.09618 4.23733,4.1234 4.23732,4.12339 4.69448,-5.86665 c 9.63557,-12.04151 19.97679,-17.45602 33.18474,-17.37506 12.34143,0.0756 20.85008,4.6713 25.82958,13.95096 3.1314,5.83558 3.08233,19.14932 -0.0943,25.59621 -2.47442,5.02164 -5.42635,6.90379 -10.82779,6.90379 -3.88753,0 -8.40749,-3.61404 -8.40749,-6.72241 0,-0.99733 1.06464,-3.38028 2.36586,-5.29546 5.27899,-7.76976 4.29331,-14.189 -2.45788,-16.00691 -9.41716,-2.53578 -23.54107,2.39704 -30.95615,10.81153 -5.1216,5.81189 -8.93234,12.19298 -9.93411,16.63469 -0.75162,3.33257 -0.71987,3.37057 3.36175,4.02312 6.08369,0.97262 12.05924,4.87138 14.21001,9.27134 1.19098,2.43645 1.97079,6.63318 2.18965,11.7841 0.28981,6.82099 -4.6e-4,8.65456 -1.96961,12.44146 -3.64904,7.01749 -6.55708,8.5837 -15.63584,8.42112 -7.41784,-0.13284 -14.60787,-2.04338 -25.42368,-6.75562 -4.05964,-1.7687 -4.38471,-1.59615 -2.54439,1.35067 3.32344,5.32168 -11.48972,10.39421 -20.2051,6.91892 z m 57.92113,-7.01817 c 4.74084,-4.41677 6.40339,-13.54701 4.02578,-22.10838 -0.99937,-3.59855 -1.217,-3.75 -5.38867,-3.75 -6.1784,0 -9.93794,3.69262 -11.52041,11.31531 -1.38123,6.65337 -0.66378,11.26854 2.24394,14.43469 2.67509,2.91284 7.57554,2.96276 10.63936,0.10838 z m -87.48758,-0.40713 c 3.45338,-2.26274 4.93718,-6.66889 4.23692,-12.5815 -1.2025,-10.15322 -7.46034,-15.72826 -16.185863,-14.41979 -4.08943,0.61325 -4.464598,0.92375 -5.080066,4.20448 -0.969776,5.16935 0.180077,13.94474 2.310966,17.63674 1.878766,3.25516 7.314053,6.70443 10.569173,6.70727 0.98185,8.5e-4 2.84884,-0.69539 4.14887,-1.5472 z m 26.59573,-82.18138 c 2.17442,-3.97126 2.21378,-4.34325 0.64318,-6.07874 -2.75072,-3.03951 -1.98327,-4.58142 1.07703,-2.16388 l 2.75,2.1724 0.31955,-2.09982 c 0.35216,-2.3141 2.18045,-2.91972 2.18045,-0.72228 0,0.75766 0.65646,1.92237 1.4588,2.58826 1.20283,0.99826 1.5747,0.74891 2.11934,-1.42111 0.70276,-2.80004 3.12513,-2.97605 2.62802,-0.19096 -0.413,2.31392 1.39852,2.04875 3.15722,-0.46215 0.83312,-1.18945 1.98025,-1.79725 2.63191,-1.3945 0.80603,0.49815 0.52528,1.38434 -0.929,2.93234 l -2.08411,2.21844 2.76723,5.06028 2.76723,5.06028 7.44119,-1.88972 c 17.44046,-4.42905 21.57547,-10.53724 18.91195,-27.93649 -1.02444,-6.69207 -0.96868,-8.41841 0.39156,-12.12276 2.63592,-7.17839 2.95456,-10.36699 1.40627,-14.07257 -4.64842,-11.12522 -18.15408,-13.71766 -32.31808,-6.2035 -3.5836,1.90113 -7.49076,3.45468 -8.68258,3.45233 -1.19182,-0.002 -4.15871,-1.32565 -6.59308,-2.94066 -5.9818,-3.96843 -16.2036,-5.83862 -22.4117,-4.10047 -5.38276,1.50709 -10.52058,6.48374 -11.5903,11.22675 -0.5087,2.25554 -0.24123,5.28609 0.78305,8.87217 1.53432,5.37181 1.65761,8.15071 1.01899,22.96862 -0.39473,9.15914 1.55888,13.2767 7.9882,16.83644 4.60754,2.55106 18.25526,6.28596 19.24471,5.2666 0.33375,-0.34385 1.64908,-2.52873 2.92297,-4.8553 z m 2.30208,-18.84741 c -0.33295,-0.86765 0.0669,-2.24979 0.88853,-3.07143 1.32518,-1.32518 1.67461,-1.31316 3.09425,0.10648 0.88021,0.8802 1.34635,2.26234 1.03587,3.07143 -0.75111,1.95737 -4.25521,1.88302 -5.01865,-0.10648 z m 3.66813,-1.48148 c 0,-0.51754 -0.45,-0.94098 -1,-0.94098 -0.55,0 -1,0.70156 -1,1.55902 0,0.85746 0.45,1.2809 1,0.94098 0.55,-0.33992 1,-1.04148 1,-1.55902 z m 4.66977,1.64083 c -0.75694,-1.97255 1.93949,-4.66898 3.91204,-3.91204 2.25273,0.86445 1.33612,4.7706 -1.20453,5.1331 -1.2009,0.17135 -2.37668,-0.35892 -2.70751,-1.22106 z m 3.77744,-1.66722 c -0.32197,-0.52097 -1.01165,-0.68378 -1.53262,-0.3618 -0.52097,0.32197 -0.68378,1.01165 -0.3618,1.53262 0.32197,0.52097 1.01165,0.68378 1.53262,0.3618 0.52097,-0.32197 0.68378,-1.01165 0.3618,-1.53262 z m -36.44721,-9.38323 c 0,-0.88607 0.87628,-3.32869 1.9473,-5.42805 2.34585,-4.59825 6.63087,-6.74098 10.75188,-5.37649 3.14753,1.04216 7.30082,6.50805 7.30082,9.60815 0,1.8916 -0.20585,1.84199 -2.8439,-0.68542 -1.56415,-1.49855 -4.49247,-2.99216 -6.50739,-3.31913 -3.28203,-0.5326 -4.02716,-0.20891 -7.1561,3.10874 -2.34575,2.48722 -3.49261,3.17423 -3.49261,2.0922 z m 59.57125,-1.39358 c -2.75472,-5.32703 -9.37193,-5.25728 -15.32125,0.1615 -2.17702,1.98288 -2.24988,1.98693 -2.24626,0.12503 0.0106,-5.45583 6.74653,-11.20577 11.67751,-9.96818 3.05297,0.76625 7.10697,5.30314 7.8788,8.8173 0.88626,4.03508 -0.12245,4.47347 -1.9888,0.86435 z m -81.056169,-1.16218 c 1.076391,-1.74163 -0.561164,-6.87692 -3.188689,-9.99956 -2.504265,-2.97615 -5.651752,-3.87664 -6.838473,-1.95649 -1.12232,1.81595 1.565369,7.8475 4.65556,10.44772 3.280651,2.76049 4.402958,3.07563 5.371602,1.50833 z M 206.6769,481.44569 c 0.99835,-1.33718 1.91339,-3.76682 2.03342,-5.39921 0.51291,-6.97509 -7.8826,-1.95162 -9.83924,5.88733 -1.39564,5.59139 3.49515,5.28556 7.80582,-0.48812 z"
         id="path3040"
         inkscape:connector-curvature="0" />
      <path
         style="fill:#937294"
         d="m 139.75925,606.63953 c -5.15683,-2.34139 -6.83733,-5.01519 -4.82374,-7.67491 0.7862,-1.03848 1.44376,-2.20621 1.46126,-2.59496 0.0175,-0.38875 -4.1307,0.79546 -9.2182,2.63159 -18.9377,6.83477 -25.65471,6.86459 -31.55888,0.14012 -5.128894,-5.84149 -6.710248,-18.62215 -3.247739,-26.24857 2.058234,-4.53341 4.983691,-6.51375 12.369909,-8.37362 l 4.61539,-1.16217 -2.0972,-4.11085 c -2.22846,-4.36816 -3.53633,-14.7252 -2.42075,-19.17003 0.36891,-1.46983 2.73052,-4.8745 5.24803,-7.56592 l 4.57729,-4.89349 -2.86803,-1.08296 c -14.92314,-5.63497 -22.710415,-13.71852 -25.487587,-26.45728 -1.119285,-5.13411 -2.057834,-6.73236 -6.503458,-11.07474 -3.90887,-3.81809 -5.589324,-6.40123 -6.786186,-10.4315 -1.884943,-6.34729 -1.958886,-8.09177 -0.480515,-11.33643 1.840175,-4.03875 9.909306,-6.19561 13.851093,-3.70237 1.13009,0.7148 2.093233,-0.23112 4.248736,-4.17277 6.581418,-12.03506 15.211237,-20.89062 24.050417,-24.67953 10.74754,-4.60694 28.69829,-6.79336 41.85605,-5.09812 23.71816,3.05585 35.12861,10.49512 45.67333,29.77765 2.1555,3.94165 3.11865,4.88757 4.24873,4.17277 2.44769,-1.54819 9.29236,-1.04052 11.78057,0.87378 5.80155,4.46339 2.69334,18.03467 -5.8075,25.35711 -4.06846,3.50449 -4.94515,4.89404 -5.51456,8.74055 -2.0307,13.71779 -11.16555,23.25505 -27.34468,28.54928 l -5.34754,1.74985 4.33397,4.41599 4.33397,4.41599 3.45938,-4.27876 c 12.14832,-15.0257 25.67241,-21.4198 39.81776,-18.82558 16.86599,3.09319 24.96155,14.57318 22.24935,31.5509 -1.25956,7.88451 -2.03262,9.59034 -5.62789,12.41838 -3.3297,2.61914 -9.33687,2.73589 -12.41751,0.24134 -3.00368,-2.43223 -2.8261,-6.78979 0.47492,-11.65412 4.00267,-5.89825 3.40315,-11.51094 -1.50039,-14.04666 -5.59968,-2.8957 -18.09505,-0.95338 -25.83189,4.0154 -7.23537,4.64673 -16.21798,16.6043 -17.43437,23.2085 -0.58364,3.16873 -0.55576,3.19339 4.8854,4.32298 9.5905,1.99098 14.10913,7.50852 15.13358,18.47908 1.1171,11.96281 -3.14115,20.21143 -11.61135,22.49222 -5.38557,1.45018 -17.18022,-0.70954 -27.50557,-5.03655 -7.09785,-2.97448 -8.77562,-3.10914 -6.63739,-0.53273 1.83373,2.20951 -0.18934,5.07582 -4.91795,6.96784 -5.30794,2.12381 -10.5357,2.01821 -15.67826,-0.3167 z m 14.20144,-2.51202 c 4.07157,-1.70122 4.911,-4.0502 0.90278,-2.52628 -3.69328,1.40418 -10.52754,1.13725 -13.4349,-0.52475 -3.17333,-1.81404 -4,-1.83985 -4,-0.1249 0,1.86722 5.75383,4.57418 9.78212,4.60213 1.80516,0.0125 4.84266,-0.62927 6.75,-1.4262 z m 45.01217,-3.58779 c 2.94159,-2.4413 4.74245,-9.71164 4.21871,-17.03156 -0.27841,-3.89119 -0.96898,-7.53766 -1.5346,-8.10328 -1.57125,-1.57125 -7.97492,-1.22451 -10.7305,0.58102 -3.76963,2.46995 -5.8074,7.36036 -5.90804,14.17854 -0.0987,6.68581 1.47103,10.68526 4.77469,12.16536 2.26167,1.01326 6.88924,0.11087 9.17974,-1.79008 z m -88.4889,0.007 c 3.29434,-1.76308 5.20954,-6.77 4.737,-12.38393 -0.83678,-9.94122 -5.14584,-14.61948 -14.15377,-15.36649 -4.879127,-0.40462 -5.570811,-0.21516 -6.662667,1.825 -1.659219,3.10027 -0.769731,15.54705 1.411349,19.74928 2.977752,5.73716 9.979588,8.68535 14.668088,6.17614 z m 43.36282,-0.57735 c 0.86999,-0.33372 1.58179,-1.2423 1.58179,-2.01893 0,-1.0602 -0.68525,-1.22043 -2.75,-0.64301 -3.87669,1.08413 -10.03905,0.68901 -11.77931,-0.75527 -1.19348,-0.9905 -1.47069,-0.90868 -1.47069,0.4341 0,0.91007 1.0125,2.06164 2.25,2.55906 2.61785,1.05225 9.87246,1.30514 12.16821,0.42417 z m -2.35247,-4.42819 c 1.59447,-0.85334 1.93426,-2.1292 1.93426,-7.26288 0,-5.4359 -0.27784,-6.35318 -2.18531,-7.21481 -1.20192,-0.54292 -2.62492,-2.33713 -3.16223,-3.98713 -0.5373,-1.65 -1.64766,-3.49423 -2.46746,-4.0983 -1.64231,-1.21011 -0.83118,-3.4017 1.25901,-3.4017 2.68877,0 4.41456,-4.583 4.55974,-12.10887 0.24839,-12.87579 0.66279,-11.89101 -5.00375,-11.89101 l -5,0 0,4 c 0,2.71111 0.43939,4 1.36364,4 0.75,0 2.59209,1.22845 4.09353,2.7299 3.7407,3.74069 3.02657,8.54664 -1.91328,12.87608 l -3.54389,3.10597 0,11.17625 c 0,10.65555 0.10483,11.21838 2.25,12.08064 3.06188,1.23072 5.51095,1.22946 7.81574,-0.004 z m -5.72991,-1.53204 c -0.7217,-1.88073 1.04795,-3.93166 2.57704,-2.98663 1.6483,1.01871 1.30343,4.55385 -0.44425,4.55385 -0.84227,0 -1.80202,-0.70525 -2.13279,-1.56722 z m -0.33583,-11.43266 c 0,-1.50615 0.52215,-2.04609 1.75,-1.80963 0.9625,0.18536 1.75,0.99969 1.75,1.80963 0,0.80994 -0.7875,1.62427 -1.75,1.80963 -1.22785,0.23646 -1.75,-0.30348 -1.75,-1.80963 z m -0.5,-32 c -0.83704,-1.35436 0.29243,-3 2.05902,-3 0.79254,0 1.44098,0.9 1.44098,2 0,2.07031 -2.41251,2.7596 -3.5,1 z m 8.52006,-8.52417 c 0.69572,-0.83829 0.97582,-1.81329 0.62244,-2.16666 -0.35337,-0.35338 -0.6425,-0.22548 -0.6425,0.28421 0,0.53753 -3.0448,0.6811 -7.25,0.34186 -3.9875,-0.32167 -7.47429,-0.4019 -7.74843,-0.17829 -0.27413,0.22362 0.37438,1.04478 1.44113,1.82481 2.65961,1.94475 11.9355,1.87238 13.57736,-0.10593 z m 1,-5 c 0.69572,-0.83829 0.97582,-1.81329 0.62244,-2.16666 -0.35337,-0.35338 -0.6425,-0.1925 -0.6425,0.3575 0,0.55 -0.5625,1.04027 -1.25,1.08949 -7.74027,0.55417 -11.96605,0.30943 -13.26454,-0.76823 -1.69228,-1.40446 -3.07217,-0.74627 -2.0165,0.96185 0.36808,0.59556 1.08814,0.82395 1.60014,0.50751 0.51199,-0.31643 0.9309,-0.0988 0.9309,0.48369 0,1.75357 12.52352,1.33807 14.02006,-0.46515 z m -1.65492,-5.54841 c 3.4643,-2.72502 3.44599,-6.93558 -0.0542,-12.46823 -2.35216,-3.71795 -3.12277,-4.23822 -6.15042,-4.1524 -2.96794,0.0841 -3.86752,0.73861 -6.31092,4.59144 -1.56729,2.47133 -2.8496,5.72257 -2.8496,7.22497 0,3.69631 4.16246,6.8768 9,6.8768 2.25963,0 4.76907,-0.81711 6.36514,-2.07258 z m -15.33535,-13.65755 c 2.17442,-3.97126 2.21378,-4.34325 0.64318,-6.07874 -2.63054,-2.90672 -2.08318,-4.92513 0.64148,-2.36544 2.87002,2.69624 3.68555,2.73481 3.68555,0.17431 0,-2.83025 1.66129,-2.48568 2.41064,0.5 0.34511,1.375 1.06032,2.5 1.58936,2.5 0.52904,0 1.24425,-1.125 1.58936,-2.5 0.81179,-3.23445 2.79176,-3.27404 2.1742,-0.0435 -0.39276,2.05459 -0.19385,2.30895 1.21567,1.5546 0.92689,-0.49606 2.26174,-1.59654 2.96632,-2.44551 0.70459,-0.84898 1.71392,-1.27607 2.24296,-0.9491 0.53211,0.32886 -3.9e-4,1.61879 -1.19179,2.88698 l -2.15369,2.2925 2.82882,4.95308 2.82883,4.95309 7.99966,-1.88594 c 16.72421,-3.94278 21.69232,-11.56461 18.35853,-28.16475 -1.0122,-5.04015 -0.88574,-6.54237 1.11938,-13.29664 2.67087,-8.99683 1.95616,-13.22627 -3.06449,-18.13489 -6.53326,-6.38747 -17.31781,-6.6429 -28.56423,-0.67655 -3.5836,1.90113 -7.45137,3.45661 -8.59504,3.45661 -1.14367,0 -4.24239,-1.38799 -6.88604,-3.08442 -9.922,-6.36693 -23.44483,-6.1746 -29.89737,0.42521 -4.31811,4.41666 -5.31435,9.03386 -3.39388,15.72937 2.5574,8.91613 2.71792,10.75242 1.48686,17.00977 -2.19406,11.15218 0.74533,19.34126 8.35147,23.26703 4.50876,2.3271 17.78967,5.72827 18.69129,4.78673 0.33375,-0.34853 1.64908,-2.53725 2.92297,-4.86382 z m 2.35021,-18.72198 c -0.76307,-1.98855 0.36736,-3.54789 2.57203,-3.54789 1.96581,0 3.02661,1.71663 2.31733,3.75 -0.60152,1.72445 -4.20726,1.5754 -4.88936,-0.20211 z m 3.62,-1.60691 c 0,-0.51754 -0.45,-0.94098 -1,-0.94098 -0.55,0 -1,0.70156 -1,1.55902 0,0.85746 0.45,1.2809 1,0.94098 0.55,-0.33992 1,-1.04148 1,-1.55902 z m 4.7198,1.77121 c -0.7929,-2.06626 0.7554,-3.95991 2.90003,-3.54689 2.65685,0.51166 2.46124,4.25179 -0.24255,4.63757 -1.1675,0.16658 -2.36337,-0.32423 -2.65748,-1.09068 z m 3.72741,-1.7976 c -0.32197,-0.52097 -1.01165,-0.68378 -1.53262,-0.3618 -0.52097,0.32197 -0.68378,1.01165 -0.3618,1.53262 0.32197,0.52097 1.01165,0.68378 1.53262,0.3618 0.52097,-0.32197 0.68378,-1.01165 0.3618,-1.53262 z m -36.4154,-9.27844 c -0.0175,-1.02511 0.94584,-3.60334 2.14075,-5.72939 2.55931,-4.55367 7.03412,-6.53908 11.18294,-4.9617 2.86706,1.09006 6.63475,6.42806 6.64076,9.40853 0.003,1.56815 -0.54061,1.37565 -3.53106,-1.25 -1.94413,-1.70697 -4.62296,-3.10359 -5.95294,-3.10359 -2.63405,0 -7.51226,1.92822 -7.51226,2.96938 0,0.3566 -0.66069,1.52187 -1.46819,2.58949 -1.40588,1.85873 -1.46955,1.86201 -1.5,0.0773 z m 59.57891,-1.42204 c -2.75468,-5.32696 -8.73618,-5.79888 -14.07592,-1.11052 -2.70283,2.37312 -3.5348,2.71448 -3.5348,1.45034 0,-5.39359 6.67009,-11.1768 11.49432,-9.966 2.94763,0.73981 7.24255,5.51551 8.12607,9.03571 0.91699,3.65357 -0.24859,3.99603 -2.00967,0.59047 z m -80.971486,-1.71635 c 2.041682,-5.32053 -7.375833,-15.96903 -10.151315,-11.47821 -1.12232,1.81595 1.565369,7.8475 4.65556,10.44772 3.461171,2.91239 4.68551,3.14196 5.495755,1.03049 z m 110.154336,-0.97751 c 5.30401,-4.46304 6.72934,-11.52025 2.32671,-11.52025 -3.79173,0 -9.57773,9.83278 -7.63536,12.9756 0.96515,1.56165 2.08945,1.25342 5.30865,-1.45535 z"
         id="path3038"
         inkscape:connector-curvature="0" />
      <path
         style="fill:#865b07"
         d="m 142.61324,607.5979 c -6.10581,-1.46514 -9.95312,-6.85297 -7.00134,-9.80475 2.36833,-2.36833 0.0938,-1.97542 -11.1843,1.93204 -18.67865,6.47148 -25.987438,5.37132 -30.974127,-4.6624 -1.973683,-3.97125 -2.480144,-6.53173 -2.5,-12.63908 -0.02306,-7.09325 0.204227,-7.94212 3.077324,-11.49316 2.351114,-2.90589 4.513588,-4.26391 8.931413,-5.60889 3.20605,-0.97607 5.9596,-1.90509 6.119,-2.06449 0.15941,-0.1594 -0.64997,-2.18933 -1.79862,-4.51095 -1.14865,-2.32162 -2.31645,-7.06157 -2.59512,-10.53323 -0.6131,-7.6379 1.10682,-11.92731 6.8703,-17.13427 3.33068,-3.00907 3.65516,-3.63586 2.14721,-4.14767 -5.77406,-1.95975 -13.19512,-5.86646 -16.881026,-8.88678 -5.304933,-4.347 -10.395382,-14.10885 -10.395382,-19.93501 0,-3.76137 -0.407331,-4.43489 -4.372346,-7.22969 -5.49565,-3.8737 -9.960987,-12.41893 -9.960987,-19.06215 0,-3.76169 0.493587,-4.98203 2.826788,-6.98897 2.827207,-2.43186 7.329089,-2.76427 11.622661,-0.8582 1.237982,0.54959 2.256784,-0.5078 4.354278,-4.51918 11.003414,-21.04363 24.442374,-28.61121 52.529604,-29.57983 21.80552,-0.75198 36.88219,3.5348 46.59617,13.24878 3.92223,3.92223 13.60973,17.57416 14.61874,20.60119 0.28528,0.85585 0.91611,0.85552 2.51715,-10e-4 3.47618,-1.8604 7.92245,-1.34476 10.96218,1.2713 2.38494,2.05253 2.7955,3.14457 2.73736,7.28101 -0.0873,6.21402 -4.54568,14.69528 -9.58642,18.23662 -2.98937,2.10016 -3.77637,3.38701 -4.32237,7.06767 -0.87851,5.9221 -4.46745,13.72842 -8.3387,18.13753 -3.41285,3.88702 -11.85552,8.70156 -19.73641,11.25494 l -5.05229,1.63693 4.55229,4.83921 4.5523,4.83922 1.97198,-2.60392 c 5.19173,-6.85546 13.19577,-14.18668 18.81733,-17.23554 5.9303,-3.21633 6.68473,-3.3684 16.71069,-3.3684 8.96334,0 11.11374,0.32806 14.69371,2.24161 5.75905,3.0783 10.75366,8.47051 12.14385,13.11055 1.836,6.12802 1.43133,17.95884 -0.78094,22.83152 -2.81663,6.20384 -9.14395,8.91864 -14.37236,6.16662 -4.48194,-2.35911 -4.85589,-6.34671 -1.15817,-12.3503 3.42012,-5.55289 3.31534,-10.68854 -0.27609,-13.53246 -4.03904,-3.19837 -15.70572,-2.44704 -23.84608,1.53567 -9.42746,4.61242 -19.33376,16.78689 -20.95004,25.74679 -0.67296,3.73057 -0.65885,3.75 2.72294,3.75 4.24044,0 11.61876,3.68634 14.0107,7 2.41031,3.33911 4.14606,13.28988 3.30108,18.92458 -0.87225,5.81658 -2.63496,9.17934 -6.52941,12.4563 -2.62466,2.20851 -4.08359,2.61912 -9.30601,2.61912 -6.818,0 -17.51223,-2.63614 -26.09806,-6.4332 -3.05532,-1.35121 -5.55512,-2.05806 -5.55512,-1.57079 0,0.48728 0.45,1.16407 1,1.50399 2.10091,1.29843 1.04571,5.42544 -1.75,6.84447 -3.64815,1.8517 -10.94992,2.66448 -15.06533,1.67695 z m 12.70313,-3.28616 c 2.54274,-1.31541 2.62082,-3.39815 0.1122,-2.99301 -0.825,0.13323 -3.525,0.45518 -6,0.71545 -4.11629,0.43286 -4.04683,0.3835 0.8146,-0.5788 5.34159,-1.05736 7.70784,-3.31995 5.135,-4.91005 -0.73801,-0.45611 -2.124,-0.4107 -3.07998,0.10093 -2.18479,1.16926 -7.92287,1.18253 -9.75448,0.0225 -0.85512,-0.54156 0.33206,-0.68353 3.10358,-0.37113 7.17847,0.80911 8.63379,-0.54135 8.41338,-7.80715 -0.16369,-5.3959 -0.50502,-6.34603 -2.90878,-8.09705 -1.60572,-1.16965 -2.72332,-2.93158 -2.72332,-4.29337 0,-1.27028 -0.71242,-2.58298 -1.58316,-2.91712 -1.87854,-0.72086 -1.36671,-3.10646 0.66649,-3.10646 0.77917,0 2.20417,-1.46087 3.16667,-3.24638 2.17941,-4.04296 2.58632,-22.20834 0.5,-22.3213 -0.6875,-0.0372 -0.2375,-0.55599 1,-1.15281 4.35419,-2.09995 2.67052,-3.66319 -3.5,-3.24966 l -5.75,0.38535 5.45149,-0.87291 c 3.20431,-0.51309 5.97355,-1.58688 6.71797,-2.60493 1.87822,-2.56862 0.67211,-3.49704 -2.4364,-1.87543 -3.49568,1.82358 -8.97044,1.82358 -12.46612,0 -2.79063,-1.45578 -4.20158,-0.88323 -2.92273,1.186 0.39174,0.63384 1.82455,1.59633 3.18402,2.13887 2.34975,0.93773 2.36361,0.98956 0.28079,1.04981 -3.60758,0.10437 -3.67697,2.00208 -0.12955,3.54287 1.88169,0.81729 2.56223,1.4592 1.57053,1.48138 -1.38952,0.0311 -1.74554,0.91459 -1.72836,4.28914 0.0194,3.80203 0.36145,4.40811 3.24544,5.75 7.40628,3.44606 6.80788,10.14122 -1.45264,16.25291 -1.40935,1.04273 -1.73102,3.45755 -1.96297,14.73602 -0.27665,13.45235 -0.27073,13.49231 2.18556,14.73526 1.35463,0.68548 1.87089,1.25296 1.14723,1.26107 -0.72366,0.008 -2.23447,-0.47695 -3.35736,-1.0779 -3.39693,-1.81798 -4.38766,0.50638 -1.26336,2.96396 3.12934,2.46154 12.29804,2.94678 16.32426,0.86394 z M 146.12242,593.937 c -0.93324,-0.93324 0.19452,-2.36052 1.86517,-2.36052 0.79254,0 1.44098,0.675 1.44098,1.5 0,1.50623 -2.11099,2.05568 -3.30615,0.86052 z m -0.2477,-10.44765 c -0.36954,-0.59793 -0.15236,-1.60666 0.48262,-2.24164 0.87268,-0.87268 1.37235,-0.80204 2.04689,0.28938 0.95311,1.54218 0.4725,3.03939 -0.97566,3.03939 -0.48508,0 -1.18431,-0.48921 -1.55385,-1.08713 z m -0.82115,-32.71062 c -0.27117,-0.43876 -0.0915,-1.44749 0.39934,-2.24164 0.67454,-1.09142 1.17421,-1.16206 2.04689,-0.28938 0.63498,0.63498 0.85216,1.64371 0.48262,2.24164 -0.78966,1.27769 -2.23008,1.42001 -2.92885,0.28938 z m 0.64403,-5.89524 c 0.97297,-0.25354 2.32297,-0.23687 3,0.037 0.67703,0.27393 -0.11903,0.48137 -1.76903,0.46099 -1.65,-0.0204 -2.20394,-0.2445 -1.23097,-0.49804 z m 51.54115,56.66736 c 1.82059,-1.10999 3.95809,-3.56886 4.75,-5.46415 1.6914,-4.04809 1.89884,-14.89501 0.3688,-19.2841 -0.99872,-2.86494 -1.36853,-3.05552 -5.47868,-2.8235 -5.17352,0.29205 -7.96867,2.43342 -10.56957,8.09738 -3.3322,7.25651 -1.87049,17.65925 2.86925,20.41989 2.59021,1.50866 4.37905,1.29881 8.0602,-0.94552 z m -84.73326,-2.89745 c 2.53593,-2.53592 2.92308,-3.66598 2.92308,-8.53212 0,-6.54758 -1.6853,-11.06988 -5.40342,-14.49946 -2.09831,-1.93547 -4.00711,-2.54037 -9.02447,-2.85985 l -6.363282,-0.40518 -0.967037,4.53413 c -0.885851,4.15348 -0.316928,11.72274 1.252861,16.6687 0.330567,1.04153 2.170161,3.2714 4.087987,4.95527 4.701921,4.12835 9.455661,4.17714 13.494281,0.13851 z m 41.67308,-67.73378 c 2.88819,-3.15091 2.83169,-4.66475 -0.41352,-11.07879 -2.58359,-5.10638 -2.7908,-5.26435 -6.90498,-5.26435 -3.99788,0 -4.40005,0.27062 -7.00314,4.71247 -3.1866,5.43751 -3.51062,9.43417 -0.9906,12.21876 3.30646,3.65359 11.72044,3.33044 15.31224,-0.58809 z m -16.51854,-12.52038 c 2.69376,-5.08919 2.70411,-5.17959 0.75,-6.5483 -1.0898,-0.76333 -1.98146,-2.11579 -1.98146,-3.00548 0,-1.36927 0.34542,-1.30665 2.25,0.40794 3.96891,3.57299 4.90159,3.77525 4.18167,0.90687 -0.82996,-3.30682 0.31958,-3.36824 1.56833,-0.0838 0.52277,1.375 1.42277,2.5 2,2.5 0.57723,0 1.47723,-1.125 2,-2.5 0.52277,-1.375 1.23542,-2.5 1.58366,-2.5 0.34823,0 0.3508,1.125 0.006,2.5 -0.80458,3.20569 0.11439,3.15801 3.60592,-0.18709 2.16039,-2.07007 2.80442,-2.31271 2.80442,-1.05671 0,0.89672 -0.84079,2.2193 -1.86841,2.93908 -1.79416,1.25668 -1.74942,1.51932 1.1258,6.60853 3.37887,5.98069 2.85562,5.91132 15.44683,2.04782 13.4313,-4.12128 17.55306,-12.22786 14.19011,-27.90876 -0.96379,-4.49398 -0.82132,-6.05655 1.11018,-12.17655 2.50601,-7.94032 2.24534,-12.20233 -1.0274,-16.79846 -5.59019,-7.8507 -17.80197,-9.13134 -29.69859,-3.11446 -7.51462,3.80062 -11.60593,3.96767 -16.45605,0.67193 -10.00432,-6.79811 -26.06616,-5.60932 -31.73273,2.34864 -3.39484,4.76761 -3.66459,9.11823 -1.06637,17.19869 2.01449,6.26508 2.14657,7.67922 1.12901,12.08754 -2.91585,12.63216 -0.13481,21.16083 8.34762,25.59975 2.98393,1.56152 14.63714,4.98515 17.5,5.14137 0.83102,0.0453 2.7182,-2.21963 4.23146,-5.07856 z m 2.1769,-19.20097 c -0.80937,-2.10919 0.3267,-3.62179 2.72021,-3.62179 1.51073,0 1.93109,0.5568 1.69098,2.23978 -0.37294,2.61398 -3.55579,3.61115 -4.41119,1.38201 z m 3.59164,-1.12179 c 0,-0.825 -0.42344,-1.5 -0.94098,-1.5 -1.26098,0 -2.1641,1.56159 -1.36517,2.36052 1.12619,1.12618 2.30615,0.68589 2.30615,-0.86052 z m 5.36419,1.00669 c -0.34636,-0.90262 -0.15025,-2.12063 0.43581,-2.70669 1.52361,-1.52361 4.41041,-0.13109 4.01242,1.93549 -0.4433,2.30188 -3.64766,2.85743 -4.44823,0.7712 z m 2.78581,-1.00669 c 0,-0.5225 -0.48375,-1.11125 -1.075,-1.30833 -0.59125,-0.19709 -1.075,0.39166 -1.075,1.30833 0,0.91667 0.48375,1.50542 1.075,1.30833 0.59125,-0.19708 1.075,-0.78583 1.075,-1.30833 z m -36.10996,-9.1849 c -0.022,-0.6517 0.43994,-2.4517 1.02657,-4 3.63581,-9.59596 14.43274,-10.02251 17.97332,-0.71007 1.63093,4.28967 1.08236,4.67111 -2.11685,1.47189 -4.89206,-4.89205 -12.22789,-4.08122 -15.36428,1.69822 -0.8133,1.49867 -1.49674,2.19165 -1.51876,1.53996 z m 59.44645,-2.67973 c -3.17158,-4.93866 -10.47031,-4.91391 -15.07172,0.0511 -2.79399,3.01477 -3.14673,1.63078 -0.76109,-2.98612 2.23215,-4.31987 4.17987,-5.63081 8.42201,-5.66854 4.10754,-0.0365 7.22493,2.66351 9.0198,7.81226 1.50855,4.32746 0.86511,4.6439 -1.609,0.7913 z m -80.675146,-3.43534 c 0.247209,-2.49793 -0.474541,-3.98846 -3.503867,-7.23606 -2.731479,-2.92829 -4.311206,-3.89977 -5.561342,-3.42005 -4.927121,1.89072 2.532889,15.41991 7.753867,14.06212 0.55,-0.14303 1.140104,-1.67574 1.311342,-3.40601 z m 110.846546,1.63158 c 1.65495,-1.3201 4.34211,-7.27709 4.34211,-9.62575 0,-3.31844 -2.7545,-3.36031 -6.46968,-0.0983 -3.42911,3.0108 -5.48604,8.53707 -4.04528,10.86827 0.70388,1.13891 4.09975,0.50947 6.17285,-1.14418 z"
         id="path3036"
         inkscape:connector-curvature="0" />
      <path
         style="fill:#745613"
         d="m 142.61324,607.5979 c -6.10581,-1.46514 -9.95312,-6.85297 -7.00134,-9.80475 2.36833,-2.36833 0.0938,-1.97542 -11.1843,1.93204 -18.67865,6.47148 -25.987438,5.37132 -30.974127,-4.6624 -1.973683,-3.97125 -2.480144,-6.53173 -2.5,-12.63908 -0.02306,-7.09325 0.204227,-7.94212 3.077324,-11.49316 2.351114,-2.90589 4.513588,-4.26391 8.931413,-5.60889 3.20605,-0.97607 5.9596,-1.90509 6.119,-2.06449 0.15941,-0.1594 -0.64997,-2.18933 -1.79862,-4.51095 -1.14865,-2.32162 -2.31645,-7.06157 -2.59512,-10.53323 -0.6131,-7.6379 1.10682,-11.92731 6.8703,-17.13427 3.33068,-3.00907 3.65516,-3.63586 2.14721,-4.14767 -5.77406,-1.95975 -13.19512,-5.86646 -16.881026,-8.88678 -5.304933,-4.347 -10.395382,-14.10885 -10.395382,-19.93501 0,-3.76137 -0.407331,-4.43489 -4.372346,-7.22969 -5.49565,-3.8737 -9.960987,-12.41893 -9.960987,-19.06215 0,-3.76169 0.493587,-4.98203 2.826788,-6.98897 2.827207,-2.43186 7.329089,-2.76427 11.622661,-0.8582 1.237982,0.54959 2.256784,-0.5078 4.354278,-4.51918 11.003414,-21.04363 24.442374,-28.61121 52.529604,-29.57983 21.80552,-0.75198 36.88219,3.5348 46.59617,13.24878 3.92223,3.92223 13.60973,17.57416 14.61874,20.60119 0.28528,0.85585 0.91611,0.85552 2.51715,-10e-4 3.47618,-1.8604 7.92245,-1.34476 10.96218,1.2713 2.38494,2.05253 2.7955,3.14457 2.73736,7.28101 -0.0873,6.21402 -4.54568,14.69528 -9.58642,18.23662 -2.98937,2.10016 -3.77637,3.38701 -4.32237,7.06767 -0.87851,5.9221 -4.46745,13.72842 -8.3387,18.13753 -3.41285,3.88702 -11.85552,8.70156 -19.73641,11.25494 l -5.05229,1.63693 4.55229,4.83921 4.5523,4.83922 1.97198,-2.60392 c 5.19173,-6.85546 13.19577,-14.18668 18.81733,-17.23554 5.9303,-3.21633 6.68473,-3.3684 16.71069,-3.3684 8.96334,0 11.11374,0.32806 14.69371,2.24161 5.75905,3.0783 10.75366,8.47051 12.14385,13.11055 1.836,6.12802 1.43133,17.95884 -0.78094,22.83152 -2.81663,6.20384 -9.14395,8.91864 -14.37236,6.16662 -4.48194,-2.35911 -4.85589,-6.34671 -1.15817,-12.3503 3.42012,-5.55289 3.31534,-10.68854 -0.27609,-13.53246 -4.03904,-3.19837 -15.70572,-2.44704 -23.84608,1.53567 -9.42746,4.61242 -19.33376,16.78689 -20.95004,25.74679 -0.67296,3.73057 -0.65885,3.75 2.72294,3.75 4.24044,0 11.61876,3.68634 14.0107,7 2.41031,3.33911 4.14606,13.28988 3.30108,18.92458 -0.87225,5.81658 -2.63496,9.17934 -6.52941,12.4563 -2.62466,2.20851 -4.08359,2.61912 -9.30601,2.61912 -6.818,0 -17.51223,-2.63614 -26.09806,-6.4332 -3.05532,-1.35121 -5.55512,-2.05806 -5.55512,-1.57079 0,0.48728 0.45,1.16407 1,1.50399 2.10091,1.29843 1.04571,5.42544 -1.75,6.84447 -3.64815,1.8517 -10.94992,2.66448 -15.06533,1.67695 z m 12.70313,-3.28616 c 2.54274,-1.31541 2.62082,-3.39815 0.1122,-2.99301 -0.825,0.13323 -3.525,0.45518 -6,0.71545 -4.11629,0.43286 -4.04683,0.3835 0.8146,-0.5788 5.34159,-1.05736 7.70784,-3.31995 5.135,-4.91005 -0.73801,-0.45611 -2.124,-0.4107 -3.07998,0.10093 -2.18479,1.16926 -7.92287,1.18253 -9.75448,0.0225 -0.85512,-0.54156 0.33206,-0.68353 3.10358,-0.37113 7.17847,0.80911 8.63379,-0.54135 8.41338,-7.80715 -0.16369,-5.3959 -0.50502,-6.34603 -2.90878,-8.09705 -1.60572,-1.16965 -2.72332,-2.93158 -2.72332,-4.29337 0,-1.27028 -0.71242,-2.58298 -1.58316,-2.91712 -1.87854,-0.72086 -1.36671,-3.10646 0.66649,-3.10646 0.77917,0 2.20417,-1.46087 3.16667,-3.24638 2.17941,-4.04296 2.58632,-22.20834 0.5,-22.3213 -0.6875,-0.0372 -0.2375,-0.55599 1,-1.15281 4.35419,-2.09995 2.67052,-3.66319 -3.5,-3.24966 l -5.75,0.38535 5.45149,-0.87291 c 3.20431,-0.51309 5.97355,-1.58688 6.71797,-2.60493 1.87822,-2.56862 0.67211,-3.49704 -2.4364,-1.87543 -3.49568,1.82358 -8.97044,1.82358 -12.46612,0 -2.79063,-1.45578 -4.20158,-0.88323 -2.92273,1.186 0.39174,0.63384 1.82455,1.59633 3.18402,2.13887 2.34975,0.93773 2.36361,0.98956 0.28079,1.04981 -3.60758,0.10437 -3.67697,2.00208 -0.12955,3.54287 1.88169,0.81729 2.56223,1.4592 1.57053,1.48138 -1.38952,0.0311 -1.74554,0.91459 -1.72836,4.28914 0.0194,3.80203 0.36145,4.40811 3.24544,5.75 7.40628,3.44606 6.80788,10.14122 -1.45264,16.25291 -1.40935,1.04273 -1.73102,3.45755 -1.96297,14.73602 -0.27665,13.45235 -0.27073,13.49231 2.18556,14.73526 1.35463,0.68548 1.87089,1.25296 1.14723,1.26107 -0.72366,0.008 -2.23447,-0.47695 -3.35736,-1.0779 -3.39693,-1.81798 -4.38766,0.50638 -1.26336,2.96396 3.12934,2.46154 12.29804,2.94678 16.32426,0.86394 z M 146.12242,593.937 c -0.93324,-0.93324 0.19452,-2.36052 1.86517,-2.36052 0.79254,0 1.44098,0.675 1.44098,1.5 0,1.50623 -2.11099,2.05568 -3.30615,0.86052 z m -0.2477,-10.44765 c -0.36954,-0.59793 -0.15236,-1.60666 0.48262,-2.24164 0.87268,-0.87268 1.37235,-0.80204 2.04689,0.28938 0.95311,1.54218 0.4725,3.03939 -0.97566,3.03939 -0.48508,0 -1.18431,-0.48921 -1.55385,-1.08713 z m -0.82115,-32.71062 c -0.27117,-0.43876 -0.0915,-1.44749 0.39934,-2.24164 0.67454,-1.09142 1.17421,-1.16206 2.04689,-0.28938 0.63498,0.63498 0.85216,1.64371 0.48262,2.24164 -0.78966,1.27769 -2.23008,1.42001 -2.92885,0.28938 z m 0.64403,-5.89524 c 0.97297,-0.25354 2.32297,-0.23687 3,0.037 0.67703,0.27393 -0.11903,0.48137 -1.76903,0.46099 -1.65,-0.0204 -2.20394,-0.2445 -1.23097,-0.49804 z m 51.54115,56.66736 c 1.82059,-1.10999 3.95809,-3.56886 4.75,-5.46415 1.6914,-4.04809 1.89884,-14.89501 0.3688,-19.2841 -0.99872,-2.86494 -1.36853,-3.05552 -5.47868,-2.8235 -5.17352,0.29205 -7.96867,2.43342 -10.56957,8.09738 -3.3322,7.25651 -1.87049,17.65925 2.86925,20.41989 2.59021,1.50866 4.37905,1.29881 8.0602,-0.94552 z m -84.73326,-2.89745 c 2.53593,-2.53592 2.92308,-3.66598 2.92308,-8.53212 0,-6.54758 -1.6853,-11.06988 -5.40342,-14.49946 -2.09831,-1.93547 -4.00711,-2.54037 -9.02447,-2.85985 l -6.363282,-0.40518 -0.967037,4.53413 c -0.885851,4.15348 -0.316928,11.72274 1.252861,16.6687 0.330567,1.04153 2.170161,3.2714 4.087987,4.95527 4.701921,4.12835 9.455661,4.17714 13.494281,0.13851 z m 70.92308,1.53971 c 0,-0.76085 -0.9,-1.61872 -2,-1.90638 -2.01042,-0.52574 -2.86872,-3.71025 -1,-3.71025 0.55,0 1.01469,-2.1375 1.03265,-4.75 0.0338,-4.92339 3.211,-15.71781 4.64832,-15.79265 0.45047,-0.0234 2.52983,-0.62854 4.62082,-1.34464 3.98403,-1.36441 4.53665,-3.66965 0.847,-3.53331 -1.18183,0.0437 -2.14879,-0.29383 -2.14879,-0.75 0,-0.45617 -1.125,-0.8294 -2.5,-0.8294 -1.375,0 -2.5,0.42353 -2.5,0.94118 0,1.50176 -8.57994,9.79072 -10.89498,10.52549 -1.18342,0.3756 -2.10502,1.51423 -2.10502,2.60072 0,1.72906 -0.74936,1.93261 -7.11501,1.93261 l -7.11501,0 1.59282,2.43095 c 1.28901,1.96728 1.33444,2.4918 0.23818,2.75 -0.96798,0.22798 -1.11356,0.96128 -0.51004,2.56905 0.60974,1.62432 1.65376,2.25 3.75439,2.25 1.60038,0 3.40844,0.60085 4.01791,1.33522 0.60947,0.73437 3.02707,1.94469 5.37245,2.6896 2.34537,0.74491 5.15194,1.94406 6.23682,2.66478 2.58022,1.71413 5.52749,1.67522 5.52749,-0.073 z m -55.70467,-5.7394 c 6.98781,-2.74507 8.90726,-4.93023 9.46937,-10.78026 0.86877,-9.0414 0.3485,-9.7094 -8.11969,-10.42522 -7.64519,-0.64626 -12.6349,-2.03736 -13.74388,-3.83173 -0.98207,-1.58902 -8.80354,-1.65187 -10.7175,-0.0861 -1.5085,1.23405 -1.40072,1.33351 1.03611,0.95617 1.49586,-0.23164 2.52247,-0.10196 2.28136,0.28816 -0.49196,0.796 3.86623,3.00177 5.93095,3.00177 2.78035,0 4.40819,4.58412 4.74011,13.34861 0.19591,5.1729 -0.0746,8.7985 -0.67216,9.00925 -0.55,0.19396 0.35,0.36403 2,0.37791 1.65,0.0139 5.1579,-0.82246 7.79533,-1.85854 z m 36.95467,-16.51908 c 3.39026,-0.56037 3.75292,-0.91906 3.78041,-3.73899 0.0254,-2.60286 0.19912,-2.82949 1.04969,-1.36916 0.5606,0.9625 1.55942,1.72842 2.21959,1.70204 1.72611,-0.069 8.70031,-9.10253 8.70031,-11.26937 0,-1.00404 0.675,-2.50053 1.5,-3.32553 0.99776,-0.99776 1.5,-3.49555 1.5,-7.45995 0,-4.37525 -0.39884,-6.11301 -1.5,-6.53556 -0.825,-0.31659 -1.5,-1.34071 -1.5,-2.27584 0,-1.6341 -3.2986,-6.28055 -7.5,-10.56459 -1.65447,-1.68702 -2.99388,-1.97857 -7.75275,-1.68756 -5.46577,0.33423 -5.73087,0.47239 -5.31431,2.76958 0.49811,2.74691 4.00908,7.62142 4.86965,6.76085 0.86679,-0.86679 0.0973,12.72548 -0.91345,16.13593 -0.48903,1.65 -1.56414,3 -2.38914,3 -0.825,0 -1.3875,0.5625 -1.25,1.25 0.1375,0.6875 -0.25625,1.25 -0.875,1.25 -0.71689,0 -0.92282,1.17899 -0.56767,3.25 0.30654,1.7875 0.32917,2.69915 0.0503,2.02589 -0.37708,-0.91037 -1.19271,-0.78814 -3.18233,0.47691 -3.35493,2.13313 -4.04034,3.09836 -3.64366,5.13122 0.17344,0.88879 0.34977,1.96798 0.39185,2.3982 0.20565,2.10254 6.12965,3.10021 12.32651,2.07593 z m -27.85503,-10.52809 c -0.49015,-0.79308 -0.17195,-0.95846 0.98781,-0.51342 1.15344,0.44262 2.67425,-0.32901 4.66773,-2.36831 2.40552,-2.46081 2.7231,-3.27783 1.70318,-4.38162 -0.68953,-0.74624 -1.50676,-1.20464 -1.81607,-1.01869 -0.30931,0.18596 -1.88431,-0.53331 -3.5,-1.59837 -1.61569,-1.06506 -3.93259,-1.93944 -5.14866,-1.94306 -4.96336,-0.0148 -8.43145,-8.01477 -6.28889,-14.5068 0.74904,-2.26963 1.83257,-3.47789 3.307,-3.68772 1.55077,-0.22069 2.28559,-1.11735 2.50935,-3.06207 0.30122,-2.61785 0.11241,-2.75 -3.929,-2.75 -2.33498,0 -5.78409,-0.55639 -7.66468,-1.23642 -3.24675,-1.17404 -3.54342,-1.08574 -5.88003,1.75 -1.35343,1.64253 -3.41235,4.03103 -4.57538,5.30778 -3.08505,3.38668 -3.51547,11.40048 -0.92029,17.13438 1.10917,2.45066 1.80801,4.79339 1.55296,5.20607 -0.25505,0.41268 0.67561,1.4451 2.06814,2.29426 1.39252,0.84916 3.76936,2.33143 5.28186,3.29393 4.24115,2.69891 19.11079,4.45181 17.64497,2.08006 z m -22.75659,-22.33006 c 0.31658,-0.825 0.97745,-1.5 1.46861,-1.5 0.49116,0 0.89301,0.675 0.89301,1.5 0,0.825 -0.66087,1.5 -1.46861,1.5 -0.8946,0 -1.24364,-0.58629 -0.89301,-1.5 z m 42.97577,10.78082 c -0.2854,-0.2854 0.13398,-1.17181 0.93197,-1.96979 2.49827,-2.49828 2.97429,-6.45733 0.95402,-7.93459 -2.7541,-2.01385 -3.50014,-0.79005 -3.50014,5.74159 0,3.99488 0.35642,5.77972 1.06653,5.34085 0.58659,-0.36253 0.83302,-0.89266 0.54762,-1.17806 z m 82.13189,-0.81549 c 1.20507,-0.84407 3.13201,-3.65657 4.28208,-6.25 4.00621,-9.03411 1.30226,-18.41056 -7.46926,-25.90101 -2.18327,-1.86441 -4.3589,-2.94455 -5.24561,-2.60428 -0.8333,0.31977 -1.90346,-0.0467 -2.37813,-0.81432 -0.60856,-0.98419 -2.88465,-1.37979 -7.71947,-1.3417 -5.57407,0.0439 -7.48491,0.50152 -10.21661,2.44666 -1.84809,1.31596 -3.04634,1.88486 -2.66276,1.26423 0.38357,-0.62063 -0.77268,-0.40816 -2.56944,0.47216 -1.79676,0.88033 -3.632,2.20908 -4.0783,2.95279 -0.4463,0.74371 -1.168,1.13185 -1.60377,0.86253 -0.43577,-0.26932 -1.28269,0.58658 -1.88204,1.90201 -0.59935,1.31543 -2.12765,2.53882 -3.39623,2.71864 -1.26857,0.17983 -2.3072,0.77696 -2.30805,1.32696 -8.6e-4,0.55 -1.01336,2.41947 -2.25,4.15437 -2.43027,3.40945 -3.06751,9.36004 -0.99845,9.32365 0.6875,-0.0121 2.6,-2.03612 4.25,-4.49783 1.65,-2.46171 3.33236,-4.47682 3.73857,-4.47801 0.40621,-10e-4 1.58378,-0.72588 2.61682,-1.61039 1.03304,-0.88452 4.85077,-2.86229 8.48383,-4.39505 5.63268,-2.37638 7.75109,-2.74738 14.38318,-2.51889 10.70544,0.36883 12.90624,1.56333 14.227,7.72182 1.15882,5.40339 0.69243,8.44218 -2.134,13.90408 -3.03346,5.86197 -0.19321,8.95046 4.93064,5.36158 z m -102.44655,-8.382 c -0.70197,-2.60844 -3.22433,-5.49566 -4.03916,-4.62342 -0.41818,0.44764 -0.19503,1.01573 0.4959,1.2624 0.69093,0.24668 0.98855,0.88162 0.66139,1.41099 -0.89475,1.44774 0.19714,3.53337 1.84984,3.53337 0.84297,0 1.27837,-0.66798 1.03203,-1.58334 z m 17.45051,-15.74019 c 2.88819,-3.15091 2.83169,-4.66475 -0.41352,-11.07879 -2.58359,-5.10638 -2.7908,-5.26435 -6.90498,-5.26435 -3.99788,0 -4.40005,0.27062 -7.00314,4.71247 -3.1866,5.43751 -3.51062,9.43417 -0.9906,12.21876 3.30646,3.65359 11.72044,3.33044 15.31224,-0.58809 z m -23.75,-4.34314 c 0,-0.55 -1.0125,-0.96837 -2.25,-0.92971 -2.1469,0.0671 -2.15836,0.10966 -0.25,0.92971 1.1,0.47269 2.1125,0.89106 2.25,0.92971 0.1375,0.0387 0.25,-0.37971 0.25,-0.92971 z m 38.51008,-1.01631 c 0.34546,-0.55897 1.00926,-0.78075 1.4751,-0.49285 1.12362,0.69444 6.4729,-1.3661 5.65912,-2.17988 -0.85361,-0.8536 -11.6443,1.78632 -11.6443,2.84875 0,1.19231 3.75498,1.04576 4.51008,-0.17602 z m -47.3148,-1.59046 c -1.8176,-0.79399 -3.7301,-1.18073 -4.25,-0.85941 -0.5199,0.32132 -0.94528,0.19733 -0.94528,-0.27554 0,-0.47286 -2.0482,-1.85484 -4.55156,-3.07107 -2.87828,-1.39837 -4.28849,-2.63699 -3.83596,-3.3692 0.47173,-0.76327 0.1713,-0.94902 -0.88151,-0.54501 -2.12668,0.81608 -2.87813,-2.79002 -2.96808,-14.24328 -0.0566,-7.20144 -0.3786,-9.05201 -1.66091,-9.54408 -1.0099,-0.38754 -2.34339,0.33348 -3.651986,1.97462 -1.133684,1.42177 -2.936211,2.50355 -4.005617,2.40395 -4.991904,-0.46494 -6.273138,0.0722 -5.691282,2.38579 0.311219,1.2375 1.16909,2.60986 1.90638,3.04969 0.73729,0.43983 1.340527,1.68364 1.340527,2.76402 0,3.21799 4.239271,8.72347 8.195318,10.64314 2.03243,0.98623 3.9028,2.58065 4.15638,3.54315 0.25359,0.9625 1.37663,1.75 2.49566,1.75 1.11904,0 2.33695,0.4892 2.70648,1.08712 0.36954,0.59791 1.49952,0.87068 2.51107,0.60616 1.01156,-0.26453 1.97972,-0.0594 2.15148,0.45587 0.17175,0.51526 1.82972,1.12888 3.68437,1.3636 1.85465,0.23472 3.6107,0.66537 3.90233,0.95701 0.29164,0.29163 1.01774,0.49353 1.61358,0.44867 0.59583,-0.0449 -0.40379,-0.73121 -2.22139,-1.5252 z m 16.03618,-5.57047 c 2.69376,-5.08919 2.70411,-5.17959 0.75,-6.5483 -1.0898,-0.76333 -1.98146,-2.11579 -1.98146,-3.00548 0,-1.36927 0.34542,-1.30665 2.25,0.40794 3.96891,3.57299 4.90159,3.77525 4.18167,0.90687 -0.82996,-3.30682 0.31958,-3.36824 1.56833,-0.0838 0.52277,1.375 1.42277,2.5 2,2.5 0.57723,0 1.47723,-1.125 2,-2.5 0.52277,-1.375 1.23542,-2.5 1.58366,-2.5 0.34823,0 0.3508,1.125 0.006,2.5 -0.80458,3.20569 0.11439,3.15801 3.60592,-0.18709 2.16039,-2.07007 2.80442,-2.31271 2.80442,-1.05671 0,0.89672 -0.84079,2.2193 -1.86841,2.93908 -1.79416,1.25668 -1.74942,1.51932 1.1258,6.60853 3.37887,5.98069 2.85562,5.91132 15.44683,2.04782 13.4313,-4.12128 17.55306,-12.22786 14.19011,-27.90876 -0.96379,-4.49398 -0.82132,-6.05655 1.11018,-12.17655 2.50601,-7.94032 2.24534,-12.20233 -1.0274,-16.79846 -5.59019,-7.8507 -17.80197,-9.13134 -29.69859,-3.11446 -7.51462,3.80062 -11.60593,3.96767 -16.45605,0.67193 -10.00432,-6.79811 -26.06616,-5.60932 -31.73273,2.34864 -3.39484,4.76761 -3.66459,9.11823 -1.06637,17.19869 2.01449,6.26508 2.14657,7.67922 1.12901,12.08754 -2.91585,12.63216 -0.13481,21.16083 8.34762,25.59975 2.98393,1.56152 14.63714,4.98515 17.5,5.14137 0.83102,0.0453 2.7182,-2.21963 4.23146,-5.07856 z m 2.1769,-19.20097 c -0.80937,-2.10919 0.3267,-3.62179 2.72021,-3.62179 1.51073,0 1.93109,0.5568 1.69098,2.23978 -0.37294,2.61398 -3.55579,3.61115 -4.41119,1.38201 z m 3.59164,-1.12179 c 0,-0.825 -0.42344,-1.5 -0.94098,-1.5 -1.26098,0 -2.1641,1.56159 -1.36517,2.36052 1.12619,1.12618 2.30615,0.68589 2.30615,-0.86052 z m 5.36419,1.00669 c -0.34636,-0.90262 -0.15025,-2.12063 0.43581,-2.70669 1.52361,-1.52361 4.41041,-0.13109 4.01242,1.93549 -0.4433,2.30188 -3.64766,2.85743 -4.44823,0.7712 z m 2.78581,-1.00669 c 0,-0.5225 -0.48375,-1.11125 -1.075,-1.30833 -0.59125,-0.19709 -1.075,0.39166 -1.075,1.30833 0,0.91667 0.48375,1.50542 1.075,1.30833 0.59125,-0.19708 1.075,-0.78583 1.075,-1.30833 z m -36.10996,-9.1849 c -0.022,-0.6517 0.43994,-2.4517 1.02657,-4 3.63581,-9.59596 14.43274,-10.02251 17.97332,-0.71007 1.63093,4.28967 1.08236,4.67111 -2.11685,1.47189 -4.89206,-4.89205 -12.22789,-4.08122 -15.36428,1.69822 -0.8133,1.49867 -1.49674,2.19165 -1.51876,1.53996 z m 59.44645,-2.67973 c -3.17158,-4.93866 -10.47031,-4.91391 -15.07172,0.0511 -2.79399,3.01477 -3.14673,1.63078 -0.76109,-2.98612 2.23215,-4.31987 4.17987,-5.63081 8.42201,-5.66854 4.10754,-0.0365 7.22493,2.66351 9.0198,7.81226 1.50855,4.32746 0.86511,4.6439 -1.609,0.7913 z m 14.12089,31.74883 c 2.44105,-1.43055 4.90059,-3.46483 5.46562,-4.52061 0.56504,-1.05578 1.45561,-1.65492 1.97905,-1.33142 0.52343,0.3235 1.42992,-0.66964 2.01441,-2.20698 0.5845,-1.53734 1.67287,-4.15192 2.41862,-5.81017 3.0448,-6.77052 2.97242,-7.51502 -0.7306,-7.51502 -4.79624,0 -8.50422,-4.10908 -9.02388,-10 -0.33347,-3.78019 -0.52582,-4.12657 -1.20252,-2.16546 -0.60719,1.75967 -1.01386,2.00591 -1.6515,1 -0.58341,-0.92036 -0.85071,-0.49937 -0.86127,1.35644 -0.0166,2.919 1.5012,4.59702 2.32033,2.56525 0.27856,-0.69093 0.54199,-0.2649 0.58541,0.94672 0.0434,1.21162 -0.38288,3.23662 -0.94733,4.5 -0.73671,1.64892 -0.63696,3.77838 0.35351,7.54705 0.75889,2.8875 0.99572,5.25 0.52628,5.25 -0.46943,0 -0.85351,0.70156 -0.85351,1.55902 0,0.85746 -0.38723,1.31969 -0.86051,1.02719 -0.47329,-0.29251 -1.71079,1.53416 -2.75,4.05925 -1.13286,2.75261 -2.79049,4.93425 -4.13949,5.44806 -1.2375,0.47134 -2.25,1.30698 -2.25,1.85698 0,1.27658 3.66522,-0.084 9.60738,-3.5663 z m 1.89262,-20.3842 c -0.33992,-0.55 -0.14148,-1 0.44098,-1 0.58246,0 1.05902,0.45 1.05902,1 0,0.55 -0.19844,1 -0.44098,1 -0.24254,0 -0.7191,-0.45 -1.05902,-1 z m -97.160425,-7.55747 c -0.328712,-0.85661 -1.251393,-1.30661 -2.050403,-1 -0.79901,0.30661 -1.892498,0.55747 -2.429974,0.55747 -0.537477,0 -0.699115,0.45 -0.359196,1 0.339919,0.55 1.702353,1 3.027632,1 1.77054,0 2.251091,-0.41306 1.811941,-1.55747 z m 11.090685,-3.35274 c -4.71625,-11.34727 -3.36201,-24.69426 2.90596,-28.64022 9.7105,-6.1132 8.45531,-5.78758 16.38862,-4.25156 4.00134,0.77473 7.27516,1.0784 7.27516,0.67484 0,-0.40356 -1.0125,-0.92876 -2.25,-1.16712 -2.10808,-0.40603 -2.11773,-0.44196 -0.15301,-0.56955 1.15334,-0.0749 3.1347,0.76382 4.40301,1.86382 1.26831,1.1 3.02467,2.00277 3.90301,2.00616 0.87834,0.003 2.83993,0.65452 4.35907,1.44697 3.04546,1.58862 9.97072,1.34847 10.54207,-0.36557 0.19938,-0.59816 1.56252,-1.11919 3.02918,-1.15785 3.20612,-0.0845 7.46144,-1.69867 5.16667,-1.95988 -0.825,-0.0939 0.075,-0.53205 2,-0.97366 1.925,-0.4416 4.625,-0.67883 6,-0.52717 1.375,0.15167 4.43906,0.33318 6.80902,0.40338 2.36996,0.0702 4.06004,0.53047 3.75574,1.02283 -0.63256,1.02351 1.68795,2.10479 4.51703,2.10479 1.05501,0 1.91821,0.38001 1.91821,0.84446 0,0.46445 1.12489,2.15195 2.49975,3.75 2.98885,3.47405 3.89723,7.60488 3.28796,14.95189 -0.24874,2.99951 -0.14608,5.45365 0.22814,5.45365 0.77136,0 3.30711,-5.69706 4.96799,-11.16157 0.61209,-2.01387 1.7312,-3.89884 2.48691,-4.18883 2.00532,-0.76952 0.82188,-4.4153 -3.10443,-9.56371 -1.85148,-2.42776 -3.36632,-4.79026 -3.36632,-5.25 0,-0.45974 -0.5787,-0.83589 -1.286,-0.83589 -1.23483,0 -7.714,-7.61666 -7.714,-9.06829 0,-1.21431 -5.89459,-1.63227 -7.12333,-0.50509 -0.83536,0.76632 -0.99631,0.76129 -0.56264,-0.0176 1.05164,-1.88877 -4.80356,-5.22845 -11.2003,-6.3884 -3.38321,-0.61349 -6.56175,-0.86177 -7.06341,-0.55172 -0.50167,0.31005 -1.14962,0.17943 -1.4399,-0.29025 -0.72515,-1.17331 -17.41222,-1.30121 -21.11042,-0.1618 -1.65,0.50836 -5.45268,1.15462 -8.45041,1.43614 -3.4053,0.31979 -5.76908,1.08128 -6.29969,2.02943 -0.4671,0.83467 -1.47071,1.51758 -2.23023,1.51758 -2.23101,0 -13.46363,7.34478 -14.06811,9.19885 -0.30462,0.93436 -1.39323,1.96525 -2.41913,2.29086 -1.0259,0.3256 -2.358701,1.81112 -2.961789,3.30115 -0.603088,1.49003 -2.208099,4.22691 -3.566691,6.08196 -1.358592,1.85505 -2.226211,3.76755 -1.928041,4.25 0.29817,0.48245 0.04013,0.87718 -0.573426,0.87718 -0.674828,0 -0.415427,1.18522 0.65659,3 0.974679,1.65 2.240271,3 2.812425,3 1.631803,0 3.491666,5.36259 6.013282,17.33825 0.50359,2.39164 0.83433,2.6418 2.10193,1.58979 0.85779,-0.7119 1.22033,-1.93173 0.84355,-2.83825 z m 98.06974,2.91021 c 0.33992,-0.55 -0.0835,-1 -0.94098,-1 -0.85746,0 -1.55902,0.45 -1.55902,1 0,0.55 0.42344,1 0.94098,1 0.51754,0 1.2191,-0.45 1.55902,-1 z M 87.079936,487.11033 c -0.327642,-0.85382 -1.15028,-1.43573 -1.828084,-1.29313 -0.677804,0.14261 -1.252825,-0.31963 -1.277825,-1.0272 -0.025,-0.70756 -0.666508,-1.6703 -1.425574,-2.13943 -1.518386,-0.93841 -2.326776,-12.80774 -0.995086,-14.61052 1.230368,-1.66561 -3.759449,-1.60871 -5.143238,0.0587 -0.975831,1.17581 -0.949566,2.74725 0.127028,7.60006 1.153356,5.19883 2.02139,6.70239 5.778871,10.00986 4.420952,3.89147 5.884576,4.32213 4.763908,1.40171 z m 122.703704,-0.11661 c 0.89452,-0.34326 1.26927,-1.23263 0.91185,-2.16404 -0.39887,-1.03945 -0.20983,-1.33595 0.55169,-0.86531 0.7346,0.45401 0.95847,0.19476 0.61184,-0.70854 -0.43931,-1.14483 -1.00988,-1.0119 -2.90604,0.67705 -2.95017,2.62779 -2.48713,4.334 0.83066,3.06084 z M 94.239914,482.77651 c 0.247209,-2.49793 -0.474541,-3.98846 -3.503867,-7.23606 -2.731479,-2.92829 -4.311206,-3.89977 -5.561342,-3.42005 -4.927121,1.89072 2.532889,15.41991 7.753867,14.06212 0.55,-0.14303 1.140104,-1.67574 1.311342,-3.40601 z m 110.846546,1.63158 c 1.65495,-1.3201 4.34211,-7.27709 4.34211,-9.62575 0,-3.31844 -2.7545,-3.36031 -6.46968,-0.0983 -3.42911,3.0108 -5.48604,8.53707 -4.04528,10.86827 0.70388,1.13891 4.09975,0.50947 6.17285,-1.14418 z m 10.22043,-4.08161 c 1.52233,-4.13264 2.21141,-7.92349 1.34271,-7.3866 -0.47253,0.29204 -0.66449,-0.79526 -0.42659,-2.41621 0.23791,-1.62096 0.044,-2.9985 -0.43094,-3.06121 -7.16568,-0.94619 -7.61282,-0.51006 -4.86966,4.74971 0.82161,1.57537 1.49661,4.25181 1.5,5.94764 0.005,2.74466 0.64813,4.41667 1.69758,4.41667 0.19694,0 0.73105,-1.0125 1.1869,-2.25 z M 86.072352,467.78237 c -1.020921,-0.2164 -2.292541,0.0429 -2.825822,0.57615 -0.626137,0.62614 0.0314,0.76551 1.856219,0.39346 2.092959,-0.42673 2.344421,-0.67819 0.969603,-0.96961 z"
         id="path3034"
         inkscape:connector-curvature="0" />
      <path
         style="fill:#4d330d"
         d="m 143.15682,607.61256 c -6.41874,-1.23944 -10.63613,-6.7282 -7.54492,-9.81941 2.39245,-2.39245 0.0221,-2.00307 -11.20341,1.84039 -13.43022,4.59831 -20.52946,5.12462 -25.797947,1.91253 -4.807457,-2.93101 -7.485418,-9.62005 -7.594482,-18.96959 -0.07465,-6.39938 0.264866,-7.99404 2.31358,-10.86653 2.620758,-3.67455 9.007149,-7.07683 13.348929,-7.11151 3.30386,-0.0264 3.32345,-0.20592 0.62969,-5.77049 -1.16617,-2.40899 -2.34565,-7.1872 -2.62106,-10.61826 -0.59596,-7.42444 1.49284,-12.45179 7.28747,-17.53954 2.01516,-1.76934 3.50417,-3.33063 3.30892,-3.46955 -0.19526,-0.13892 -2.37939,-0.89512 -4.85362,-1.68046 -13.285693,-4.21693 -23.815905,-16.52448 -23.957505,-28.00116 -0.03754,-3.04285 -0.676422,-4.00335 -4.416239,-6.63941 -5.474418,-3.85873 -9.774927,-12.09118 -9.878002,-18.90942 -0.06024,-3.98488 0.368101,-5.09821 2.749617,-7.1467 2.829143,-2.43353 7.32067,-2.75674 11.654705,-0.83867 1.295123,0.57317 2.344917,-0.56436 4.838585,-5.24296 3.396873,-6.37319 9.340679,-13.84034 14.763179,-18.54685 8.22976,-7.14311 25.28084,-11.12411 44.24426,-10.32992 26.07671,1.09209 38.65222,7.89911 50,27.06459 3.2757,5.53239 4.9081,7.42642 6,6.96164 4.33512,-1.84527 8.71523,-1.46381 11.58988,1.00937 2.45225,2.10977 2.89533,3.21284 2.8161,7.01081 -0.13094,6.27686 -4.65772,15.16163 -9.4308,18.50996 -3.13932,2.20223 -3.89448,3.42255 -4.42777,7.15506 -0.35361,2.475 -1.99385,7.30073 -3.64496,10.72385 -4.25525,8.82205 -11.62652,14.50426 -23.70612,18.27408 -2.91701,0.91034 -5.31017,1.84572 -5.31812,2.07862 -0.008,0.2329 2.0025,2.52847 4.46768,5.10127 l 4.48215,4.67783 2.68893,-3.88014 c 4.12856,-5.95752 12.56014,-13.4712 18.5657,-16.54458 6.24222,-3.19448 18.53893,-4.42671 25.4765,-2.55295 7.07708,1.91144 13.06721,6.65903 16.02211,12.69862 2.41532,4.93673 2.62167,6.25331 2.22293,14.18265 -0.5003,9.94883 -2.30916,14.41627 -6.77148,16.72382 -4.01544,2.07647 -7.27298,1.90239 -10.39787,-0.55565 -3.37603,-2.65559 -3.42311,-6.47045 -0.13486,-10.92742 3.59096,-4.86727 3.48028,-11.07897 -0.25,-14.0314 -4.02126,-3.18272 -16.50714,-2.45809 -24.03415,1.39485 -9.41104,4.81733 -19.23845,16.88486 -20.67401,25.38655 l -0.71764,4.25 3.37601,0 c 5.24708,0 11.95912,3.89974 14.44853,8.3947 4.74307,8.56424 3.73241,22.03639 -2.13331,28.43699 -2.96426,3.23457 -3.83852,3.59373 -9.6377,3.95928 -7.26307,0.45783 -15.80853,-1.45035 -26.12773,-5.83425 -3.7125,-1.57718 -6.75,-2.46421 -6.75,-1.97118 0,0.49303 0.45,1.17454 1,1.51446 0.55,0.33992 1,1.6652 1,2.94508 0,4.01006 -9.51241,7.0893 -17.27175,5.591 z m 12.15955,-3.30082 c 2.54274,-1.31541 2.62082,-3.39815 0.1122,-2.99301 -0.825,0.13323 -3.525,0.45518 -6,0.71545 -4.11629,0.43286 -4.04683,0.3835 0.8146,-0.5788 5.34159,-1.05736 7.70784,-3.31995 5.135,-4.91005 -0.73801,-0.45611 -2.124,-0.4107 -3.07998,0.10093 -2.18479,1.16926 -7.92287,1.18253 -9.75448,0.0225 -0.85512,-0.54156 0.33206,-0.68353 3.10358,-0.37113 2.52409,0.2845 5.44196,-0.004 6.6672,-0.66014 1.91815,-1.02656 2.15799,-1.92148 2.00503,-7.48146 -0.15969,-5.80421 -0.40515,-6.45212 -3.03235,-8.00405 -1.68961,-0.99807 -2.8586,-2.54052 -2.8586,-3.77183 0,-1.14578 -0.74375,-2.62707 -1.65278,-3.29176 -1.92421,-1.40703 -0.97832,-3.69136 1.18481,-2.86129 0.88437,0.33937 1.46797,-0.0269 1.46797,-0.92123 0,-0.8165 0.675,-2.04474 1.5,-2.72943 1.98953,-1.65117 2.22009,-21.97694 0.25,-22.04004 -0.6875,-0.022 8.5e-4,-0.71839 1.52967,-1.54748 4.06046,-2.20203 2.49341,-3.31874 -4.04317,-2.88123 l -5.7365,0.38395 5.45149,-0.87291 c 3.20431,-0.51309 5.97355,-1.58688 6.71797,-2.60493 1.87822,-2.56862 0.67211,-3.49704 -2.4364,-1.87543 -3.47694,1.81381 -8.96562,1.82614 -12.41237,0.0279 -1.47362,-0.76883 -2.92029,-1.15689 -3.21482,-0.86236 -1.10669,1.1067 1.55133,4.27709 3.67931,4.38854 2.02916,0.10628 2.04716,0.15633 0.21482,0.59707 -3.76931,0.90663 -3.91769,2.20694 -0.42478,3.72257 1.89469,0.82214 2.64293,1.50356 1.67478,1.52522 -1.38969,0.0311 -1.74532,0.91417 -1.72729,4.28914 0.0202,3.78508 0.37575,4.42336 3.25,5.83472 6.52827,3.20563 6.61817,9.37698 0.21379,14.67627 l -3.31019,2.73901 -0.30112,13.48893 c -0.30005,13.44055 -0.29229,13.49375 2.16184,14.8328 l 2.46297,1.34386 -2.5,-0.64817 c -1.375,-0.3565 -3.2875,-0.89624 -4.25,-1.19943 -2.6191,-0.82502 -2.10938,1.25416 0.88486,3.60943 3.05861,2.4059 12.27802,2.86414 16.25294,0.80784 z M 146.12242,593.937 c -0.93324,-0.93324 0.19452,-2.36052 1.86517,-2.36052 0.79254,0 1.44098,0.675 1.44098,1.5 0,1.50623 -2.11099,2.05568 -3.30615,0.86052 z m -0.2477,-10.44765 c -0.36954,-0.59793 -0.15236,-1.60666 0.48262,-2.24164 0.87268,-0.87268 1.37235,-0.80204 2.04689,0.28938 0.95311,1.54218 0.4725,3.03939 -0.97566,3.03939 -0.48508,0 -1.18431,-0.48921 -1.55385,-1.08713 z m -0.82115,-32.71062 c -0.27117,-0.43876 -0.0915,-1.44749 0.39934,-2.24164 0.67454,-1.09142 1.17421,-1.16206 2.04689,-0.28938 0.63498,0.63498 0.85216,1.64371 0.48262,2.24164 -0.78966,1.27769 -2.23008,1.42001 -2.92885,0.28938 z m 0.64403,-5.89524 c 0.97297,-0.25354 2.32297,-0.23687 3,0.037 0.67703,0.27393 -0.11903,0.48137 -1.76903,0.46099 -1.65,-0.0204 -2.20394,-0.2445 -1.23097,-0.49804 z m 53.01773,55.93347 c 3.56551,-3.22674 4.93616,-7.31258 4.91643,-14.65569 -0.0266,-9.91952 -1.21929,-12.58479 -5.63139,-12.58479 -8.87909,0 -13.0718,5.55988 -13.0718,17.33432 0,7.41227 0.15694,7.96943 2.91315,10.34237 3.27781,2.822 7.45866,2.65428 10.87361,-0.43621 z m -14.83779,-1.70836 c -4.48911,-10.74397 1.29593,-25.46848 10.62546,-27.04469 5.3995,-0.91224 3.72969,-2.94025 -3.81026,-4.62762 -5.38199,-1.20444 -5.63811,-1.16662 -7.17273,1.05925 -5.66875,8.22217 -14.85644,13.92939 -22.93352,14.24588 l -4.15792,0.16293 0,4.81574 c 0,4.65566 0.14128,4.88848 4.25,7.00398 5.57754,2.87176 19.65516,7.77443 22.44897,7.81806 2.12244,0.0331 2.14854,-0.0864 0.75,-3.43353 z m -72.891,1.70257 c 2.93247,-2.03641 4.44203,-5.96359 4.44203,-11.55607 0,-11.27418 -4.92058,-16.66815 -15.21145,-16.67488 l -5.71146,-0.004 -1.066634,3.96118 c -1.28408,4.76871 0.05336,14.6454 2.557148,18.88397 0.922903,1.56236 2.860244,3.57436 4.305206,4.47114 2.71447,1.68466 8.82537,2.2099 10.68516,0.9184 z m 16.44532,-4.93159 9.99671,-3.69691 0.1,-6.80309 c 0.055,-3.74171 0.14652,-8.0406 0.20338,-9.5531 0.10105,-2.68797 -0.0535,-2.76451 -6.85,-3.39341 -7.81926,-0.72352 -12.33138,-1.9573 -15.64421,-4.2777 -2.9642,-2.07621 -8.24117,-1.91529 -13.80917,0.42111 l -4.499998,1.88825 4.289838,0.0559 c 10.50644,0.13684 16.71913,7.63471 15.99066,19.29853 -0.21495,3.44154 -0.75163,7.04484 -1.19264,8.00734 -1.13096,2.46831 -0.004,2.27608 11.41543,-1.9469 z m 44.07961,-19.87805 c 7.68318,-4.80168 11.8108,-11.76912 12.60841,-21.283 0.49297,-5.8802 0.24407,-7.33606 -2.01714,-11.79834 -3.4369,-6.7824 -11.11839,-13.59151 -14.60909,-12.94995 -1.41079,0.2593 -4.14008,0.73001 -6.06508,1.04602 -3.46986,0.56962 -3.50191,0.6218 -3.72164,6.05929 -0.1219,3.0166 -0.91486,6.54272 -1.76213,7.83582 -1.5001,2.28944 -1.88095,14.32167 -0.48071,15.18706 1.02442,0.63313 5.96448,-7.81655 5.96448,-10.20188 0,-1.25378 -0.73133,-4.10737 -1.62518,-6.34132 -0.89385,-2.23395 -1.31307,-4.37383 -0.93161,-4.7553 1.06597,-1.06597 4.43597,3.87947 5.15297,7.56192 1.08024,5.5481 -0.35611,9.17908 -6.49449,16.41756 -8.40672,9.91335 -8.80494,14.70194 -1.37228,16.50164 4.54885,1.10143 10.31396,-0.13 15.35349,-3.27952 z m -28.66242,-9.35035 c 1.38483,-1.30098 2.28019,-2.75001 1.98968,-3.22006 -0.29051,-0.47005 -0.0915,-0.85464 0.44234,-0.85464 0.53379,0 0.87409,-0.7875 0.75621,-1.75 -0.13196,-1.07749 -2.94151,-3.09502 -7.31099,-5.25 -3.90316,-1.925 -7.8169,-4.1176 -8.69719,-4.87244 -1.96531,-1.68525 -2.11667,-8.03944 -0.25223,-10.58921 1.76415,-2.41263 4.05297,-1.15665 2.6544,1.4566 -1.94729,3.63854 -1.19172,6.85594 1.9973,8.50505 l 3,1.55136 0,-3.32568 c 0,-1.82912 -0.45719,-3.78287 -1.01598,-4.34166 -0.55879,-0.55879 -1.12129,-3.57056 -1.25,-6.69283 -0.2331,-5.65454 -0.24777,-5.67909 -3.73402,-6.24974 -1.925,-0.31509 -5.50654,-0.95882 -7.95898,-1.43052 -5.18455,-0.99717 -6.18292,-0.57071 -11.4936,4.90953 -3.63537,3.75145 -3.98603,4.60398 -4.36926,10.62262 -0.74198,11.65258 3.80267,18.98334 14.01789,22.61158 7.56608,2.68731 17.76685,2.16827 21.22443,-1.07996 z m 99.72561,-12.0747 c 4.0568,-5.49394 4.69347,-20.35033 1.11423,-26 -9.5472,-15.06984 -32.20232,-15.69851 -47.83621,-1.32744 -4.29136,3.94473 -10.42411,11.77791 -10.42411,13.31441 0,0.70455 0.5147,2.9989 1.14378,5.09857 l 1.14377,3.81758 2.69234,-3.70156 c 4.19598,-5.76885 10.75619,-11.1949 16.72781,-13.83583 10.04407,-4.44197 22.51014,-4.10016 26.8835,0.73713 2.9912,3.30851 2.54289,11.65314 -0.89238,16.61024 -1.48435,2.14192 -2.69882,4.34271 -2.69882,4.89065 0,4.15302 9.15159,4.45158 12.14609,0.39625 z m -88.39609,-23.64726 c 2.88802,-3.16304 2.83165,-4.67442 -0.41352,-11.08839 -2.59135,-5.12172 -2.77987,-5.26435 -6.95785,-5.26435 -4.04904,0 -4.44905,0.26402 -7.00314,4.62225 -3.13417,5.34805 -3.45275,9.52991 -0.93773,12.30898 3.37297,3.72708 11.66714,3.41373 15.31224,-0.57849 z m -19.75,-4.21899 c 0,-0.41152 -3.2625,-1.58751 -7.25,-2.61332 -10.07392,-2.59156 -13.74913,-4.22364 -17.43136,-7.74089 -4.1167,-3.93225 -5.84668,-10.80055 -4.82298,-19.14796 1.10327,-8.99619 0.92071,-12.42557 -1.03376,-19.41924 -1.53877,-5.50618 -1.58938,-6.81119 -0.40722,-10.5 2.55218,-7.96378 10.07989,-12.71234 20.15241,-12.71234 5.57373,0 12.71523,2.09643 16.62486,4.88034 4.10688,2.92435 7.84069,2.65934 15.07113,-1.06968 10.13537,-5.22722 22.23689,-4.92954 28.94138,0.71192 6.1359,5.16301 7.37093,13.69191 3.49541,24.13856 -1.25738,3.38931 -1.33932,5.11417 -0.44179,9.29922 3.51015,16.36727 -1.18431,25.42386 -15.43705,29.7813 -3.82857,1.17049 -8.19853,2.39103 -9.71103,2.71231 -1.5125,0.32127 -2.75,1.17524 -2.75,1.8977 0,2.80842 17.93927,-1.27303 28.06758,-6.38578 7.06812,-3.56798 13.08417,-10.28014 15.2643,-17.03052 2.49786,-7.73418 2.30708,-8.60836 -1.77461,-8.13185 -2.68652,0.31364 -4.00446,-0.1598 -6,-2.15535 -4.75404,-4.75404 -2.60787,-15.49243 4.87323,-24.38321 l 2.54129,-3.02014 -2.58776,-4.87241 c -8.98146,-16.91093 -17.95131,-23.56201 -37.11918,-27.52363 -15.58398,-3.22089 -37.1907,-1.00855 -49.00262,5.01744 -5.80951,2.96379 -12.37923,9.67039 -18.134262,18.51209 -5.380587,8.26641 -5.734806,9.12861 -4.152181,10.10672 0.536682,0.33169 2.657887,3.13726 4.713788,6.23461 3.062927,4.6145 3.807899,6.72925 4.125035,11.70972 0.33353,5.23802 0.0893,6.34764 -1.766993,8.02755 -1.339996,1.21268 -3.644352,1.96707 -6.097646,1.99623 -4.433249,0.0527 -4.666988,0.67168 -2.66096,7.04686 3.648842,11.59607 10.868449,17.83389 26.077929,22.53162 6.67206,2.06079 16.64609,3.86391 17.88306,3.23292 0.4125,-0.21041 0.75,-0.71927 0.75,-1.13079 z m 3.24981,-8.14835 2.74982,-4.98577 -2.08315,-2.08315 c -2.81566,-2.81566 -1.51316,-3.82566 1.40191,-1.08709 3.01484,2.83229 3.86311,2.74193 3.09225,-0.32939 -0.3451,-1.375 -0.34253,-2.5 0.006,-2.5 0.34824,0 1.06089,1.125 1.58366,2.5 1.23028,3.23589 2.55448,3.16265 4.51997,-0.25 l 1.58385,-2.75 -0.57096,2.75 c -0.68856,3.31637 0.084,3.45854 3.14875,0.57939 1.27078,-1.19383 2.64306,-1.83806 3.04951,-1.43161 0.40645,0.40645 -0.32717,1.54322 -1.63027,2.52615 l -2.36928,1.78715 2.63422,3.87659 c 1.44851,2.13213 2.63391,4.44714 2.63391,5.14446 0,1.76523 2.37005,1.59214 11.01962,-0.80478 9.76927,-2.70721 13.78615,-5.28873 16.0765,-10.33189 2.09905,-4.62192 2.46013,-13.05193 0.81312,-18.98372 -0.89928,-3.23882 -0.70779,-5.17499 1.14648,-11.59216 2.66936,-9.23799 2.16545,-13.55915 -2.15503,-18.47991 -3.91615,-4.46024 -8.54047,-5.90573 -16.96494,-5.30296 -5.15818,0.36907 -8.11257,1.23653 -12.34337,3.62424 -6.75986,3.81503 -11.03418,4.00198 -15.53744,0.67958 -4.26497,-3.14659 -12.27993,-4.93539 -19.44969,-4.34082 -7.04696,0.58439 -12.40565,4.50317 -14.5819,10.66367 -1.34488,3.80707 -1.3071,4.78047 0.42337,10.90835 2.04306,7.23474 2.12575,8.86847 1.01139,19.98156 -1.34872,13.45035 2.96851,19.07121 17.94017,23.35739 9.23223,2.64306 9.73795,2.52008 12.85153,-3.12528 z m 4.72519,-18.64373 c 1.5366,-0.76206 1.23425,-3.34167 -0.39167,-3.34167 -0.77916,0 -1.64541,0.46125 -1.925,1.025 -0.27958,0.56375 -0.39208,0.45125 -0.25,-0.25 0.42568,-2.10094 4.09167,-1.52603 4.09167,0.64167 0,1.05416 -0.57375,2.03291 -1.275,2.175 -0.70125,0.14208 -0.81375,0.0296 -0.25,-0.25 z m 6.405,-0.79378 c -0.75667,-1.97186 0.37637,-3.5727 2.42902,-3.43189 1.5245,0.10458 1.51869,0.16103 -0.059,0.57333 -0.96252,0.25152 -1.75002,1.06633 -1.75002,1.81067 0,0.74434 0.7875,1.55915 1.75,1.81067 1.64009,0.42861 1.63812,0.46461 -0.0314,0.57333 -0.97977,0.0638 -2.03214,-0.53745 -2.33862,-1.33611 z m -31.91551,-14.04789 c 3.16996,-8.04322 10.16,-10.11184 14.94662,-4.42327 1.42389,1.69219 2.58889,3.45539 2.58889,3.91821 0,0.46282 0.28157,1.57524 0.62571,2.47206 0.34414,0.89682 -0.74624,0.25862 -2.42308,-1.41821 -2.49593,-2.49593 -3.86561,-3.04879 -7.55323,-3.04879 -3.8761,0 -4.8711,0.45336 -7.13291,3.25 l -2.62847,3.25 1.57647,-4 z m 40.97563,1.5 c 2.9177,-10.0651 12.45379,-11.98878 17.27062,-3.48394 3.02099,5.33402 2.86883,6.74747 -0.29431,2.73394 -2.21518,-2.81072 -3.17317,-3.25 -7.0877,-3.25 -3.81563,0 -5.00417,0.51029 -7.56982,3.25 -2.87277,3.06768 -3.00285,3.10975 -2.31879,0.75 z m -62.945301,5.36361 c 2.022752,-0.7762 3.669263,-4.77245 2.848048,-6.9125 -0.488984,-1.27427 -0.821133,-1.13607 -1.781699,0.74132 -1.760105,3.44006 -6.263325,2.74875 -10.250725,-1.57364 -4.050495,-4.39078 -5.260415,-9.9116 -2.774247,-12.65878 2.437562,-2.69348 3.797174,-2.47802 8.140072,1.28999 l 3.745859,3.25 -2.772966,-3.67555 c -5.25224,-6.96181 -11.574226,-9.01221 -15.851696,-5.14116 -1.625522,1.47108 -1.891932,2.61083 -1.41818,6.06723 1.564755,11.41613 12.500637,21.53521 20.115534,18.6131 z m 110.273651,-0.91134 c 5.16089,-2.15636 8.10898,-5.1311 10.85411,-10.95227 4.27926,-9.07436 2.60379,-14.52913 -4.44401,-14.4682 -3.89302,0.0337 -5.166,0.78332 -9.17857,5.40526 l -2.5,2.87966 3.22695,-2.32938 c 2.74753,-1.98331 3.60179,-2.15859 5.75,-1.1798 1.8976,0.86461 2.52305,1.90846 2.52305,4.21086 0,4.64737 -3.37462,10.32987 -7.4322,12.51502 -4.29849,2.31489 -6.7244,1.32544 -7.69949,-3.14036 -0.60723,-2.7811 -0.64072,-2.79631 -0.86515,-0.39306 -0.39409,4.21998 0.12238,6.36918 1.84561,7.68018 2.18118,1.65938 3.49314,1.62163 7.9197,-0.22791 z M 94.843521,484.93752 c 0.34591,-0.90142 -0.303043,-3.56415 -1.442118,-5.91716 -3.475703,-7.17985 -9.972831,-9.73731 -9.972831,-3.9256 0,7.122 9.361451,15.19409 11.414949,9.84276 z m 109.368259,0.0782 c 4.46383,-3.12659 6.97135,-11.82878 3.76317,-13.05987 -3.39586,-1.30311 -9.52892,6.00693 -9.53979,11.37058 -0.008,3.71544 2.03225,4.31195 5.77662,1.68929 z"
         id="path3032"
         inkscape:connector-curvature="0" />
      <path
         style="fill:#150603"
         d="m 140.42857,606.93073 c -2.60442,-1.05707 -6,-4.63859 -6,-6.32856 0,-0.89413 0.5325,-2.15819 1.18333,-2.80902 1.8835,-1.8835 0.0829,-2.66106 -2.9291,-1.26493 -6.65779,3.08598 -21.00248,7.04826 -25.51692,7.04826 -8.924384,0 -13.847257,-5.03252 -15.75451,-16.10542 -1.23391,-7.16368 -0.407529,-12.43784 2.62491,-16.75279 1.928656,-2.74435 8.74512,-6.08811 12.47563,-6.11983 1.42083,-0.0121 2.81247,-0.2511 3.09253,-0.53116 0.28006,-0.28006 -0.55478,-2.65912 -1.85519,-5.28679 -5.27822,-10.66533 -3.8012,-21.06897 3.9308,-27.68727 2.25178,-1.92744 3.90389,-3.65237 3.67134,-3.83317 -0.23255,-0.18079 -2.67282,-1.15707 -5.42282,-2.16951 -10.768835,-3.96463 -18.299947,-10.6907 -21.476486,-19.18076 -1.112931,-2.97458 -2.023512,-6.91469 -2.023512,-8.7558 0,-2.44944 -0.657628,-3.77838 -2.451348,-4.95367 -6.809015,-4.46143 -11.548652,-12.70894 -11.548652,-20.09595 0,-6.17082 2.540038,-8.96915 8.137498,-8.965 2.399376,0.002 5.10679,0.35742 6.016476,0.79031 1.314969,0.62577 2.324509,-0.47096 4.92544,-5.35081 1.799305,-3.37584 6.070927,-9.16157 9.492494,-12.85718 10.17333,-10.98813 20.75531,-14.98024 41.92809,-15.81757 10.85237,-0.42919 14.56942,-0.16685 22.5,1.588 10.26743,2.27193 17.68026,5.55411 22.6329,10.02118 4.61268,4.16043 11.17752,12.75557 14.00644,18.33816 1.97478,3.89705 2.82384,4.73024 4.17015,4.09224 3.17274,-1.50351 9.93229,-0.91087 12.11221,1.06193 5.17348,4.68193 0.77607,19.79105 -7.48717,25.72526 -3.66107,2.62918 -4.43453,3.74361 -4.43453,6.38939 0,11.97359 -10.44588,23.92521 -25.2717,28.91455 -3.42557,1.15281 -6.33217,2.4129 -6.45912,2.80019 -0.12694,0.3873 1.75626,2.74873 4.1849,5.24762 l 4.41572,4.54344 3.02389,-4.39508 c 4.33148,-6.29558 12.73051,-13.55652 19.05161,-16.47008 15.85417,-7.30757 36.43104,-1.23972 41.58807,12.26378 2.16858,5.67833 1.68679,18.42845 -0.89647,23.72452 -2.13481,4.37667 -7.4842,7.33147 -11.47165,6.3365 -6.16205,-1.53759 -7.85257,-6.33087 -4.09429,-11.60888 4.57522,-6.4253 4.27505,-13.51041 -0.66779,-15.76251 -1.3735,-0.62581 -5.2886,-1.11913 -8.70022,-1.09625 -11.74704,0.0788 -21.39891,5.46983 -29.0904,16.24848 -5.02255,7.03847 -8.33043,15.56383 -6.28328,16.19382 0.6439,0.19816 2.97073,0.65813 5.17073,1.02216 9.94207,1.64511 14.82164,8.57743 14.8291,21.06748 0.005,8.49472 -2.24884,13.84753 -7.22698,17.16327 -6.70339,4.46487 -18.64776,2.49721 -38.85212,-6.40031 -0.7098,-0.31258 -1.25,0.14401 -1.25,1.05652 0,0.88385 0.45,1.60699 1,1.60699 1.73705,0 1.08292,3.61499 -0.99429,5.49483 -1.44149,1.30454 -4.0055,1.89676 -9.25,2.13652 -3.99064,0.18245 -7.93071,0.0577 -8.75571,-0.2771 z m 15.25,-2.51619 c 2.60577,-1.02402 3.88886,-3.83806 1.75,-3.83806 -0.55,0 -1,-0.87344 -1,-1.94098 0,-1.06754 -0.45,-2.2191 -1,-2.55902 -0.55,-0.33992 -1,-3.72564 -1,-7.52383 0,-6.14383 -0.24826,-7.03654 -2.25,-8.09069 -2.84766,-1.49963 -3.71545,-2.80908 -3.73469,-5.63548 -0.009,-1.26087 -0.56483,-2.1401 -1.26531,-2 -0.6875,0.1375 -1.25,-0.425 -1.25,-1.25 0,-0.825 0.68698,-1.39086 1.52661,-1.25746 0.85257,0.13545 2.31423,-1.21998 3.31044,-3.06981 1.43144,-2.65803 1.74522,-5.37272 1.58847,-13.74254 -0.16768,-8.9533 0.0362,-10.47597 1.43957,-10.75351 2.18043,-0.43121 2.10473,-3.17668 -0.0876,-3.17668 -1.41588,0 -1.32687,-0.27711 0.5,-1.5567 1.22238,-0.85619 2.22251,-2.20619 2.22251,-3 0,-1.78533 0.0683,-1.78761 -4.57587,0.15285 -4.03815,1.68724 -10.6467,1.29395 -13.14868,-0.78251 -1.86256,-1.54579 -2.92925,-0.0902 -1.55108,2.11661 0.63176,1.01161 0.91047,2.75011 0.61936,3.86333 -0.36973,1.41385 0.0125,2.12837 1.26774,2.37011 1.4857,0.28612 1.7535,1.21146 1.54575,5.34119 -0.24434,4.85721 -0.14645,5.05034 3.54575,6.99512 3.06744,1.6157 3.85826,2.63808 4.11567,5.32077 0.37199,3.87689 -1.86668,7.78837 -5.37153,9.38528 -2.4037,1.0952 -2.44711,1.33389 -2.44711,13.45447 0,6.78671 -0.3375,12.34299 -0.75,12.34728 -0.4125,0.004 -1.30858,1.21069 -1.99128,2.68089 -1.0479,2.25664 -0.98268,2.95885 0.41866,4.50732 3.29935,3.64573 10.71148,4.33835 17.57262,1.64205 z m -8.4375,-2.52117 c 0.72187,-0.28887 1.58437,-0.25335 1.91667,0.0789 0.33229,0.33229 -0.25834,0.56864 -1.3125,0.52522 -1.16495,-0.048 -1.4019,-0.28494 -0.60417,-0.60416 z m 2,-5 c 0.72187,-0.28887 1.58437,-0.25335 1.91667,0.0789 0.33229,0.33229 -0.25834,0.56864 -1.3125,0.52522 -1.16495,-0.048 -1.4019,-0.28494 -0.60417,-0.60416 z m -3.26979,-3.24779 c -0.73955,-1.1966 1.14162,-2.38223 2.4736,-1.55902 1.11836,0.69118 0.38417,2.48992 -1.01631,2.48992 -0.48508,0 -1.14086,-0.41891 -1.45729,-0.9309 z m -0.0427,-10.0691 c -0.39915,-0.64585 -0.27574,-1.62426 0.27426,-2.17426 0.66667,-0.66667 1.24192,-0.60858 1.72574,0.17426 0.39915,0.64585 0.27574,1.62426 -0.27426,2.17426 -0.66667,0.66667 -1.24192,0.60858 -1.72574,-0.17426 z m -0.5,-33.41667 c 0,-0.87083 0.7125,-1.58333 1.58333,-1.58333 0.87084,0 1.40521,0.53437 1.1875,1.1875 -0.61807,1.85422 -2.77083,2.16176 -2.77083,0.39583 z m 0.8125,-5.26644 c 0.72187,-0.28887 1.58437,-0.25335 1.91667,0.0789 0.33229,0.3323 -0.25834,0.56864 -1.3125,0.52522 -1.16495,-0.048 -1.4019,-0.28494 -0.60417,-0.60416 z m -0.5625,-5.00622 c 0.9625,-0.25152 2.5375,-0.25152 3.5,0 0.9625,0.25153 0.175,0.45733 -1.75,0.45733 -1.925,0 -2.7125,-0.2058 -1.75,-0.45733 z m -5.4375,-0.99378 c 0.72187,-0.28887 1.58437,-0.25335 1.91667,0.0789 0.33229,0.3323 -0.25834,0.56864 -1.3125,0.52522 -1.16495,-0.048 -1.4019,-0.28494 -0.60417,-0.60416 z m 45.343,62.15367 c -4.6989,-5.97368 -3.34303,-19.21636 2.57323,-25.13263 2.66192,-2.66191 4.14129,-3.33793 7.3046,-3.33793 2.18167,0 3.96667,-0.472 3.96667,-1.04889 0,-1.61593 -8.07945,-4.90911 -12,-4.8912 -2.94351,0.0135 -3.93705,0.6478 -6.24879,3.98969 -3.95859,5.7226 -12.31359,10.76397 -19.17563,11.57046 l -5.57558,0.6553 0,5.22843 0,5.22844 6.75,2.9934 c 8.97783,3.98136 18.09784,6.87357 22.57258,7.15837 1.71413,0.1091 1.70419,-0.0345 -0.16708,-2.41344 z m 12.22962,0.44114 c 5.46541,-4.29909 7.69528,-13.54386 5.40578,-22.4117 -1.14806,-4.44673 -1.61949,-5.03736 -4.26043,-5.33761 -1.63325,-0.18568 -4.64228,0.21445 -6.68673,0.88918 -4.83956,1.5972 -7.84374,8.03438 -7.84374,16.80709 0,4.98295 0.43449,6.50425 2.58889,9.06461 3.10222,3.68678 6.92133,4.03643 10.79623,0.98843 z m -84.83966,-2.36625 c 2.1135,-2.1135 2.45454,-3.37773 2.45454,-9.09887 0,-12.09906 -4.65415,-17.43593 -15.21145,-17.44284 l -5.71146,-0.004 -1.07434,3.9898 c -1.258393,4.67331 -0.417277,13.08247 1.788249,17.87826 3.18143,6.91783 12.942481,9.48937 17.754461,4.67739 z m 11.12486,-1.59619 c 4.85632,-1.6779 10.08225,-3.53874 11.61317,-4.13519 l 2.78349,-1.08446 -0.28349,-10.0971 -0.28349,-10.09711 -4,0.26743 c -4.88293,0.32646 -14.7547,-2.17909 -19.05369,-4.83601 -2.6159,-1.61672 -3.93412,-1.80654 -7.55745,-1.08827 -5.09953,1.01091 -9.482956,2.65006 -10.188136,3.80977 -0.271456,0.44642 1.827698,0.84361 4.664786,0.88263 3.15984,0.0435 6.21234,0.76156 7.87881,1.85348 7.1771,4.70262 9.39845,15.62386 5.25284,25.82557 -0.91059,2.24082 -1.19297,2.28086 9.17316,-1.30074 z m 45.91164,-20.09279 c 9.47125,-4.45201 14.93928,-14.69141 14.25299,-26.69004 -0.31646,-5.53275 -0.93471,-7.46911 -3.63554,-11.38645 -1.78983,-2.59601 -4.73473,-5.84925 -6.54424,-7.22942 -3.00317,-2.29064 -3.87113,-2.45514 -9.95574,-1.88695 -6.18091,0.57718 -6.62668,0.77808 -6.12872,2.76211 0.6845,2.72727 -1.1271,10.92641 -2.51653,11.38955 -0.63522,0.21174 -1.03764,3.79574 -1.01255,9.01806 l 0.0416,8.66667 3.40091,-3.85014 c 4.56157,-5.1641 5.22168,-8.64566 2.63176,-13.88036 -2.3562,-4.7623 -1.84214,-6.37761 0.93823,-2.94814 4.70301,5.80095 3.34321,11.99247 -4.7767,21.74953 -2.75805,3.31413 -5.3394,7.04894 -5.73634,8.29957 -2.61398,8.23592 7.49404,11.41365 19.04085,5.98601 z m -31.38004,-8.03511 c 4.48458,-1.34362 7.79808,-4.96094 7.79808,-8.51311 0,-2.03809 -1.15918,-2.95029 -7.31244,-5.75442 -10.14082,-4.62132 -13.04089,-9.50742 -8.72083,-14.69305 1.59403,-1.9134 1.97304,-2.04033 2,-0.6698 0.0183,0.93004 -0.41673,1.9691 -0.96673,2.30902 -1.9265,1.19064 -1.01199,5.34541 1.63486,7.42742 1.44917,1.13992 3.24917,2.07258 4,2.07258 1.82206,0 1.81788,-6.37937 -0.005,-7.89237 -1.77877,-1.47626 -2.81284,-9.18201 -1.45217,-10.82151 1.28184,-1.54453 0.83762,-1.70243 -9.34444,-3.32149 -7.31285,-1.16282 -7.80941,-1.11767 -10.75228,0.97785 -1.69696,1.20833 -4.32184,3.81807 -5.83308,5.7994 -2.36566,3.10154 -2.74296,4.51703 -2.71353,10.18028 0.0646,12.42918 5.79876,19.74788 17.73943,22.64131 6.78602,1.64436 9.1543,1.68821 13.92831,0.25789 z m 101.32602,-12.01605 c 3.68533,-1.67914 5.69487,-6.18711 6.25637,-14.0348 0.85735,-11.98256 -2.79976,-19.16331 -12.2314,-24.0164 -5.88028,-3.02573 -17.80149,-3.58477 -24.56665,-1.15205 -6.40158,2.30197 -15.02693,9.1589 -20.68186,16.44155 l -4.30458,5.54361 1.23674,5.20639 c 0.68021,2.86351 1.46775,5.1965 1.75009,5.18441 0.28234,-0.0121 1.86335,-2.0605 3.51335,-4.55202 6.88966,-10.40345 18.03472,-16.36317 30.67327,-16.40226 6.81481,-0.0211 8.0175,0.2659 10.75,2.56515 2.60973,2.19594 3.07673,3.28304 3.07673,7.16215 0,3.1156 -0.82506,5.9811 -2.58854,8.99026 -3.6611,6.24718 -2.58069,9.57644 3.29149,10.1427 0.66162,0.0638 2.38287,-0.42161 3.82499,-1.07869 z m -85.96567,-25.8638 c 3.1996,-3.00588 3.0722,-6.30264 -0.4831,-12.50105 -2.80466,-4.88971 -3.03091,-5.04517 -6.74062,-4.63149 -4.81046,0.53642 -5.67014,1.23762 -8.25235,6.73104 -2.7545,5.85993 -2.64688,7.05316 0.96155,10.66158 2.7231,2.72311 3.52862,2.99355 7.56226,2.5389 2.79373,-0.31489 5.44371,-1.38178 6.95226,-2.79898 z m -19.56227,-4.40297 c 0,-0.86527 -1.63175,-1.88511 -4,-2.5 -2.2,-0.5712 -5.9125,-1.52532 -8.25,-2.12026 -5.67684,-1.44489 -12.08043,-5.24745 -14.14624,-8.40028 -2.99151,-4.56561 -3.91327,-12.23271 -2.36574,-19.67783 1.24579,-5.99346 1.2097,-7.19417 -0.36071,-12 -2.18017,-6.67188 -2.33669,-14.05114 -0.37836,-17.83814 1.9703,-3.81013 6.9679,-7.50176 12.28115,-9.07185 5.72014,-1.69033 15.86241,0.14801 22.84163,4.14016 2.81695,1.61131 5.6572,2.92966 6.31166,2.92966 0.65447,0 4.43971,-1.58466 8.41165,-3.52146 12.55056,-6.11992 22.7241,-5.64469 29.7589,1.39011 5.10788,5.10787 6.2737,9.8853 4.28506,17.55973 -0.85866,3.31368 -1.93607,6.72531 -2.39423,7.58139 -0.4837,0.9038 -0.23583,4.05869 0.5911,7.52338 1.73749,7.27984 1.02003,14.72984 -1.93301,20.07215 -2.55915,4.62972 -7.79685,7.51131 -18.65286,10.26213 -5.41974,1.37332 -7.59768,2.3902 -7.85215,3.66619 -0.91526,4.58928 25.56855,-2.81418 34.68271,-9.69545 5.93049,-4.47756 11.16721,-13.662 11.16865,-19.58817 7.6e-4,-3.11512 -0.1622,-3.25 -3.92663,-3.25 -4.74099,0 -8.07258,-3.49773 -8.07258,-8.47514 0,-3.89163 5.02121,-14.25671 8.48102,-17.50703 l 2.51517,-2.36288 -3.13182,-5.57747 c -11.44712,-20.38631 -23.76786,-27.56436 -49.36437,-28.75962 -21.53411,-1.00556 -37.27433,3.56201 -47.27772,13.71928 -4.70981,4.78225 -13.222278,17.68595 -13.222278,20.0431 0,0.4975 1.0125,2.05952 2.25,3.47114 3.962737,4.52033 6.861295,10.59271 7.456948,15.62203 0.75511,6.37572 -2.01261,9.82659 -7.881262,9.82659 -3.670701,0 -3.825686,0.13532 -3.825686,3.34028 0,5.51707 5.447343,15.08809 10.806051,18.9863 6.805117,4.95041 9.945347,6.35528 20.366227,9.11138 10.9397,2.89332 14.82772,3.18191 14.82772,1.10058 z m 3.3148,-8.66953 2.81479,-5.10216 -2.23911,-2.38343 c -2.70334,-2.87757 -1.72331,-3.21625 1.10952,-0.38342 2.68158,2.68158 4.37822,2.56558 3.65657,-0.25 -0.55737,-2.17462 -0.51102,-2.16625 1.38337,0.25 l 1.96006,2.5 2.06268,-2.5 c 1.99555,-2.41863 2.04218,-2.42677 1.43262,-0.25 -0.79366,2.83418 0.44013,2.8528 4.11984,0.0622 l 2.88486,-2.18783 -2.32756,2.58484 -2.32756,2.58484 2.57756,4.08312 c 1.41766,2.24571 2.57756,4.60131 2.57756,5.23466 0,2.41757 16.45986,-1.61362 22.1751,-5.43092 4.75866,-3.17838 6.82257,-7.92537 6.81777,-15.68088 -0.002,-3.575 -0.46529,-8.1608 -1.02907,-10.19066 -0.83074,-2.9911 -0.64014,-4.83319 1.00558,-9.71845 3.44595,-10.22914 2.37402,-16.09982 -3.90427,-21.38265 -6.47033,-5.44442 -17.1906,-5.34386 -27.82358,0.26099 -3.15784,1.66457 -6.81175,3.02744 -8.1198,3.02863 -1.30805,0.001 -4.89737,-1.43914 -7.97626,-3.2007 -4.83145,-2.76428 -6.76514,-3.25632 -14.12173,-3.59341 -7.67698,-0.35178 -8.86907,-0.15542 -11.99994,1.97663 -7.94725,5.41188 -9.71736,12.05109 -6.0187,22.57446 1.76204,5.01332 1.86677,6.40804 0.86389,11.50558 -1.41141,7.17406 -0.64572,16.62451 1.62813,20.09483 2.41029,3.67857 7.63009,6.64607 15.35873,8.73156 9.89815,2.67092 10.25764,2.58497 13.45895,-3.21779 z m 3.6852,-18.26202 c 0,-0.21616 0.69837,-0.661 1.55194,-0.98855 0.88992,-0.34149 1.29132,-0.17385 0.94098,0.39301 -0.58726,0.95021 -2.49292,1.40545 -2.49292,0.59554 z m 7.38,-1.0591 c -0.75667,-1.97186 0.37637,-3.5727 2.42902,-3.43189 1.5245,0.10458 1.51869,0.16103 -0.059,0.57333 -2.01858,0.5275 -2.3443,2.9042 -0.5,3.64839 0.97906,0.39506 0.97226,0.5215 -0.0314,0.58333 -0.70477,0.0434 -1.53214,-0.5745 -1.83862,-1.37316 z m -6.88,-2.54789 c -1.63041,-0.70061 -1.68751,-0.87242 -0.30902,-0.92971 0.93004,-0.0387 1.9691,0.37971 2.30902,0.92971 0.71066,1.14988 0.67591,1.14988 -2,0 z m -25.03551,-11.5 c 0.86705,-2.2 2.5171,-4.7875 3.66677,-5.75 4.36734,-3.65632 10.90351,-1.30437 13.47437,4.84857 1.91151,4.57487 1.80979,4.663 -1.52871,1.32451 -2.36552,-2.36553 -3.78226,-2.92308 -7.42752,-2.92308 -3.8761,0 -4.8711,0.45336 -7.13291,3.25 l -2.62847,3.25 1.57647,-4 z m 41.05497,1.23603 c 2.61783,-9.07013 12.12978,-11.63956 16.50782,-4.45919 2.63388,4.31978 2.48808,5.55595 -0.34173,2.89747 -3.59833,-3.38045 -10.00968,-3.00403 -13.82543,0.81172 -2.68604,2.68604 -2.92119,2.76139 -2.34066,0.75 z m -61.055011,4.30325 c 5.033351,-5.56178 -5.153219,-23.95226 -14.208195,-25.65098 -5.296661,-0.99367 -8.256252,1.60501 -8.256252,7.24942 0,12.58503 15.923813,25.62888 22.464447,18.40156 z m -7.557064,-3.83832 c -4.622292,-2.30744 -8.679445,-10.21105 -7.06289,-13.759 3.22564,-7.07951 14.155507,2.30019 14.155507,12.14786 0,2.63197 -3.469074,3.41999 -7.092617,1.61113 z m 5.703029,-1.62809 c 0.848107,-2.21014 -3.124523,-10.2084 -6.009153,-12.09848 -5.013155,-3.28475 -7.417021,1.11363 -4.10697,7.51457 2.636725,5.09886 8.839897,7.9097 10.116123,4.58391 z m 113.970306,4.17713 c 6.24783,-4.22437 9.50576,-10.34443 9.16532,-17.21718 -0.20619,-4.16265 -0.66219,-5.19987 -2.81533,-6.40376 -3.45762,-1.93328 -7.0889,-0.88438 -11.85958,3.42564 -6.71266,6.06449 -10.55062,16.53836 -7.67074,20.93362 2.37603,3.62628 7.11795,3.36066 13.18033,-0.73832 z M 198,487.00505 c -1.94731,-1.94731 -1.97166,-3.53491 -0.12214,-7.96144 2.99391,-7.16543 10.18568,-10.88622 12.53973,-6.48765 2.10626,3.93558 -1.67852,11.77435 -7.0182,14.53561 -3.54076,1.831 -3.48092,1.83196 -5.39939,-0.0865 z m 8.11328,-4.05574 c 2.80625,-2.97549 3.36646,-4.27657 3.11807,-7.24168 -0.42189,-5.03637 -2.99944,-5.25958 -7.24255,-0.62718 -3.13685,3.42464 -4.67873,7.64053 -3.78022,10.33605 0.75988,2.27966 4.54081,1.09957 7.9047,-2.46719 z"
         id="path3030"
         inkscape:connector-curvature="0" />
    </g>
  </g>
</svg>
