<?xml version="1.0" encoding="UTF-8" standalone="no"?>
<!-- Created with Inkscape (http://www.inkscape.org/) -->

<svg
   xmlns:dc="http://purl.org/dc/elements/1.1/"
   xmlns:cc="http://creativecommons.org/ns#"
   xmlns:rdf="http://www.w3.org/1999/02/22-rdf-syntax-ns#"
   xmlns:svg="http://www.w3.org/2000/svg"
   xmlns="http://www.w3.org/2000/svg"
   xmlns:sodipodi="http://sodipodi.sourceforge.net/DTD/sodipodi-0.dtd"
   xmlns:inkscape="http://www.inkscape.org/namespaces/inkscape"
   width="200"
   height="240"
   id="svg2"
   version="1.1"
   inkscape:version="0.48.5 r10040"
   sodipodi:docname="missile.svg">
  <defs
     id="defs4">
    <linearGradient
       id="linearGradient3862">
      <stop
         style="stop-color:#0000ff;stop-opacity:1;"
         offset="0"
         id="stop3864" />
      <stop
         id="stop3878"
         offset="1"
         style="stop-color:#00007f;stop-opacity:0.49803922;" />
      <stop
         style="stop-color:#000000;stop-opacity:0;"
         offset="1"
         id="stop3866" />
    </linearGradient>
    <filter
       id="filter3917"
       inkscape:label="Neon"
       inkscape:menu="Bevels"
       inkscape:menu-tooltip="Neon light effect"
       x="-0.25"
       y="-0.25"
       width="1.5"
       height="1.5"
       color-interpolation-filters="sRGB">
      <feGaussianBlur
         id="feGaussianBlur3919"
         stdDeviation="1"
         result="result1" />
      <feComposite
         id="feComposite3921"
         in2="result1"
         in="result1"
         result="result4"
         operator="in" />
      <feGaussianBlur
         id="feGaussianBlur3923"
         stdDeviation="7"
         result="result6"
         in="result4" />
      <feComposite
         id="feComposite3925"
         in2="result4"
         operator="over"
         in="result6"
         result="result8" />
      <feComposite
         id="feComposite3927"
         in2="result8"
         operator="in"
         result="fbSourceGraphic"
         in="result6" />
      <feSpecularLighting
         id="feSpecularLighting3929"
         specularExponent="45"
         specularConstant="2"
         surfaceScale="2.5"
         lighting-color="rgb(255,255,255)"
         result="result1"
         in="fbSourceGraphic">
        <fePointLight
           id="fePointLight3931"
           z="20000"
           y="-10000"
           x="-5000" />
      </feSpecularLighting>
      <feComposite
         id="feComposite3933"
         in2="fbSourceGraphic"
         operator="in"
         result="result2"
         in="result1" />
      <feComposite
         id="feComposite3935"
         in2="result2"
         k3="1.5"
         k2="1.2"
         operator="arithmetic"
         result="result4"
         in="fbSourceGraphic" />
      <feComposite
         id="feComposite3937"
         in2="result4"
         operator="over"
         in="result9"
         result="result9" />
      <feBlend
         id="feBlend3939"
         in2="result9"
         mode="screen" />
    </filter>
  </defs>
  <sodipodi:namedview
     id="base"
     pagecolor="#ffffff"
     bordercolor="#666666"
     borderopacity="1.0"
     inkscape:pageopacity="0.0"
     inkscape:pageshadow="2"
     inkscape:zoom="7.919596"
     inkscape:cx="-1.8403815"
     inkscape:cy="191.18264"
     inkscape:document-units="px"
     inkscape:current-layer="g3084"
     showgrid="false"
     inkscape:window-width="1920"
     inkscape:window-height="1018"
     inkscape:window-x="-8"
     inkscape:window-y="-8"
     inkscape:window-maximized="1" />
  <metadata
     id="metadata7">
    <rdf:RDF>
      <cc:Work
         rdf:about="">
        <dc:format>image/svg+xml</dc:format>
        <dc:type
           rdf:resource="http://purl.org/dc/dcmitype/StillImage" />
        <dc:title />
      </cc:Work>
    </rdf:RDF>
  </metadata>
  <g
     inkscape:label="Calque 1"
     inkscape:groupmode="layer"
     id="layer1"
     transform="translate(0,-812.36215)">
    <rect
       style="fill:#ffffff;fill-opacity:0;fill-rule:nonzero;stroke:#000000;stroke-width:4.30000019;stroke-miterlimit:4;stroke-opacity:1;stroke-dasharray:none"
       id="rect3090"
       width="170"
       height="210"
       x="17.15"
       y="830.21216"
       rx="10"
       ry="10" />
    <g
       id="g3084"
       transform="matrix(4.845129,0,0,4.8450968,-6.054683,816.05207)">
      <g
         transform="matrix(1.0746244,0,0,1.0746202,-1.109198,-1114.9076)"
         id="layer1-6">
        <path
           inkscape:connector-curvature="0"
           transform="translate(0,1036.4)"
           d="M 3.4724,8.5186 6.5029,1.4475 h 6.9448 L 8.4285,6.5298 h 4.1353 L 4.451,15.6212 6.5344,8.487 z"
           style="fill:#5599ff;stroke:#0066ff;stroke-width:0.25;stroke-linejoin:round"
           id="path2996" />
      </g>
      <g
         style="font-size:10px;font-style:normal;font-weight:normal;line-height:125%;letter-spacing:0px;word-spacing:0px;fill:#ffffff;fill-opacity:1;stroke:#000000;stroke-width:0.41278708;stroke-miterlimit:4;stroke-opacity:1;font-family:Sans;stroke-dasharray:none"
         id="text3758">
        <path
           d="m 8.0612116,3.2889547 0,1.1621094 -0.1367188,0 C 7.2864685,4.4608357 6.7729599,4.6268512 6.3839655,4.949111 5.9949659,5.2713818 5.7614049,5.7189725 5.6832819,6.2918844 6.0608838,5.9077744 6.5377713,5.7157173 7.113946,5.7157125 7.7324316,5.7157173 8.2239675,5.9370712 8.5885553,6.379775 8.9531335,6.822487 9.135425,7.4051687 9.1354303,8.1278219 9.135425,8.5900634 9.0353274,9.0083572 8.8351374,9.3827047 8.6349372,9.7570544 8.3517343,10.048395 7.985528,10.256728 c -0.3662148,0.208334 -0.7804397,0.3125 -1.2426758,0.3125 -0.7487002,0 -1.3533545,-0.260416 -1.8139648,-0.7812498 C 4.4682747,9.267146 4.2379689,8.5721598 4.2379694,7.7030172 l 0,-0.5078125 c -5e-7,-0.7714803 0.1456699,-1.452632 0.4370117,-2.043457 C 4.966321,4.5609333 5.3846149,4.103577 5.9298639,3.7796774 6.4751086,3.4557912 7.1074322,3.2922171 7.8268366,3.2889547 z M 6.6842585,6.848525 C 6.4563912,6.8485287 6.2496856,6.9079362 6.0641413,7.0267477 5.8785923,7.1455661 5.7418737,7.3026298 5.653985,7.4979391 l 0,0.4296875 c -1.9e-6,0.4720073 0.092772,0.8406593 0.2783203,1.105957 0.1855445,0.2653007 0.4459609,0.3979503 0.78125,0.3979493 0.3027311,10e-7 0.5476853,-0.1196278 0.7348633,-0.3588868 C 7.6355892,8.83339 7.7291764,8.5233317 7.7291803,8.1424704 7.7291764,7.7551033 7.6347754,7.4426036 7.4459772,7.2049704 7.2571716,6.9673437 7.0032656,6.8485287 6.6842585,6.848525 z"
           style="font-variant:normal;font-weight:bold;font-stretch:normal;font-family:Roboto;-inkscape-font-specification:Roboto Bold;stroke:#000000;stroke-width:0.41278708;stroke-miterlimit:4;stroke-dasharray:none"
           id="path3013" />
      </g>
    </g>
    <g
       id="g3041"
       transform="matrix(0.72163473,0,0,0.72163473,204.83733,304.34391)">
      <path
         style="fill:#919191"
         d="m -217.73545,980.82059 c -17.31379,-4.66282 -31.66455,-19.32379 -35.70809,-36.47997 -3.02633,-12.84033 -1.01663,-26.67198 5.41799,-37.28906 4.90467,-8.09267 73.68627,-76.31889 80.61218,-79.96128 6.4886,-3.4124 16.16702,-5.69445 24.23076,-5.71332 7.36052,-0.0172 7.29795,1.80628 0.54939,-16.01111 l -4.35438,-11.49634 18.22198,-18.24197 c 17.27191,-17.29086 18.2801,-18.12527 19.33667,-16.00367 0.61308,1.23107 4.41881,11.14846 8.45718,22.03863 l 7.34249,19.80033 -12.68536,12.71358 C -113.29159,821.16888 -119,827.18453 -119,827.54453 c 0,0.35999 1.6192,1.65525 3.59822,2.87835 l 3.59822,2.22382 19.39697,-19.37784 19.39697,-19.37784 3.24039,3.24039 3.24039,3.24039 -19.37784,19.39697 -19.37784,19.39697 2.22382,3.59822 c 1.2231,1.97902 2.51836,3.59822 2.87836,3.59822 0.35999,0 6.36242,-5.69522 13.33873,-12.65604 l 12.6842,-12.65605 22.16253,8.31326 22.16252,8.31326 -18.23975,18.25977 -18.23976,18.25977 -7.59307,-2.81281 C -78.08312,869.83629 -83.975,867.62387 -87,866.46686 c -3.025,-1.15702 -5.77618,-2.1039 -6.11374,-2.10418 -0.33756,-2.7e-4 -0.84683,4.162 -1.1317,9.2495 -0.56847,10.15197 -2.87817,17.59065 -7.71752,24.85528 -1.61016,2.4171 -19.03969,20.4324 -38.7323,40.03401 -37.83041,37.65559 -39.67626,39.15963 -51.99804,42.36904 -7.07505,1.84282 -18.09567,1.82085 -25.04215,-0.0499 z"
         id="path3055"
         inkscape:connector-curvature="0" />
      <path
         style="fill:#7e7e7e"
         d="m -214,981.41217 c -15.49833,-2.88506 -28.37581,-12.84733 -35.52073,-27.47953 -6.84092,-14.00962 -6.78523,-29.15187 0.16026,-43.57046 3.38597,-7.02916 5.88058,-9.76928 39.73662,-43.64722 31.13042,-31.15055 37.00618,-36.58738 42.50684,-39.33153 8.09085,-4.03632 18.94316,-6.38563 25.86701,-5.59971 2.8875,0.32776 5.24281,0.4795 5.23403,0.3372 -0.009,-0.14231 -2.44808,-6.55874 -5.42066,-14.25874 l -5.40468,-14 17.8807,-17.95662 c 9.83439,-9.87614 18.16397,-17.67335 18.51019,-17.32713 0.34622,0.34622 4.23224,10.22669 8.6356,21.95662 l 8.00612,21.32713 -13.18635,12.82343 c -14.42401,14.02704 -13.95983,12.88697 -6.94164,17.04896 2.55839,1.5172 2.60057,1.48282 21.96833,-17.90406 l 19.40501,-19.42417 2.80912,2.6913 2.80911,2.6913 -19.48834,19.53662 -19.48834,19.53662 2.7109,4.20864 c 1.491,2.31475 3.00046,4.22725 3.35438,4.25 0.35391,0.0227 6.27236,-5.80135 13.15212,-12.94243 l 12.50864,-12.98379 21.65914,8.13725 21.65914,8.13724 -4.79872,5.09655 c -2.63929,2.8031 -10.57703,10.98782 -17.63941,18.18826 l -12.8407,13.09173 -13.98674,-5.34173 c -7.6927,-2.93794 -14.17393,-5.34172 -14.40271,-5.34172 -0.22879,0 -0.14762,1.95792 0.18038,4.35094 0.8978,6.55018 -1.3767,17.66532 -5.28925,25.84774 -3.23613,6.76782 -6.02505,9.84438 -38.1683,42.10487 -19.07239,19.14195 -36.92707,36.29054 -39.67707,38.10798 -10.10531,6.67847 -24.95879,9.7869 -36.5,7.63846 z"
         id="path3053"
         inkscape:connector-curvature="0" />
      <path
         style="fill:#f75226"
         d="m -214,981.22664 c -7.03016,-1.15262 -18.24641,-6.52698 -23.91154,-11.45743 -16.40408,-14.27671 -21.1432,-40.69812 -10.90093,-60.77462 l 2.0038,-3.92778 27.80197,27.78867 27.80197,27.78867 2.85236,-2.06989 c 1.56881,-1.13845 18.36825,-17.63305 37.33211,-36.65468 l 34.47974,-34.58478 -28.28451,-28.29757 -28.28451,-28.29757 4.80477,-2.60041 c 7.27298,-3.93624 15.81169,-6.04023 24.5133,-6.04023 4.28531,0 7.78971,-0.0533 7.78755,-0.11842 -0.002,-0.0651 -2.42193,-6.50738 -5.37728,-14.3161 l -5.37336,-14.19769 17.91554,-17.68072 c 9.85355,-9.72439 18.1146,-17.48167 18.35788,-17.23838 0.24328,0.24328 4.09335,10.08856 8.55569,21.8784 l 8.11336,21.43607 -13.34395,12.65368 c -7.33918,6.95952 -13.11896,12.82773 -12.84396,13.04045 0.275,0.21272 2.23596,1.66593 4.35769,3.22935 l 3.85769,2.84258 19.65825,-19.63981 19.65825,-19.63982 2.74085,2.74084 2.74084,2.74085 -19.60647,19.62487 -19.60647,19.62487 3.6983,5.14777 c 7.40475,10.30687 9.95359,23.4944 7.13176,36.89929 -3.02148,14.35334 -4.52261,16.25632 -44.06331,55.85893 -33.87573,33.92876 -36.52312,36.34291 -43.56738,39.72885 -6.96356,3.34716 -17.09913,5.78094 -23,5.52284 -1.375,-0.0601 -4.975,-0.51513 -8,-1.01108 z m 40.20132,-52.73124 -6.27519,-9.07039 -11.44478,-0.28141 -11.44478,-0.28142 6.62623,-8.95788 6.62623,-8.95787 -3.21929,-9.54213 c -1.7706,-5.24816 -3.43791,-10.07396 -3.70513,-10.72399 -0.27468,-0.66816 4.22765,0.37535 10.35841,2.40078 l 10.84427,3.58266 8.96635,-6.6325 8.96636,-6.6325 0.28126,11.42727 0.28127,11.42726 8.93214,6.30445 c 6.93646,4.89587 8.54932,6.46017 7.21873,7.00139 -0.94237,0.38332 -5.7564,1.95832 -10.69785,3.5 l -8.98444,2.80306 -3.5273,10.85181 -3.5273,10.85181 -6.27519,-9.0704 z"
         id="path3051"
         inkscape:connector-curvature="0" />
      <path
         style="fill:#9c5f52"
         d="m -214,981.22664 c -7.03016,-1.15262 -18.24641,-6.52698 -23.91154,-11.45743 -16.40408,-14.27671 -21.1432,-40.69812 -10.90093,-60.77462 l 2.0038,-3.92778 27.80197,27.78867 27.80197,27.78867 2.85236,-2.06989 c 1.56881,-1.13845 18.36825,-17.63305 37.33211,-36.65468 l 34.47974,-34.58478 -28.28451,-28.29757 -28.28451,-28.29757 4.80477,-2.60041 c 7.27298,-3.93624 15.81169,-6.04023 24.5133,-6.04023 4.28531,0 7.78971,-0.0533 7.78755,-0.11842 -0.002,-0.0651 -2.42193,-6.50738 -5.37728,-14.3161 l -5.37336,-14.19769 17.91554,-17.68072 c 9.85355,-9.72439 18.1146,-17.48167 18.35788,-17.23838 0.24328,0.24328 4.09335,10.08856 8.55569,21.8784 l 8.11336,21.43607 -13.34395,12.65368 c -7.33918,6.95952 -13.11896,12.82773 -12.84396,13.04045 0.275,0.21272 2.23596,1.66593 4.35769,3.22935 l 3.85769,2.84258 19.65825,-19.63981 19.65825,-19.63982 2.74085,2.74084 2.74084,2.74085 -19.60647,19.62487 -19.60647,19.62487 3.6983,5.14777 c 7.40475,10.30687 9.95359,23.4944 7.13176,36.89929 -3.02148,14.35334 -4.52261,16.25632 -44.06331,55.85893 -33.87573,33.92876 -36.52312,36.34291 -43.56738,39.72885 -6.96356,3.34716 -17.09913,5.78094 -23,5.52284 -1.375,-0.0601 -4.975,-0.51513 -8,-1.01108 z m 40.20132,-52.73124 -6.27519,-9.07039 -11.44478,-0.28141 -11.44478,-0.28142 6.62623,-8.95788 6.62623,-8.95787 -3.21929,-9.54213 c -1.7706,-5.24816 -3.43791,-10.07396 -3.70513,-10.72399 -0.27468,-0.66816 4.22765,0.37535 10.35841,2.40078 l 10.84427,3.58266 8.96635,-6.6325 8.96636,-6.6325 0.28126,11.42727 0.28127,11.42726 8.93214,6.30445 c 6.93646,4.89587 8.54932,6.46017 7.21873,7.00139 -0.94237,0.38332 -5.7564,1.95832 -10.69785,3.5 l -8.98444,2.80306 -3.5273,10.85181 -3.5273,10.85181 -6.27519,-9.0704 z m 18.8146,-18.02365 8.43119,-2.68363 -7.19179,-4.96297 -7.1918,-4.96297 -0.0318,-8.78352 -0.0318,-8.78353 -6.64913,5.03353 c -3.65702,2.76843 -6.9532,5.03352 -7.32485,5.03352 -0.37164,0 -3.9805,-1.12403 -8.01969,-2.49785 -4.03918,-1.37381 -7.48873,-2.35308 -7.66567,-2.17615 -0.17693,0.17694 0.84432,3.78969 2.26944,8.02835 l 2.59114,7.70664 -5.08512,6.96951 -5.08512,6.9695 8.47336,0 8.47336,0 5.2432,7.20874 5.2432,7.20874 2.5603,-8.31214 2.56031,-8.31215 8.43119,-2.68362 z"
         id="path3049"
         inkscape:connector-curvature="0" />
      <path
         style="fill:#656565"
         d="m -214,981.22664 c -7.03016,-1.15262 -18.24641,-6.52698 -23.91154,-11.45743 -16.40408,-14.27671 -21.1432,-40.69812 -10.90093,-60.77462 l 2.0038,-3.92778 27.80197,27.78867 27.80197,27.78867 2.85236,-2.06989 c 1.56881,-1.13845 18.36825,-17.63305 37.33211,-36.65468 l 34.47974,-34.58478 -28.28451,-28.29757 -28.28451,-28.29757 4.80477,-2.60041 c 7.27298,-3.93624 15.81169,-6.04023 24.5133,-6.04023 4.28531,0 7.78971,-0.0533 7.78755,-0.11842 -0.002,-0.0651 -2.42193,-6.50738 -5.37728,-14.3161 l -5.37336,-14.19769 17.91554,-17.68072 c 9.85355,-9.72439 18.1146,-17.48167 18.35788,-17.23838 0.24328,0.24328 4.09335,10.08856 8.55569,21.8784 l 8.11336,21.43607 -13.34395,12.65368 c -7.33918,6.95952 -13.11896,12.82773 -12.84396,13.04045 0.275,0.21272 2.23596,1.66593 4.35769,3.22935 l 3.85769,2.84258 19.65825,-19.63981 19.65825,-19.63982 2.74085,2.74084 2.74084,2.74085 -19.60647,19.62487 -19.60647,19.62487 3.6983,5.14777 c 7.40475,10.30687 9.95359,23.4944 7.13176,36.89929 -3.02148,14.35334 -4.52261,16.25632 -44.06331,55.85893 -33.87573,33.92876 -36.52312,36.34291 -43.56738,39.72885 -6.96356,3.34716 -17.09913,5.78094 -23,5.52284 -1.375,-0.0601 -4.975,-0.51513 -8,-1.01108 z m 40.20132,-52.73124 -6.27519,-9.07039 -11.44478,-0.28141 -11.44478,-0.28142 6.62623,-8.95788 6.62623,-8.95787 -3.21929,-9.54213 c -1.7706,-5.24816 -3.43791,-10.07396 -3.70513,-10.72399 -0.27468,-0.66816 4.22765,0.37535 10.35841,2.40078 l 10.84427,3.58266 8.96635,-6.6325 8.96636,-6.6325 0.28126,11.42727 0.28127,11.42726 8.93214,6.30445 c 6.93646,4.89587 8.54932,6.46017 7.21873,7.00139 -0.94237,0.38332 -5.7564,1.95832 -10.69785,3.5 l -8.98444,2.80306 -3.5273,10.85181 -3.5273,10.85181 -6.27519,-9.0704 z m 19.41687,-17.75562 c 4.65092,-1.45008 8.17792,-2.91576 7.83776,-3.25706 -0.34015,-0.3413 -3.57049,-2.68263 -7.17852,-5.20296 l -6.56006,-4.58243 0.20536,-9.34317 c 0.16668,-7.58297 -0.0422,-9.1538 -1.10868,-8.33795 -0.72273,0.55288 -4.0992,3.11215 -7.50327,5.68728 l -6.18921,4.68204 -8.23407,-3.00506 c -4.52873,-1.65278 -8.39216,-2.84696 -8.5854,-2.65372 -0.19323,0.19323 0.97056,4.08685 2.58621,8.65249 l 2.93754,8.30116 -5.36841,7.09089 -5.3684,7.09089 9.20548,0.29114 9.20548,0.29115 4.96914,7.05142 4.96915,7.05143 2.86183,-8.58551 2.86184,-8.58551 8.45623,-2.63652 z"
         id="path3047"
         inkscape:connector-curvature="0" />
      <path
         style="fill:#4c4c4c"
         d="m -212.65331,981.26742 c -11.57959,-1.93459 -24.48606,-9.12736 -30.45791,-16.97418 l -2.61122,-3.43106 6.61122,3.24746 c 12.6099,6.19404 28.0326,6.2113 41.40768,0.0463 l 6.83045,-3.14835 6.64533,6.64533 6.64534,6.64533 -6.68991,3.03335 c -3.67944,1.66834 -9.7359,3.47381 -13.45879,4.01214 -7.64832,1.10597 -7.8516,1.10493 -14.92219,-0.0763 z m 102.83514,-88.04872 -6.31817,-6.64347 2.9691,-5.88176 c 3.90453,-7.73483 5.27522,-13.09915 5.41293,-21.18412 0.12823,-7.52838 -0.99844,-16.14717 -2.1108,-16.14717 -0.4084,0 -2.26891,1.5748 -4.13446,3.49956 l -3.39191,3.49956 -2.82023,-2.70195 -2.82022,-2.70195 5.01434,-5.07741 c 4.9462,-5.00841 4.99153,-5.11099 3.33509,-7.54762 l -1.67926,-2.47019 2.22586,1.94569 2.22585,1.94569 19.72097,-19.70248 19.72096,-19.70247 2.74085,2.74084 2.74084,2.74085 -19.63982,19.65825 -19.63981,19.65824 2.59321,3.39989 c 9.27899,12.16537 11.60677,31.31161 5.70787,46.94765 -1.1138,2.95232 -2.81482,6.49285 -3.78005,7.86785 l -1.75497,2.5 -6.31817,-6.64348 z M -123,825.85257 c -1.375,-0.77011 -4.82988,-1.9348 -7.67751,-2.5882 l -5.17751,-1.188 -5.08758,-13.6071 c -2.79818,-7.4839 -5.0808,-14.06476 -5.07249,-14.62414 0.0137,-0.92145 9.15529,-10.12646 28.57817,-28.77635 l 7.06307,-6.78198 8.1913,21.69998 c 4.50522,11.93499 8.06144,21.73945 7.90272,21.78769 -0.15873,0.0482 -6.1232,5.80059 -13.25438,12.78301 -12.65145,12.38752 -13.0264,12.66135 -15.46579,11.29509 z"
         id="path3045"
         inkscape:connector-curvature="0" />
      <path
         style="fill:#393939"
         d="m -240.59501,967.11218 -1.90499,-2.25 2.25,1.90499 c 2.11445,1.79022 2.70524,2.59501 1.90499,2.59501 -0.18976,0 -1.20226,-1.0125 -2.25,-2.25 z m 144.67396,-87.33333 c 0.048,-1.16495 0.28494,-1.4019 0.60416,-0.60417 0.28887,0.72187 0.25335,1.58437 -0.0789,1.91667 -0.3323,0.33229 -0.56864,-0.25834 -0.52522,-1.3125 z m 8.68986,-60.68525 19.24958,-19.26859 -2.24061,-2.24061 -2.24061,-2.24061 -19.51859,19.25919 -19.51858,19.2592 19.46833,-19.72792 19.46832,-19.72792 2.809,2.69119 2.809,2.69119 -19.26771,19.28673 c -10.59724,10.6077 -19.49271,19.28673 -19.76771,19.28673 -0.275,0 8.16231,-8.67086 18.74958,-19.26858 z M -117,822.86218 c 1.86578,-1.925 3.61733,-3.5 3.89233,-3.5 0.275,0 -1.02655,1.575 -2.89233,3.5 -1.86578,1.925 -3.61733,3.5 -3.89233,3.5 -0.275,0 1.02655,-1.575 2.89233,-3.5 z m -25.04179,-33.75 c 2.45201,-2.6125 4.58951,-4.75 4.75,-4.75 0.75088,0 -0.043,0.89783 -4.45821,5.04179 l -4.75,4.45821 4.45821,-4.75 z"
         id="path3043"
         inkscape:connector-curvature="0" />
    </g>
  </g>
</svg>
