<?xml version="1.0" encoding="UTF-8" standalone="no"?>
<!-- Generator: Adobe Illustrator 14.0.0, SVG Export Plug-In . SVG Version: 6.00 Build 43363)  -->

<svg
   xmlns:dc="http://purl.org/dc/elements/1.1/"
   xmlns:cc="http://creativecommons.org/ns#"
   xmlns:rdf="http://www.w3.org/1999/02/22-rdf-syntax-ns#"
   xmlns:svg="http://www.w3.org/2000/svg"
   xmlns="http://www.w3.org/2000/svg"
   xmlns:sodipodi="http://sodipodi.sourceforge.net/DTD/sodipodi-0.dtd"
   xmlns:inkscape="http://www.inkscape.org/namespaces/inkscape"
   version="1.1"
   id="Layer_1"
   x="0px"
   y="0px"
   width="200"
   height="240"
   viewBox="0 0 200 240.00001"
   enable-background="new 0 0 295.393 298.593"
   xml:space="preserve"
   inkscape:version="0.48.4 r9939"
   sodipodi:docname="scorpion.svg"><metadata
     id="metadata276"><rdf:RDF><cc:Work
         rdf:about=""><dc:format>image/svg+xml</dc:format><dc:type
           rdf:resource="http://purl.org/dc/dcmitype/StillImage" /></cc:Work></rdf:RDF></metadata><defs
     id="defs274" /><sodipodi:namedview
     pagecolor="#ffffff"
     bordercolor="#666666"
     borderopacity="1"
     objecttolerance="10"
     gridtolerance="10"
     guidetolerance="10"
     inkscape:pageopacity="0"
     inkscape:pageshadow="2"
     inkscape:window-width="1920"
     inkscape:window-height="1028"
     id="namedview272"
     showgrid="false"
     inkscape:zoom="3.1614942"
     inkscape:cx="144.40445"
     inkscape:cy="101.47493"
     inkscape:window-x="0"
     inkscape:window-y="0"
     inkscape:window-maximized="1"
     inkscape:current-layer="Layer_1" /><linearGradient
     id="SVGID_1_"
     gradientUnits="userSpaceOnUse"
     x1="126.1809"
     y1="538.78369"
     x2="148.6311"
     y2="508.70911"
     gradientTransform="translate(0,-552.00019)"><stop
       offset="0"
       style="stop-color:#C46941"
       id="stop6" /><stop
       offset="1"
       style="stop-color:#9A2D41"
       id="stop8" /></linearGradient><linearGradient
     id="SVGID_2_"
     gradientUnits="userSpaceOnUse"
     x1="169.2551"
     y1="499.3306"
     x2="202.9196"
     y2="567.05579"
     gradientTransform="translate(0,-552.00019)"><stop
       offset="0"
       style="stop-color:#C46941"
       id="stop13" /><stop
       offset="1"
       style="stop-color:#9A2D41"
       id="stop15" /></linearGradient><linearGradient
     id="SVGID_3_"
     gradientUnits="userSpaceOnUse"
     x1="125.3689"
     y1="586.98187"
     x2="127.9103"
     y2="539.12042"
     gradientTransform="translate(0,-552.00019)"><stop
       offset="0"
       style="stop-color:#C46941"
       id="stop20" /><stop
       offset="1"
       style="stop-color:#9A2D41"
       id="stop22" /></linearGradient><linearGradient
     id="SVGID_4_"
     gradientUnits="userSpaceOnUse"
     x1="125.4119"
     y1="619.60211"
     x2="122.4515"
     y2="587.04169"
     gradientTransform="translate(0,-552.00019)"><stop
       offset="0"
       style="stop-color:#C46941"
       id="stop27" /><stop
       offset="1"
       style="stop-color:#9A2D41"
       id="stop29" /></linearGradient><linearGradient
     id="SVGID_5_"
     gradientUnits="userSpaceOnUse"
     x1="130.9846"
     y1="661.20068"
     x2="124.7538"
     y2="623.81671"
     gradientTransform="translate(0,-552.00019)"><stop
       offset="0"
       style="stop-color:#C46941"
       id="stop34" /><stop
       offset="1"
       style="stop-color:#9A2D41"
       id="stop36" /></linearGradient><linearGradient
     id="SVGID_6_"
     gradientUnits="userSpaceOnUse"
     x1="179.842"
     y1="694.9165"
     x2="179.842"
     y2="619.48102"
     gradientTransform="translate(0,-552.00019)"><stop
       offset="0"
       style="stop-color:#C46941"
       id="stop41" /><stop
       offset="1"
       style="stop-color:#9A2D41"
       id="stop43" /></linearGradient><linearGradient
     id="SVGID_7_"
     gradientUnits="userSpaceOnUse"
     x1="88.6931"
     y1="694.91852"
     x2="88.6931"
     y2="619.48181"
     gradientTransform="translate(0,-552.00019)"><stop
       offset="0"
       style="stop-color:#C46941"
       id="stop48" /><stop
       offset="1"
       style="stop-color:#9A2D41"
       id="stop50" /></linearGradient><linearGradient
     id="SVGID_8_"
     gradientUnits="userSpaceOnUse"
     x1="192.011"
     y1="694.9165"
     x2="192.011"
     y2="619.48138"
     gradientTransform="translate(0,-552.00019)"><stop
       offset="0"
       style="stop-color:#C46941"
       id="stop55" /><stop
       offset="1"
       style="stop-color:#9A2D41"
       id="stop57" /></linearGradient><linearGradient
     id="SVGID_9_"
     gradientUnits="userSpaceOnUse"
     x1="99.107201"
     y1="694.91852"
     x2="99.107201"
     y2="619.48059"
     gradientTransform="translate(0,-552.00019)"><stop
       offset="0"
       style="stop-color:#C46941"
       id="stop62" /><stop
       offset="1"
       style="stop-color:#9A2D41"
       id="stop64" /></linearGradient><linearGradient
     id="SVGID_10_"
     gradientUnits="userSpaceOnUse"
     x1="76.736603"
     y1="694.91748"
     x2="76.736603"
     y2="619.48187"
     gradientTransform="translate(0,-552.00019)"><stop
       offset="0"
       style="stop-color:#C46941"
       id="stop69" /><stop
       offset="1"
       style="stop-color:#9A2D41"
       id="stop71" /></linearGradient><linearGradient
     id="SVGID_11_"
     gradientUnits="userSpaceOnUse"
     x1="201.7708"
     y1="694.91748"
     x2="201.7708"
     y2="619.48322"
     gradientTransform="translate(0,-552.00019)"><stop
       offset="0"
       style="stop-color:#C46941"
       id="stop76" /><stop
       offset="1"
       style="stop-color:#9A2D41"
       id="stop78" /></linearGradient><linearGradient
     id="SVGID_12_"
     gradientUnits="userSpaceOnUse"
     x1="214.261"
     y1="694.95172"
     x2="214.261"
     y2="619.51392"
     gradientTransform="translate(0,-552.00019)"><stop
       offset="0"
       style="stop-color:#C46941"
       id="stop83" /><stop
       offset="1"
       style="stop-color:#9A2D41"
       id="stop85" /></linearGradient><linearGradient
     id="SVGID_13_"
     gradientUnits="userSpaceOnUse"
     x1="68.416298"
     y1="694.91748"
     x2="68.416298"
     y2="619.48212"
     gradientTransform="translate(0,-552.00019)"><stop
       offset="0"
       style="stop-color:#C46941"
       id="stop90" /><stop
       offset="1"
       style="stop-color:#9A2D41"
       id="stop92" /></linearGradient><linearGradient
     id="SVGID_14_"
     gradientUnits="userSpaceOnUse"
     x1="4.4973001"
     y1="713.60889"
     x2="289.6741"
     y2="713.60889"
     gradientTransform="translate(0,-552.00019)"><stop
       offset="0"
       style="stop-color:#9A2D41"
       id="stop97" /><stop
       offset="0.5337"
       style="stop-color:#C46941"
       id="stop99" /><stop
       offset="1"
       style="stop-color:#9A2D41"
       id="stop101" /></linearGradient><linearGradient
     id="SVGID_15_"
     gradientUnits="userSpaceOnUse"
     x1="221.97881"
     y1="762.68988"
     x2="221.97881"
     y2="679.24268"
     gradientTransform="translate(0,-552.00019)"><stop
       offset="0"
       style="stop-color:#C46941"
       id="stop106" /><stop
       offset="1"
       style="stop-color:#9A2D41"
       id="stop108" /></linearGradient><linearGradient
     id="SVGID_16_"
     gradientUnits="userSpaceOnUse"
     x1="213.9641"
     y1="762.68597"
     x2="213.9641"
     y2="679.24261"
     gradientTransform="translate(0,-552.00019)"><stop
       offset="0"
       style="stop-color:#C46941"
       id="stop113" /><stop
       offset="1"
       style="stop-color:#9A2D41"
       id="stop115" /></linearGradient><linearGradient
     id="SVGID_17_"
     gradientUnits="userSpaceOnUse"
     x1="69.0159"
     y1="762.68988"
     x2="69.0159"
     y2="679.24268"
     gradientTransform="translate(0,-552.00019)"><stop
       offset="0"
       style="stop-color:#C46941"
       id="stop122" /><stop
       offset="1"
       style="stop-color:#9A2D41"
       id="stop124" /></linearGradient><linearGradient
     id="SVGID_18_"
     gradientUnits="userSpaceOnUse"
     x1="207.2776"
     y1="762.68311"
     x2="207.2776"
     y2="679.24182"
     gradientTransform="translate(0,-552.00019)"><stop
       offset="0"
       style="stop-color:#C46941"
       id="stop133" /><stop
       offset="1"
       style="stop-color:#9A2D41"
       id="stop135" /></linearGradient><linearGradient
     id="SVGID_19_"
     gradientUnits="userSpaceOnUse"
     x1="79.230202"
     y1="762.69287"
     x2="79.230202"
     y2="679.24213"
     gradientTransform="translate(0,-552.00019)"><stop
       offset="0"
       style="stop-color:#C46941"
       id="stop140" /><stop
       offset="1"
       style="stop-color:#9A2D41"
       id="stop142" /></linearGradient><linearGradient
     id="SVGID_20_"
     gradientUnits="userSpaceOnUse"
     x1="233.7883"
     y1="762.68701"
     x2="233.7883"
     y2="679.24219"
     gradientTransform="translate(0,-552.00019)"><stop
       offset="0"
       style="stop-color:#C46941"
       id="stop147" /><stop
       offset="1"
       style="stop-color:#9A2D41"
       id="stop149" /></linearGradient><linearGradient
     id="SVGID_21_"
     gradientUnits="userSpaceOnUse"
     x1="225.70039"
     y1="762.69092"
     x2="225.70039"
     y2="679.24127"
     gradientTransform="translate(0,-552.00019)"><stop
       offset="0"
       style="stop-color:#C46941"
       id="stop154" /><stop
       offset="1"
       style="stop-color:#9A2D41"
       id="stop156" /></linearGradient><linearGradient
     id="SVGID_22_"
     gradientUnits="userSpaceOnUse"
     x1="218.1438"
     y1="762.69092"
     x2="218.1438"
     y2="679.24121"
     gradientTransform="translate(0,-552.00019)"><stop
       offset="0"
       style="stop-color:#C46941"
       id="stop161" /><stop
       offset="1"
       style="stop-color:#9A2D41"
       id="stop163" /></linearGradient><linearGradient
     id="SVGID_23_"
     gradientUnits="userSpaceOnUse"
     x1="69.960701"
     y1="762.68988"
     x2="69.960701"
     y2="679.24268"
     gradientTransform="translate(0,-552.00019)"><stop
       offset="0"
       style="stop-color:#C46941"
       id="stop168" /><stop
       offset="1"
       style="stop-color:#9A2D41"
       id="stop170" /></linearGradient><linearGradient
     id="SVGID_24_"
     gradientUnits="userSpaceOnUse"
     x1="61.8381"
     y1="762.68799"
     x2="61.8381"
     y2="679.24072"
     gradientTransform="translate(0,-552.00019)"><stop
       offset="0"
       style="stop-color:#C46941"
       id="stop175" /><stop
       offset="1"
       style="stop-color:#9A2D41"
       id="stop177" /></linearGradient><linearGradient
     id="SVGID_25_"
     gradientUnits="userSpaceOnUse"
     x1="77.134499"
     y1="762.68903"
     x2="77.134499"
     y2="679.2417"
     gradientTransform="translate(0,-552.00019)"><stop
       offset="0"
       style="stop-color:#C46941"
       id="stop182" /><stop
       offset="1"
       style="stop-color:#9A2D41"
       id="stop184" /></linearGradient><linearGradient
     id="SVGID_26_"
     gradientUnits="userSpaceOnUse"
     x1="212.9827"
     y1="762.68701"
     x2="212.9827"
     y2="679.24359"
     gradientTransform="translate(0,-552.00019)"><stop
       offset="0"
       style="stop-color:#C46941"
       id="stop189" /><stop
       offset="1"
       style="stop-color:#9A2D41"
       id="stop191" /></linearGradient><linearGradient
     id="SVGID_27_"
     gradientUnits="userSpaceOnUse"
     x1="55.618401"
     y1="730.04352"
     x2="89.079597"
     y2="744.86829"
     gradientTransform="translate(0,-552.00019)"><stop
       offset="0"
       style="stop-color:#C46941"
       id="stop214" /><stop
       offset="1"
       style="stop-color:#9A2D41"
       id="stop216" /></linearGradient><linearGradient
     id="SVGID_28_"
     gradientUnits="userSpaceOnUse"
     x1="249.2249"
     y1="737.49951"
     x2="200.5132"
     y2="756.13678"
     gradientTransform="translate(0,-552.00019)"><stop
       offset="0"
       style="stop-color:#C46941"
       id="stop221" /><stop
       offset="1"
       style="stop-color:#9A2D41"
       id="stop223" /></linearGradient><linearGradient
     id="SVGID_29_"
     gradientUnits="userSpaceOnUse"
     x1="55.299599"
     y1="762.69092"
     x2="55.299599"
     y2="679.24042"
     gradientTransform="translate(0,-552.00019)"><stop
       offset="0"
       style="stop-color:#C46941"
       id="stop228" /><stop
       offset="1"
       style="stop-color:#9A2D41"
       id="stop230" /></linearGradient><linearGradient
     id="SVGID_30_"
     gradientUnits="userSpaceOnUse"
     x1="70.032997"
     y1="762.69189"
     x2="70.032997"
     y2="679.22919"
     gradientTransform="translate(0,-552.00019)"><stop
       offset="0"
       style="stop-color:#C46941"
       id="stop235" /><stop
       offset="1"
       style="stop-color:#9A2D41"
       id="stop237" /></linearGradient><linearGradient
     id="SVGID_31_"
     gradientUnits="userSpaceOnUse"
     x1="77.194099"
     y1="762.69287"
     x2="77.194099"
     y2="679.22742"
     gradientTransform="translate(0,-552.00019)"><stop
       offset="0"
       style="stop-color:#C46941"
       id="stop242" /><stop
       offset="1"
       style="stop-color:#9A2D41"
       id="stop244" /></linearGradient><linearGradient
     id="SVGID_32_"
     gradientUnits="userSpaceOnUse"
     x1="38.632099"
     y1="758.03168"
     x2="95.391403"
     y2="778.78711"
     gradientTransform="translate(0,-552.00019)"><stop
       offset="0"
       style="stop-color:#C46941"
       id="stop255" /><stop
       offset="1"
       style="stop-color:#9A2D41"
       id="stop257" /></linearGradient><linearGradient
     id="SVGID_33_"
     gradientUnits="userSpaceOnUse"
     x1="264.35181"
     y1="767.94678"
     x2="208.8634"
     y2="787.43103"
     gradientTransform="translate(0,-552.00019)"><stop
       offset="0"
       style="stop-color:#C46941"
       id="stop262" /><stop
       offset="1"
       style="stop-color:#9A2D41"
       id="stop264" /></linearGradient><g
     id="g3253"
     transform="matrix(0.66590858,0,0,0.66590858,0.41370102,59.600092)"><path
       inkscape:connector-curvature="0"
       id="path3"
       d="m 212.756,-26.70899 c 0.966,2.966 0.054,8.159 0.841,9.061 1.082,5.41 0.787,11.4970004 -0.492,16.4570004 -2.064,8.454 -8.752,14.2029996 -13.079,20.9659996 -3.835,6.2 -2.753,14.879 -5.112,21.417 -0.1,0.676 -0.688,0.563 -1.082,0.563 -2.853,-3.269 -2.359,-8.454 -4.522,-12.286 -3.048,-4.621 -6.49,-10.145 -11.407,-12.061 -4.72,-2.142 -9.539,-4.734 -12.39,-9.9189996 -2.853,-4.058 -4.721,-9.13 -4.425,-14.315 L 160.202,-24.63599 c 0.394,-0.45 0.688,-1.465 1.476,-1.24 3.343,4.058 7.08,7.327 11.997,8.228 2.557,1.015 5.408,0.338 7.769,2.029 0.492,-0.338 0.492,-1.24 0.196,-1.916 -2.458,-9.694 -6.122,-14.115 -15.366,-17.045 -1.572,0.226 -2.852,-1.014 -4.622,-0.789 -0.393,1.015 -0.885,2.593 -1.376,3.945 -1.082,2.142 -1.967,4.17 -4.031,5.298 -6.194,-0.563 -13.374,-0.113 -17.701,5.523 3.246,1.353 6.885,4.283 8.852,7.89 -0.59,1.014 0,2.593 -0.885,3.2690004 -0.886,5.298 -5.016,8.679 -7.276,13.414 -1.377,4.621 -4.13,8.6789996 -5.113,13.4129996 -0.492,3.495 -2.064,6.876 -2.064,10.37 3.441,1.015 8.889,-0.081 9.734,6.087 0.845,6.168 -2.628,25.585 -3.022,29.417 0.099,0.113 5.115,0.605 6.147,2.277 1.032,1.672 0.316,4.599 0.415,5.728 -0.492,1.014 -0.492,2.367 -0.787,3.494 -3.343,10.595 -4.326,22.543 -2.949,33.928 1.967,0 4.031,-1.691 5.899,-1.354 5.899,2.254 11.505,5.975 16.717,9.693 1.771,-12.062 5.508,-23.105 9.734,-34.153 3.442,-6.199 5.312,-13.752 10.916,-18.26 1.181,-0.451 2.36,-0.676 3.442,0.113 1.867,2.818 3.146,6.199 4.326,9.468 1.967,-2.592 3.737,-5.185 6.195,-7.101 2.558,-0.563 3.835,2.255 5.016,4.509 0.589,1.803 1.277,4.058 1.376,6.198 0.099,0.226 0.491,0.226 0.59,0.226 2.458,-3.381 4.72,-7.325 8.457,-8.565 1.475,-0.227 1.572,2.029 2.458,2.817 1.475,3.606 2.064,6.763 2.949,10.595 3.345,-3.606 7.18,-7.552 11.801,-8.453 1.377,-0.678 2.458,1.015 3.344,1.916 0.787,2.592 1.573,3.945 1.082,6.988 0,3.494 1.082,7.213 1.476,10.934 0.887,7.664 0,16.006 0.491,23.107 3.442,-0.564 6.982,-2.256 10.522,-2.367 3.44,-0.676 7.08,-0.338 10.816,-0.676 1.672,-0.228 3.64,0.899 5.016,0 5.211,0.899 10.03,-0.678 14.455,-1.467 4.031,-1.015 8.555,-1.689 12.587,-0.9 4.032,2.479 2.358,8.791 2.163,12.85 -2.753,17.923 -14.356,31.898 -17.7,49.709 -1.868,5.41 3.737,7.439 4.72,11.835 0.591,2.254 1.869,3.944 2.263,6.198 1.082,9.355 -2.753,18.148 -8.851,23.785 -3.44,1.463 -4.917,4.959 -7.867,7.213 2.065,0.902 4.327,0.338 6.688,0.789 2.458,0.677 5.408,0.789 7.67,1.015 0.098,0.112 0.197,0.226 0.295,0.338 5.212,0.563 10.228,2.028 15.438,4.058 0.592,0.451 1.771,1.578 0.786,2.48 -3.048,2.254 -6.783,2.705 -10.323,3.605 -10.619,1.24 -20.354,1.58 -31.37,2.818 -8.652,-0.451 -18.191,1.127 -26.943,1.354 -9.342,0 -17.798,-0.227 -26.747,-1.918 -2.064,-1.239 -4.522,-0.562 -6.489,-2.028 -0.1,0.226 -0.395,0.226 -0.1,0 -1.082,-0.789 -0.787,-1.916 -0.59,-2.931 4.817,-3.381 11.11,-3.043 16.617,-4.623 1.182,-0.9 2.754,-0.789 3.835,-1.354 5.704,-1.014 10.228,-2.703 15.537,-4.619 2.654,-0.679 4.721,-2.256 7.276,-3.271 -1.967,-0.451 -4.326,-1.127 -6.489,-1.015 -8.358,-0.901 -17.109,-2.028 -25.566,-2.143 -5.803,-0.451 -11.702,-0.789 -17.8,-0.451 -1.967,3.494 -5.998,2.141 -8.947,3.494 -13.57,0.227 -26.748,1.24 -40.416,0.676 -7.475,0.564 -14.456,-0.451 -21.731,-0.226 -1.182,-0.789 -2.655,0.226 -3.935,-0.563 -5.507,-0.225 -11.505,-1.127 -17.11,-1.465 -0.688,-0.451 -1.867,-0.451 -2.262,-1.127 0.099,-2.48 2.655,-2.818 3.934,-3.945 0.196,-0.112 0,-0.338 -0.099,-0.45 -2.95,-0.339 -5.507,0 -8.261,0.226 -5.9,-0.451 -11.112,0.562 -17.209,0.791 -0.295,0.45 0.394,0.338 0.491,0.676 9.638,2.932 19.373,6.199 29.206,8.904 2.359,0.789 4.721,2.254 5.803,4.959 0,0.789 -0.787,1.127 -1.376,1.354 0.59,0.676 2.261,0 1.77,1.465 -0.786,0.227 -1.081,1.127 -1.967,1.127 -16.127,1.918 -31.762,1.578 -48.086,0.451 -12.292,-0.901 -25.665,-1.465 -37.858,-4.059 -1.673,-0.338 -2.95,-1.015 -4.818,-1.127 -0.491,-0.338 -0.196,-0.9 -0.196,-1.238 2.853,-2.594 6.49,-2.818 9.833,-3.721 6.981,-1.015 13.472,-3.043 20.454,-3.043 -2.558,-2.143 -6.294,-4.732 -8.557,-7.214 -1.572,-1.804 -3.54,-3.604 -4.917,-5.41 -1.181,1.017 -2.557,-0.228 -3.54,0.228 -2.263,-6.312 -6.294,-11.61 -9.833,-17.021 -2.163,-3.27 -4.229,-7.665 -1.967,-11.723 0.688,-1.016 1.476,-2.367 1.18,-3.607 -0.295,-1.014 -0.59,-1.916 -1.082,-2.816 -7.178,-12.174 -16.127,-24.571 -14.062,-40.58 0.394,-2.592 1.573,-5.071 1.968,-7.776 -0.591,-3.043 -0.295,-6.198 -0.099,-9.131 1.771,-3.381 5.999,-1.804 8.851,-1.015 1.771,0.562 3.245,1.127 5.112,1.69 6.393,0.226 13.473,0.112 19.372,2.028 0.787,0.677 2.064,0.338 2.655,1.24 3.736,1.918 7.67,2.705 11.406,4.846 0.294,-0.225 -0.1,-0.9 0,-1.352 -1.672,-8.453 -3.541,-16.457 -4.523,-25.138 -1.476,-3.381 -1.672,-7.777 -2.064,-11.497 0.491,-2.142 1.967,-2.706 3.54,-3.381 4.031,-0.79 6.293,4.282 9.637,5.522 0.982,-0.676 -0.195,-1.578 -0.098,-2.479 0.295,-4.733 0.491,-10.371 2.853,-14.879 1.475,-0.677 3.146,-1.917 4.817,-0.789 2.949,2.254 5.802,5.86 8.162,8.452 0.59,-4.057 -0.1,-9.129 2.853,-12.061 0.982,-1.24 2.458,-1.127 3.736,-0.676 3.441,2.705 5.604,7.891 7.965,11.497 0.492,1.127 0.492,2.367 1.476,2.931 1.376,-3.607 1.868,-7.891 4.721,-10.596 1.18,-0.789 2.261,0.113 3.244,0.678 2.164,4.959 4.426,11.496 6.195,17.357 1.18,5.523 2.853,11.947 3.835,17.922 0.688,5.186 1.672,10.482 2.164,15.33 2.064,-3.27 4.522,-5.749 7.571,-6.764 -0.59,-4.396 -2.064,-8.68 -3.146,-12.963 -2.359,-4.059 -3.048,-8.903 -5.899,-12.625 -1.082,-4.733 -7.18,-8.453 -4.13,-14.09 2.064,-2.367 1.948,-1.989 4.604,-3.341 -1.082,-5.637 -1.364,-12.661 -3.134,-17.958 -1.376,-5.298 -3.043,-10.375 -2.847,-15.899 1.771,-2.931 4.622,-4.058 7.277,-5.636 0.982,-0.676 2.262,-0.451 3.245,-1.014 -0.787,-8.566 -3.146,-16.457 -3.442,-25.1359996 -0.59,-7.778 -1.572,-15.3300004 -0.786,-23.1070004 2.458,-4.621 8.063,-4.171 11.996,-4.283 2.263,-10.934 7.375,-20.515 15.341,-27.616 4.811,-3.939 10.906,-7.096 17.102,-7.546 1.573,0.789 3.639,0.563 4.721,2.48 0.786,1.353 0.885,3.043 1.572,4.396 9.342,2.931 19.767,4.96 26.452,14.428 4.622,7.214 5.435,8.816 6.713,17.609 0.1,0.225 0.492,0.225 0.295,0.338 -0.195,0.113 -0.295,0.451 0,0.451 3.344,-3.043 8.556,-4.734 10.325,-9.694 2.164,-3.832 4.596,-2.166 5.678,-6.224 0.886,-0.451 1.476,0.451 2.164,0.902 l 1.15,7.198 z m -10.888,167.744 c -1.082,2.365 -2.164,4.396 -2.853,6.986 0.295,1.918 1.672,0.338 2.359,0.451 2.855,-1.126 0.299,-4.958 0.494,-7.437 z m 57.232,2.366 c -2.753,1.691 -5.999,2.818 -9.243,3.383 -3.541,1.015 -7.179,1.804 -10.816,2.592 0.491,0.451 -0.196,0.789 -0.196,1.354 0.196,10.483 -1.181,21.643 -1.868,31.562 4.817,-0.563 9.637,-0.227 14.062,0.562 0,-0.562 0,-1.239 0.294,-1.577 0.196,-1.353 1.771,-1.691 2.654,-2.367 3.344,-1.016 6.589,-2.367 9.833,-2.143 -1.18,-1.804 -2.262,-3.945 -2.852,-5.975 -0.886,-4.623 -2.36,-9.243 -2.557,-14.09 -1.082,-4.735 0.493,-8.905 0.689,-13.301 z m -229.416,5.974 c 0.982,5.976 -1.377,13.641 0,19.951 6.688,-0.111 13.177,-1.24 19.767,-1.354 0.786,-0.113 1.277,0.678 1.967,0.678 0.886,1.352 1.771,2.254 1.868,4.059 1.771,0.226 3.146,0.226 4.917,0.451 -1.868,-5.188 -1.277,-11.498 -2.853,-16.908 -4.622,0.562 -8.948,-0.338 -13.274,-1.465 -4.132,-1.918 -8.656,-2.593 -12.392,-5.412 z m 174.348,13.978 c 1.573,3.269 1.672,7.89 1.278,11.608 -1.672,5.977 -3.344,12.287 -6.786,17.359 -2.262,2.705 -4.326,5.975 -7.08,7.664 -1.572,1.805 -3.835,3.156 -5.898,3.721 -4.622,2.254 -9.934,2.93 -15.046,2.254 -4.721,-0.227 -8.062,-3.834 -11.505,-6.764 -16.323,1.239 -32.845,-0.226 -48.479,-5.523 -10.325,-3.832 -21.83,-9.129 -27.437,-20.627 -0.195,3.494 0.1,7.102 -0.295,10.482 3.835,1.805 7.179,5.861 10.228,9.58 0.885,1.578 2.261,3.383 2.261,5.411 -0.195,0.789 -0.885,1.017 -1.572,0.902 -3.345,-1.354 -6.981,-3.606 -10.621,-4.284 -0.491,0.338 0.196,0.676 0.1,1.127 0.196,1.465 -0.983,2.143 -1.672,2.816 -1.771,0.451 -3.936,0.677 -5.803,0.563 -1.868,2.817 -6.194,2.479 -8.948,1.916 -0.492,1.69 -2.36,1.239 -3.344,2.366 -2.359,0 -5.604,0.902 -8.162,0.451 0.394,0.34 0.982,1.016 1.476,1.016 3.343,3.494 8.457,0.451 12.686,1.127 5.604,-0.562 12.488,-1.238 17.896,-1.014 13.374,-0.225 27.142,-0.902 40.317,-0.225 14.259,-0.228 29.106,1.352 43.661,2.141 7.77,0.227 14.946,0.562 22.812,1.24 3.737,-6.088 9.439,-11.385 14.85,-15.781 -0.1,-10.369 -0.688,-20.514 -1.968,-30.434 -0.686,-1.234 -2.065,0.458 -2.949,0.908 z m -146.323,26.038 c -1.967,-0.227 -4.523,-0.562 -6.784,-0.451 -1.279,2.029 -2.558,3.945 -3.64,5.975 3.54,-0.338 6.784,-0.562 10.424,-0.227 -0.098,-1.692 0.295,-3.494 0,-5.297 z m 155.961,14.99 c -1.573,-1.239 -3.54,0.34 -4.819,1.354 -2.359,1.016 -4.622,2.144 -6.688,3.605 2.359,0.339 5.113,0 7.475,0.339 11.407,0.677 22.224,2.028 33.139,3.72 0.886,0.562 2.854,-0.451 3.147,1.24 1.77,-1.465 4.031,-2.48 5.703,-3.945 0,-0.113 -0.1,-0.227 -0.1,-0.227 -2.853,0.453 -5.408,-1.577 -8.261,-1.463 -4.522,-0.902 -8.357,0 -12.784,0.562 -1.376,-0.677 -4.13,-0.113 -4.13,-2.593 -0.885,-0.112 -1.672,-0.678 -2.557,-0.228 -1.181,-0.225 -3.049,-0.789 -3.64,-2.366 -1.476,1.015 -3.146,-0.113 -4.622,1.015 -0.684,-0.224 -1.668,-0.111 -1.863,-1.013 z" /><path
       style="fill:url(#SVGID_1_)"
       inkscape:connector-curvature="0"
       id="path10"
       d="m 157.029,-54.19399 c 0,0.451 0.295,0.563 0.295,1.014 -1.476,0.226 -2.558,0.338 -4.229,0.226 -0.197,-0.789 -1.082,-0.789 -1.574,-0.563 -2.359,2.254 -4.817,5.298 -4.72,9.13 -0.395,3.945 1.082,7.665 3.441,10.258 1.277,-0.113 2.557,1.916 3.54,0.225 0.59,-0.676 1.278,-1.465 1.572,-2.254 1.082,0.226 2.164,-0.563 3.246,-0.113 -0.492,2.029 -1.279,3.945 -2.754,5.522 -1.376,0.451 -2.753,0.225 -4.032,0.225 -7.866,-0.789 -15.241,4.396 -19.667,12.061 -1.18,2.254 -2.654,4.396 -2.753,6.989 -2.654,0 -5.507,-0.789 -7.571,-2.592 1.377,-4.622 0.786,-10.145 2.949,-14.541 3.54,-12.737 12.687,-23.445 23.994,-27.616 1.967,-0.225 4.327,-0.789 6.49,-0.451 0.493,0.902 1.379,1.466 1.773,2.48 z" /><path
       style="fill:url(#SVGID_2_)"
       inkscape:connector-curvature="0"
       id="path17"
       d="m 162.266,-20.24099 c -0.492,-1.127 -0.099,-2.48 -0.295,-3.607 2.064,3.043 4.817,5.298 7.867,7.101 3.244,1.014 6.589,2.254 10.029,2.48 1.671,0.338 2.654,3.607 4.326,2.254 -0.294,-1.014 0.296,-2.142 -0.098,-3.156 -1.869,-4.847 0.662,-5.097 -2.779,-9.606 -1.672,-2.367 -2.753,-4.847 -4.521,-7.101 -4.327,-3.945 -9.539,-7.552 -15.242,-8.116 -2.558,0 -5.212,-0.451 -7.965,0.113 -0.983,-0.113 -2.263,0.677 -3.54,0.902 -1.968,-2.479 -0.787,-6.538 0.098,-9.13 1.771,-2.367 5.113,-2.141 7.572,-2.029 5.802,0.225 11.604,2.705 17.11,5.185 1.181,0.902 2.557,1.24 3.639,2.142 3.441,3.156 6.785,6.989 9.342,11.046 2.262,5.862 2.386,5.66 3.172,12.312 0.688,1.014 0.1,4.621 2.263,3.269 1.376,-0.338 2.063,-2.367 3.44,-2.931 4.032,-2.818 8.216,-3.394 9.592,-9.03 0.394,-2.48 3.952,-1.14 4.148,-3.845 l 1.796,15.241 c 2.584,11.1440004 -6.188,23.1040004 -6.885,24.2340004 -3.244,3.3809996 -7.475,7.5519996 -9.146,12.6239996 -1.966,4.509 -1.672,9.581 -2.654,14.541 -2.753,-8.341 -7.275,-17.021 -14.356,-21.867 -3.639,-2.029 -7.67,-3.3809996 -10.817,-6.5379996 -2.359,-3.269 -4.621,-6.763 -5.112,-10.934 L 162.266,-20.24099 z" /><path
       style="fill:url(#SVGID_3_)"
       inkscape:connector-curvature="0"
       id="path24"
       d="m 120.25,-19.13899 c -1.181,-0.113 -3.345,-0.451 -4.031,1.465 -0.394,2.593 1.77,4.847 3.54,6.312 5.999,2.3670004 14.651,4.5090004 20.158,-0.225 1.081,-4.509 -8.261,-3.381 -2.853,-7.89 2.458,2.029 5.9,3.156 6.884,6.763 0.1,3.7200004 -3.049,5.9740004 -4.031,9.2430004 -4.031,7.665 -7.571,15.6669996 -9.342,24.3469996 -1.278,3.832 -2.164,8.792 -2.36,13.075 -0.294,0.902 -1.477,0.676 -2.064,0.902 -2.654,-0.113 -6.097,1.014 -8.85,0.225 -0.787,-4.959 -1.377,-10.144 -2.558,-15.217 0.1,-4.17 -1.376,-8.454 -1.868,-12.6239996 -0.491,-8.454 -0.982,-18.2600004 -0.688,-26.6020004 1.771,-3.382 5.408,-2.593 8.457,-2.818 0,1.128 -0.491,2.03 -0.394,3.044 z" /><path
       style="fill:url(#SVGID_4_)"
       inkscape:connector-curvature="0"
       id="path31"
       d="m 139.621,33.50101 c 0.089,3.026 -3.766,32.096 -3.963,35.928 -5.015,2.818 -15.455,5.962 -23.56,3.39 0.491,-1.24 -8.258,-32.456 -6.303,-36.499 1.955,-4.043 4.031,-3.945 6.293,-5.523 0.786,0 1.278,-0.451 1.967,-0.451 1.672,3.156 -2.558,2.254 -3.639,3.945 -0.59,0.338 -0.786,0.789 -1.082,1.353 0.099,0.338 0.394,0.563 0.394,0.902 3.245,1.353 21.499,2.142 26.256,-2.254 1.181,-0.113 1.376,-2.141 0,-2.367 -1.18,-2.029 -5.899,1.127 -4.326,-3.156 2.36,0.11 7.874,1.706 7.963,4.732 z" /><path
       style="fill:url(#SVGID_5_)"
       inkscape:connector-curvature="0"
       id="path38"
       d="m 143.065,70.28201 c -1.528,4.434 -6.097,24.878 -4.328,38.516 -3.344,1.465 -6.884,3.493 -10.227,5.185 -1.279,0.789 -2.655,1.578 -3.64,2.932 -1.376,-1.467 -2.359,-3.043 -4.031,-3.834 -3.014,-16.547 -13.179,-33.991 -14.555,-36.583 -1.17,-2.689 3.213,-4.963 3.213,-4.963 0,0 0.782,1.919 0.718,1.919 -2.078,1.266 2.91,5.167 13.824,2.473 10.914,-2.694 20.993,-6.468 14.014,-8.56 0,0.062 0.507,-2.347 0.444,-2.367 2.729,0.526 6.097,0.848 4.568,5.282 z" /><path
       style="fill:url(#SVGID_6_)"
       inkscape:connector-curvature="0"
       id="path45"
       d="m 187.906,67.99201 c 1.573,2.366 2.753,5.184 3.539,8.115 -6.489,10.37 -10.914,22.543 -14.75,33.588 -2.754,0.113 -6.097,1.129 -7.571,3.494 -0.491,-0.789 -0.099,0.791 -0.394,0 -0.099,-0.226 -0.394,0.227 -0.492,0 1.082,-3.832 1.771,-7.101 2.559,-10.82 2.358,-9.129 5.212,-18.937 9.932,-27.052 1.771,-3.269 3.935,-6.312 6.393,-8.792 0.784,0.115 0.292,1.016 0.784,1.467 z" /><path
       style="fill:url(#SVGID_7_)"
       inkscape:connector-curvature="0"
       id="path52"
       d="m 81.407,70.02101 c 8.752,13.64 13.473,29.418 18.486,45.086 0.1,1.24 0.983,2.479 1.082,3.945 0.688,2.365 0.688,4.283 1.376,6.65 -2.262,1.352 -4.622,3.269 -6.589,4.396 -1.476,-9.919 -5.408,-19.5 -8.457,-28.63 -1.966,-3.945 -3.934,-8.793 -6.588,-12.737 -1.476,-3.269 -3.344,-6.538 -5.605,-9.468 -0.295,-4.283 0.197,-8.004 2.263,-11.385 1.968,-1.802 2.458,1.692 4.032,2.143 z" /><path
       style="fill:url(#SVGID_8_)"
       inkscape:connector-curvature="0"
       id="path59"
       d="m 200.198,69.57001 c 1.476,3.494 2.853,7.214 4.13,10.821 -5.212,8.792 -9.933,18.374 -13.965,27.842 -1.77,4.846 -3.934,9.693 -5.211,14.766 -0.099,0 -0.196,0 -0.295,-0.112 -0.394,-3.944 -0.394,-8.565 -3.343,-11.271 -0.492,-0.676 -2.36,-1.015 -1.672,-2.367 4.031,-12.062 8.752,-24.233 16.028,-34.152 1.082,-2.029 2.753,-3.945 3.935,-5.637 0.099,-0.003 0.295,-0.116 0.393,0.11 z" /><path
       style="fill:url(#SVGID_9_)"
       inkscape:connector-curvature="0"
       id="path66"
       d="m 107.367,120.29301 c -0.787,1.465 -0.688,3.832 -2.458,4.508 -0.982,-1.238 -0.492,-3.943 -1.376,-5.521 -3.246,-12.852 -7.77,-25.475 -12.687,-37.535 0.982,-3.607 2.064,-7.102 3.344,-10.709 7.573,14.765 10.818,31.787 13.177,49.257 z" /><path
       style="fill:url(#SVGID_10_)"
       inkscape:connector-curvature="0"
       id="path73"
       d="m 71.18,79.15101 c 1.18,1.016 1.082,2.594 2.557,3.27 0.492,1.353 1.477,2.479 2.164,3.605 4.13,6.2 7.08,13.188 10.425,20.064 2.557,6.312 4.817,13.414 6.489,20.289 0.59,1.691 0.688,3.494 1.278,5.186 -0.787,1.016 -1.573,1.918 -2.36,2.594 -2.262,-6.539 -5.899,-12.737 -8.948,-18.711 -3.344,-5.637 -7.769,-12.062 -12.096,-16.908 -3.54,-4.172 -7.179,-7.89 -11.309,-11.384 0.394,-5.072 0.295,-10.482 2.063,-15.104 1.082,-1.354 2.458,0.338 3.54,0.677 2.263,1.801 4.132,4.506 6.197,6.422 z" /><path
       style="fill:url(#SVGID_11_)"
       inkscape:connector-curvature="0"
       id="path80"
       d="m 218.291,83.66001 c -12.193,13.978 -19.962,30.547 -27.042,47.905 -0.59,0.789 -0.195,2.479 -1.082,2.705 -1.181,-1.804 -3.244,-2.705 -4.917,-3.605 5.113,-16.908 11.801,-33.365 21.143,-48.469 2.164,-3.945 5.212,-6.988 8.063,-9.806 1.673,3.267 3.148,7.212 3.835,11.27 z" /><path
       style="fill:url(#SVGID_12_)"
       inkscape:connector-curvature="0"
       id="path87"
       d="m 233.828,77.34801 c 0.295,2.254 0.195,4.396 0,6.537 1.376,3.156 0.59,6.988 1.476,10.371 1.18,7.777 0.688,15.104 1.082,22.994 -3.146,1.127 -5.212,3.156 -8.062,4.848 -1.476,-6.086 -1.868,-13.074 -2.754,-19.838 0.688,-0.676 -0.688,-0.789 -0.098,-1.352 -0.492,-0.678 -1.476,-0.791 -1.967,0.111 -11.21,11.723 -18.782,26.827 -25.567,41.932 -0.688,-2.143 -2.95,-2.818 -3.54,-4.959 -0.982,-0.451 -1.475,-1.578 -2.262,-2.254 4.031,-8.004 7.769,-16.23 11.505,-24.348 1.967,-3.945 4.229,-8.003 6.688,-11.497 4.426,-5.86 8.556,-12.85 14.16,-18.035 1.968,-2.818 5.212,-3.833 7.867,-5.749 0.785,-0.115 1.177,0.561 1.472,1.239 z" /><path
       style="fill:url(#SVGID_13_)"
       inkscape:connector-curvature="0"
       id="path94"
       d="m 56.626,88.50601 c 11.31,9.018 20.749,21.416 27.829,35.73 1.869,3.721 4.327,7.215 5.312,11.272 0.099,0.338 0.395,0.562 0,0.901 -1.377,1.916 -2.95,3.945 -4.13,5.748 -7.769,-10.481 -15.636,-22.205 -24.19,-32.125 -0.885,-0.451 -0.786,0.902 -1.18,1.24 1.771,6.426 2.359,12.963 2.853,19.951 -2.853,-3.156 -6.489,-4.848 -9.539,-7.891 -0.688,-7.213 -2.853,-13.979 -3.736,-20.74 0.099,-1.465 -0.295,-3.043 -0.59,-4.622 -0.492,-4.959 -2.655,-9.692 -2.36,-15.104 0.982,-0.677 2.064,0.112 2.95,0.676 2.258,1.583 4.225,3.837 6.781,4.964 z" /><path
       style="fill:url(#SVGID_14_)"
       inkscape:connector-curvature="0"
       id="path103"
       d="m 145.59,110.20901 c -0.885,6.539 -1.081,13.752 -2.357,20.062 0.197,0.338 0.295,0.901 0.786,0.901 1.277,-0.901 0.492,-2.931 1.081,-4.17 0.884,-5.861 1.572,-12.173 1.77,-17.81 0.885,-0.451 1.18,1.014 2.062,1.127 3.831,2.254 8.645,4.51 11.59,8.229 0,0.339 0.786,0.45 1.18,0.677 -0.195,1.354 -1.77,1.578 -1.77,2.817 -0.1,0 -0.294,0 -0.395,0 -3.34,3.606 -6.975,7.103 -11.099,9.354 -0.492,1.24 0.981,1.014 1.474,1.578 4.715,-1.691 8.251,-5.072 12.082,-8.453 1.081,-1.016 1.865,-2.255 2.945,-3.043 2.946,-2.705 6.188,-7.777 10.607,-6.65 0.98,1.353 2.062,2.479 2.65,4.283 0.395,4.621 0.49,8.791 0.59,13.525 2.554,2.029 5.894,3.156 8.349,5.749 2.651,3.495 5.696,7.103 7.169,11.386 -0.589,0.562 -1.769,0.789 -2.062,1.689 -0.394,0.451 -1.671,0.227 -1.081,1.354 2.85,1.467 5.696,-1.015 8.741,-1.689 0.196,-0.113 0.396,-0.338 0.491,-0.562 1.081,-0.227 2.356,-0.678 3.339,-1.24 5.206,-2.705 10.806,-5.522 15.717,-9.019 2.85,-3.269 3.73,-8.454 7.269,-10.935 -0.1,-1.238 1.081,-0.562 1.474,-1.353 3.438,-3.382 7.661,-4.848 11.688,-6.876 7.956,-3.381 15.812,-4.396 24.555,-3.832 2.85,0.227 5.697,0.451 8.447,-0.789 3.634,-1.466 7.465,-2.254 11.196,-2.816 0.099,-0.113 0.195,-0.228 0.295,-0.228 1.08,0.228 2.456,-0.788 3.729,-0.228 2.162,1.58 1.277,4.173 1.572,6.652 -1.081,11.609 -6.482,21.303 -10.705,31.223 -3.731,7.777 -5.6,16.57 -6.581,25.475 0.589,1.354 0.491,3.383 1.769,4.396 3.831,3.945 4.615,11.271 3.931,17.246 -1.179,6.086 -3.536,12.285 -8.152,16.344 -0.786,-0.562 -1.179,-1.127 -1.965,-1.803 -6.481,-7.554 -11.59,-16.685 -14.537,-26.49 -0.195,-1.578 -0.688,-3.155 -0.394,-4.848 4.125,-1.127 8.251,-2.142 12.476,-2.254 0.883,-0.226 0.98,-1.465 0.688,-2.255 -1.769,-1.916 -1.277,-4.959 -2.26,-7.325 -0.884,-3.607 -1.179,-7.777 -1.769,-11.496 -0.884,-8.117 0.195,-16.232 3.142,-23.56 0.198,-0.901 -0.194,-1.579 -0.979,-1.69 -1.67,2.705 -5.011,4.848 -6.974,5.86 -9.726,4.96 -20.331,6.087 -31.136,6.876 -3.831,0.789 -6.385,3.832 -10.116,5.186 -7.365,3.834 -14.635,8.342 -21.806,12.512 0.1,0.677 -0.49,1.127 -0.099,1.691 0.59,1.127 1.671,0.225 2.555,0.787 1.178,0.451 2.849,0.227 2.945,2.256 -0.491,0.9 0.59,1.352 0.491,2.254 -0.1,11.723 -7.269,22.092 -15.812,27.955 -4.812,2.592 -9.821,3.832 -15.027,2.479 -4.616,-2.932 -8.938,-8.566 -14.24,-10.369 -9.136,-4.396 -19.351,-6.088 -29.072,-4.171 -0.59,0.677 -0.1,1.127 0.098,1.804 2.356,0.678 4.715,0.225 7.072,1.24 6.188,0.562 12.571,1.578 18.27,4.396 0.786,0.449 0.099,0.676 -0.394,0.789 -8.25,0 -15.91,-1.017 -23.965,-2.029 -11.591,-2.48 -23.082,-6.426 -33.787,-11.948 -4.225,-3.043 -6.975,-8.792 -8.546,-14.203 2.65,-2.593 5.991,-2.931 9.035,-4.396 0.492,-1.016 -0.49,-1.805 -1.179,-1.916 -1.67,-0.453 -3.438,-0.678 -5.106,-1.58 -2.851,-1.014 -5.796,-2.254 -8.545,-2.93 -0.1,-0.789 -0.884,-0.113 -1.277,-0.451 -1.669,-0.901 -3.633,-2.367 -5.402,-2.367 -1.079,-1.239 -2.553,-1.352 -3.928,-1.916 -1.572,-1.465 -3.339,0 -5.009,0.113 -4.225,1.238 -7.956,0.451 -12.278,1.014 -8.151,-0.562 -15.812,-2.029 -22.983,-6.537 -1.179,-5.749 -4.812,-10.596 -8.445,-14.654 -2.358,2.254 1.964,4.059 1.768,6.877 3.93,7.438 4.715,16.457 3.732,25.248 0.393,2.366 -0.394,6.199 1.965,7.439 0,0.113 0.099,0.338 0.197,0.451 2.062,0 3.83,0.789 5.795,0.562 5.107,-0.562 11.001,0.789 16.01,-0.901 1.275,3.045 0.883,6.988 0.588,10.146 -2.159,9.019 -8.74,16.006 -15.714,20.177 -1.277,1.239 -2.85,1.689 -4.42,2.254 -3.438,-7.328 -9.92,-13.076 -11.982,-21.416 -0.884,-3.606 1.865,-6.201 1.57,-9.807 -0.786,-5.523 -6.188,-9.018 -7.857,-14.316 -1.474,-3.381 -3.241,-6.763 -4.125,-10.256 -0.688,-0.677 -0.491,-2.029 -0.884,-2.932 -2.161,-6.312 -2.75,-16.119 0.196,-22.883 0.099,-2.027 -0.884,-4.17 -0.688,-6.199 4.519,-0.9 8.351,1.805 12.476,2.932 10.804,0.338 19.84,2.143 28.975,7.891 7.955,4.621 15.42,10.371 21.806,17.584 7.367,3.834 14.636,7.103 22.493,9.355 0.589,-0.113 1.474,-0.564 1.474,-1.465 -0.885,-1.917 -3.635,-1.127 -5.01,-2.48 0.786,-1.69 1.474,-3.719 2.85,-5.41 4.125,-6.536 9.232,-10.481 14.929,-14.766 1.081,-0.338 2.162,-0.9 2.947,-1.691 0,-0.225 -0.295,-0.45 -0.295,-0.676 0.981,-4.058 3.928,-7.213 6.974,-9.018 7.072,-0.789 9.43,8.566 14.732,11.947 1.275,0.902 2.554,2.254 4.026,2.818 0.589,0.112 0.884,-0.789 0.49,-1.24 -3.142,-2.93 -5.696,-6.424 -7.954,-9.693 -0.197,-0.449 -0.591,-0.676 -0.787,-1.127 1.77,0.113 2.259,-2.705 4.125,-3.154 5.009,-3.496 9.921,-6.199 15.52,-8.229 0.089,0.569 0.089,1.018 -0.01,1.58 z" /><path
       style="fill:url(#SVGID_15_)"
       inkscape:connector-curvature="0"
       id="path110"
       d="m 225.666,124.35101 c -0.59,1.577 -2.162,2.255 -2.949,3.944 -0.886,1.354 -1.771,2.932 -2.36,4.621 -0.295,0.227 -0.59,0.338 -0.59,0.791 0,-5.412 -1.082,-10.371 -1.476,-15.781 1.277,-2.143 3.146,-3.832 4.622,-5.975 0.886,4.059 1.377,8.456 2.753,12.4 z" /><path
       style="fill:url(#SVGID_16_)"
       inkscape:connector-curvature="0"
       id="path117"
       d="m 217.604,137.87701 c -1.475,1.689 -3.441,2.592 -5.312,3.72 -0.59,-0.677 -0.195,-1.917 -0.786,-2.706 0,-3.381 -0.983,-6.764 -1.181,-10.258 1.082,-2.254 2.654,-4.17 4.031,-6.311 0.983,-0.34 0.197,-2.818 1.279,-1.916 0.69,5.635 1.574,11.834 1.969,17.471 z" /><path
       inkscape:connector-curvature="0"
       id="path119"
       d="m 177.859,126.72401 c 1.391,2.368 0.749,5.112 2.033,7.483 0.106,0.623 0.32,1.498 -0.214,2.246 -2.888,-0.748 -2.888,-8.107 -6.95,-4.865 0,1.746 1.71,3.244 2.353,4.865 1.927,4.738 2.566,10.103 0.32,14.842 -1.926,3.242 -4.384,5.238 -7.379,6.732 -1.496,0.625 -3.208,0.875 -4.705,1.373 -2.565,0.25 -4.599,-0.125 -7.057,-0.996 -4.812,-2.119 -8.447,-6.611 -10.691,-11.724 0.429,-1.623 -1.177,-0.623 -1.711,-0.748 -1.924,6.733 -6.629,11.101 -11.549,14.468 -2.885,1.371 -5.453,1.621 -8.661,1.123 -4.384,-1.998 -7.591,-6.236 -10.051,-10.603 -0.108,-2.121 -0.643,-4.739 -0.643,-7.108 0.643,-4.242 1.817,-8.23 4.385,-11.601 -1.391,-0.125 -3.315,-0.623 -4.385,0.997 -2.031,1.498 -3.313,4.365 -4.918,6.234 -0.963,0.5 -1.498,-0.748 -0.963,-1.621 1.392,-3.492 2.14,-7.356 3.742,-10.976 1.068,-1.621 2.245,-3.366 4.063,-3.866 3.42,0.748 6.735,2.494 9.408,4.988 5.453,5.736 11.977,12.473 19.033,15.215 5.882,-0.374 10.267,-5.363 15.076,-8.729 2.781,-2.869 5.881,-6.111 8.661,-8.855 2.781,-1.746 5.988,-4.49 8.768,-1.746 0.646,1.001 1.714,1.625 2.035,2.872 z" /><path
       style="fill:url(#SVGID_17_)"
       inkscape:connector-curvature="0"
       id="path126"
       d="m 72.458,132.80501 c 0.195,2.705 0,5.748 0.195,8.342 -2.753,-1.578 -4.521,-4.734 -6.784,-6.764 0.099,-3.494 -0.196,-5.975 -0.491,-9.469 2.557,1.916 4.819,5.186 7.08,7.891 z" /><path
       style="fill:#ffffff"
       inkscape:connector-curvature="0"
       id="path128"
       d="m 168.034,137.28001 c 1.563,3.188 3.312,7.197 2.023,11.211 -1.288,4.838 -5.061,6.847 -8.464,8.025 -5.702,1.062 -11.406,-1.299 -14.717,-7.318 -0.187,-0.472 -0.187,-1.062 -0.553,-1.416 0.553,-0.117 1.104,-0.707 1.654,-0.826 1.38,3.068 4.141,4.722 6.9,5.074 2.113,-0.472 4.229,-1.771 4.689,-4.722 0.735,-1.89 0.184,-4.132 -0.46,-5.784 -0.46,-0.943 -1.104,-1.65 -1.562,-2.48 1.931,-2.122 4.047,-3.774 5.795,-6.254 2.213,0.24 3.225,3.072 4.695,4.49 z" /><path
       style="fill:#ffffff"
       inkscape:connector-curvature="0"
       id="path130"
       d="m 131.518,139.52201 c -1.934,0.945 -2.668,3.424 -3.312,5.547 0,1.533 0,3.896 1.379,4.721 1.934,2.123 5.245,3.896 7.728,2.242 1.562,-1.062 2.208,-2.713 3.127,-4.604 0.554,0.117 1.104,0.117 1.564,0.473 -0.827,4.604 -4.417,7.316 -7.452,9.439 -2.667,1.418 -5.794,3.07 -8.647,1.418 -3.494,-3.068 -8.094,-6.729 -7.175,-12.982 0.46,-3.896 1.562,-7.318 4.141,-9.561 1.012,-0.828 2.114,-1.418 3.312,-2.006 1.838,1.418 3.495,3.541 5.335,5.313 z" /><path
       style="fill:url(#SVGID_18_)"
       inkscape:connector-curvature="0"
       id="path137"
       d="m 209.539,143.06301 c -0.982,0.789 -2.164,1.354 -3.244,2.143 -0.688,-2.592 -0.787,-5.86 -1.279,-8.455 0.885,-1.803 1.967,-3.381 2.95,-5.071 0.984,3.605 1.083,7.437 1.573,11.383 z" /><path
       style="fill:url(#SVGID_19_)"
       inkscape:connector-curvature="0"
       id="path144"
       d="m 83.373,146.44401 c -0.982,1.014 -2.263,-1.016 -3.441,-1.016 -1.476,-0.9 -3.146,-1.803 -4.622,-2.816 -0.098,-2.369 -0.294,-4.848 -0.197,-7.438 2.656,3.83 5.212,7.775 8.26,11.27 z" /><path
       style="fill:url(#SVGID_20_)"
       inkscape:connector-curvature="0"
       id="path151"
       d="m 237.173,151.96701 c -0.591,9.693 -0.591,19.389 -1.082,29.307 -1.672,-0.113 -3.835,0.789 -5.114,0.676 0.688,-1.803 0.688,-4.283 0.59,-6.199 -1.377,-8.905 0.197,-17.245 -1.277,-26.038 1.868,-0.339 3.935,-0.562 5.703,-1.015 1.965,-0.79 1.081,2.142 1.18,3.269 z" /><path
       style="fill:url(#SVGID_21_)"
       inkscape:connector-curvature="0"
       id="path158"
       d="m 227.634,156.25001 c 0.393,8.68 0.982,16.568 0.885,25.926 0.688,0.9 -0.982,0.676 -1.376,1.238 -0.982,0 -2.557,0.902 -3.935,1.24 0.492,-1.691 0.982,-3.832 0.591,-5.637 0,-8.792 -0.197,-18.261 -1.082,-26.938 1.573,-0.902 3.246,-1.578 4.917,-2.48 -0.492,1.579 -0.1,4.623 0,6.651 z" /><path
       style="fill:url(#SVGID_22_)"
       inkscape:connector-curvature="0"
       id="path165"
       d="m 220.062,154.33401 c 1.278,10.256 0.983,20.854 1.278,31.223 -1.278,0.789 -2.753,1.465 -4.032,1.691 0.197,-2.48 -0.1,-4.961 -0.295,-7.104 -0.492,-7.438 -0.885,-16.117 -2.064,-23.443 1.572,-1.354 3.44,-2.594 5.311,-3.271 0.097,0.342 -0.395,0.453 -0.198,0.904 z" /><path
       style="fill:url(#SVGID_23_)"
       inkscape:connector-curvature="0"
       id="path172"
       d="m 72.458,157.03901 c 0.1,6.988 -0.196,14.203 -0.099,21.418 -1.77,-0.338 -3.441,-1.691 -4.917,-2.256 0.983,-6.988 0.197,-14.652 0.295,-21.303 1.672,0.565 3.049,1.917 4.721,2.141 z" /><path
       style="fill:url(#SVGID_24_)"
       inkscape:connector-curvature="0"
       id="path179"
       d="m 65.869,175.52601 c -2.163,-0.789 -4.622,-1.354 -6.785,-1.803 -0.491,-5.749 -0.295,-11.497 -1.277,-17.359 2.359,-0.336 4.72,-0.336 6.98,-1.238 0.887,6.988 0,13.525 1.082,20.4 z" /><path
       style="fill:url(#SVGID_25_)"
       inkscape:connector-curvature="0"
       id="path186"
       d="m 78.751,159.40801 c -0.59,3.154 0.394,6.535 0.688,9.807 0.099,4.396 -0.394,8.229 -0.492,12.511 -1.18,-1.127 -2.852,-1.015 -4.13,-2.028 0.396,-6.764 -0.294,-14.653 0.591,-21.528 1.082,0.336 2.164,0.901 3.343,1.238 z" /><path
       style="fill:url(#SVGID_26_)"
       inkscape:connector-curvature="0"
       id="path193"
       d="m 215.146,187.58601 c 0.295,0.113 0.295,0.338 0.492,0.562 -1.082,0.45 -0.983,1.354 -2.164,1.465 -1.771,0.451 0,-2.254 -0.787,-3.383 -0.099,-8.453 -1.475,-18.484 -2.359,-27.164 0.688,-0.339 1.377,-0.902 2.164,-1.24 1.669,9.471 2.162,20.291 2.654,29.76 z" /><path
       inkscape:connector-curvature="0"
       id="path195"
       d="m 190.408,172.40801 c 1.634,0.705 2.361,2.398 3.229,3.873 -0.851,4.686 -4.145,8.764 -7.477,12.168 -1.438,0.645 -2.092,-0.713 -1.399,-1.818 0.242,-2.234 2.87,-5.43 -0.069,-6.721 -1.479,-0.031 -2.424,-1.842 -3.976,-1.199 -2.14,4.998 -4.938,9.756 -7.923,14.177 -0.024,0.222 0.042,0.672 0.369,0.79 2.772,0.729 5.208,2.455 7.691,3.738 0.029,0.785 -0.612,1.443 -1.348,0.869 -8.14,-1.729 -14.991,-6.906 -21.171,-11.957 -6.787,-4.729 -14.328,-8.797 -23.167,-9.31 -11.988,-3.04 -24.545,-0.827 -36.782,-0.51 -0.747,-0.463 -1.296,-1.707 -0.415,-2.474 9.587,-4.289 20.137,-5.871 30.459,-7.455 16.251,-1.58 34.604,-2.557 50.716,1.349 3.864,1.197 7.688,2.729 11.263,4.48 z" /><path
       style="fill:#ffffff"
       inkscape:connector-curvature="0"
       id="path197"
       d="m 156.913,168.94001 c -0.579,3.236 -1.66,6.909 -2.937,10.244 -2.573,-1.508 -5.398,-2.797 -8.296,-3.412 0.367,-2.346 0.479,-5.479 1.849,-7.578 2.683,0.502 6.449,0.464 9.384,0.746 z" /><path
       style="fill:#ffffff"
       inkscape:connector-curvature="0"
       id="path199"
       d="m 145.557,168.49001 c -0.721,2.449 -0.938,4.459 -1.206,6.918 -2.378,-0.16 -5.365,-1.002 -7.642,-1.049 -0.19,-0.34 -0.395,-0.566 -0.232,-1.013 0.272,-1.45 0.568,-3.123 0.852,-4.688 2.971,-0.051 4.966,-0.571 7.899,-0.289 0.115,0.004 0.228,0.006 0.329,0.121 z" /><path
       style="fill:#ffffff"
       inkscape:connector-curvature="0"
       id="path201"
       d="m 167.703,170.38701 c -0.81,5.361 -3.402,10.35 -5.415,15.236 -2.436,-1.729 -4.709,-3.902 -6.917,-5.627 1.186,-3.562 2.495,-7.229 3.122,-10.912 1.324,-0.646 2.229,0.492 3.503,0.295 1.889,0.483 3.948,0.414 5.707,1.008 z" /><path
       style="fill:#ffffff"
       inkscape:connector-curvature="0"
       id="path203"
       d="m 135.444,171.31301 c -0.223,1.002 -0.445,2.006 -0.554,3.012 -2.366,-0.271 -5.438,-0.332 -7.337,-0.705 -0.296,-1.463 0.214,-3.019 0.257,-4.476 2.493,0.163 4.918,-0.125 7.572,-0.409 0.358,0.902 -0.069,1.677 0.062,2.578 z" /><path
       style="fill:#ffffff"
       inkscape:connector-curvature="0"
       id="path205"
       d="m 125.965,169.33201 c 0.083,1.344 0.493,2.809 -0.232,4.25 -2.028,-1.271 -8.346,2.297 -6.058,-3.033 1.93,-0.969 4.181,-0.699 6.29,-1.217 z" /><path
       style="fill:#ffffff"
       inkscape:connector-curvature="0"
       id="path207"
       d="m 179.111,173.52801 c -1.611,6.463 -4.896,12.557 -8.37,18.312 -2.312,-1.839 -4.885,-3.345 -7.183,-5.296 2.14,-4.995 4.667,-10.434 5.933,-15.782 3.237,0.623 6.579,1.361 9.62,2.766 z" /><path
       style="fill:#ffffff"
       inkscape:connector-curvature="0"
       id="path209"
       d="m 118.007,173.31701 c -2.289,0.064 -5.169,0.344 -7.332,0.301 -0.065,-0.449 -0.232,-1.012 0.386,-1.449 2.373,-0.848 4.673,-1.025 7.021,-1.649 -0.213,0.888 -0.092,1.898 -0.075,2.797 z" /><path
       style="fill:#ffffff"
       inkscape:connector-curvature="0"
       id="path211"
       d="m 106.226,173.64001 c 0.897,0.132 4.362,-2.375 2.707,0.278 -0.659,-0.235 -1.821,-0.035 -2.707,-0.278 z" /><path
       style="fill:url(#SVGID_27_)"
       inkscape:connector-curvature="0"
       id="path218"
       d="m 92.323,194.79901 c -4.426,-2.254 -9.048,-4.17 -13.374,-6.086 -6.884,-2.592 -18.088,-5.59 -25.659,-6.041 1.181,-2.592 1.082,-5.521 0.786,-8.34 0.1,-0.227 3.533,1.418 3.632,1.307 13.079,2.141 25.864,8.002 34.615,19.16 z" /><path
       style="fill:url(#SVGID_28_)"
       inkscape:connector-curvature="0"
       id="path225"
       d="m 253.263,192.37501 c -4.031,0.791 -13.24,-1.408 -17.37,-0.395 -6.097,1.016 -12.292,1.805 -18.094,4.396 0,0.451 -0.787,-0.225 -1.082,0.227 -6.688,2.818 -13.768,6.764 -19.766,11.498 -0.1,0.111 -0.295,0.111 -0.492,0.111 4.031,-7.551 11.31,-11.383 17.404,-16.457 4.723,-2.479 9.146,-5.297 14.16,-6.086 2.458,-1.239 5.803,-1.691 8.654,-2.029 3.146,-0.451 11.175,0.508 14.617,0.958 0.788,2.592 0.888,5.41 1.969,7.777 z" /><path
       style="fill:url(#SVGID_29_)"
       inkscape:connector-curvature="0"
       id="path232"
       d="m 64.691,190.40501 c -0.099,3.043 -0.491,5.523 -0.59,8.342 -0.787,2.705 -3.639,2.254 -5.311,3.156 -3.048,-0.227 -6.098,-0.789 -9.047,-0.677 -1.476,-0.901 -2.753,-2.028 -3.835,-3.493 0.195,-0.227 0.394,-0.451 0.59,-0.451 3.935,-0.34 7.67,-0.678 11.406,-0.34 0.396,-0.676 0.787,-0.451 1.182,-0.9 -0.197,-2.028 0.786,-4.059 0.196,-6.086 0.491,-0.791 1.572,0.226 2.359,0.226 1.083,-0.34 2.065,0.223 3.05,0.223 z" /><path
       style="fill:url(#SVGID_30_)"
       inkscape:connector-curvature="0"
       id="path239"
       d="m 72.852,192.20901 c 0.294,1.916 0.099,3.72 0.394,5.748 -1.968,1.803 -4.229,0 -6.393,0.451 -0.197,-2.367 0.59,-5.072 0,-7.553 1.967,0.79 4.131,0.563 5.999,1.354 z" /><path
       style="fill:url(#SVGID_31_)"
       inkscape:connector-curvature="0"
       id="path246"
       d="m 79.047,194.23701 c 0.196,1.691 -0.492,2.818 -1.968,3.045 -2.753,0.676 -1.082,-2.817 -1.771,-4.396 1.182,0.448 2.658,0.788 3.739,1.351 z" /><path
       style="fill:#c46941"
       inkscape:connector-curvature="0"
       id="path248"
       d="m 253.2,197.39401 c 0.59,0.789 1.376,0.339 2.163,0.677 1.868,1.578 2.163,4.058 3.54,6.086 -1.672,2.144 -3.835,3.722 -5.898,5.297 -4.819,-3.043 -10.128,-3.832 -15.733,-3.944 -2.458,0.339 -4.72,1.354 -7.081,1.354 -0.294,0 -0.393,-0.34 -0.59,-0.451 0.099,-2.932 -0.099,-5.41 0.492,-8.229 0.196,-0.338 -0.295,-0.45 -0.196,-0.676 7.865,-1.467 15.338,-2.03 23.303,-0.114 z" /><path
       style="fill:#c46941"
       inkscape:connector-curvature="0"
       id="path250"
       d="m 227.633,197.95701 c -0.395,1.578 -0.983,3.381 -0.886,5.41 -1.476,-0.451 -2.753,0.789 -3.935,-0.451 -0.982,-0.901 -0.295,-2.254 -0.59,-3.381 1.772,-0.563 3.641,-0.789 5.411,-1.578 z" /><path
       style="fill:#c46941"
       inkscape:connector-curvature="0"
       id="path252"
       d="m 220.061,202.24001 c -1.377,-0.451 -2.95,0.449 -4.522,0.338 0.295,-1.127 1.671,-0.563 2.359,-1.354 0.983,-0.227 1.771,-0.9 2.753,-1.016 -0.098,0.679 -0.59,1.357 -0.59,2.032 z" /><path
       style="fill:url(#SVGID_32_)"
       inkscape:connector-curvature="0"
       id="path259"
       d="m 54.616,208.41401 c 2.263,1.016 4.13,2.818 6.489,3.605 10.128,5.637 20.65,8.905 31.369,11.725 3.737,0.225 7.375,2.143 10.916,3.156 0,0.112 0.197,0.225 0.197,0.338 -10.916,0.563 -20.159,-0.226 -31.074,-2.254 -5.408,-1.127 -10.817,-2.254 -16.324,-3.834 -6.981,-2.93 -17.539,-9.636 -22.946,-15.498 3.344,-0.9 6.784,-2.816 8.947,-6.086 -0.098,-0.451 0.099,-0.562 0.394,-0.789 2.852,2.592 9.081,7.044 12.032,9.637 z" /><path
       style="fill:url(#SVGID_33_)"
       inkscape:connector-curvature="0"
       id="path266"
       d="m 269.08,216.89501 c -2.854,3.832 -10.375,8.564 -14.014,11.045 -10.128,5.072 -21.536,6.086 -32.057,7.553 -6.195,-0.453 -12.587,0.451 -19.078,0.338 -1.966,0.677 -3.934,-0.791 -6.096,-0.678 9.342,-1.804 18.585,-3.604 27.632,-6.875 3.835,-0.901 7.276,-2.817 11.21,-3.945 4.622,-2.366 9.342,-4.059 13.669,-7.666 2.163,-1.689 7.815,-6.646 9.979,-8.452 2.166,3.945 5.313,6.875 8.755,8.68 z" /><ellipse
       sodipodi:ry="3.2939999"
       sodipodi:rx="2.411"
       sodipodi:cy="217.91701"
       sodipodi:cx="147.754"
       id="ellipse268"
       ry="3.2939999"
       rx="2.411"
       cy="217.91701"
       cx="147.754"
       transform="matrix(-0.9253,0.3793,-0.3793,-0.9253,367.1227,304.91321)"
       d="m 150.165,217.91701 c 0,1.81922 -1.07944,3.294 -2.411,3.294 -1.33156,0 -2.411,-1.47478 -2.411,-3.294 0,-1.81923 1.07944,-3.294 2.411,-3.294 1.33156,0 2.411,1.47477 2.411,3.294 z" /><ellipse
       sodipodi:ry="2.7880001"
       sodipodi:rx="2.0420001"
       sodipodi:cy="218.39101"
       sodipodi:cx="141.343"
       id="ellipse270"
       ry="2.7880001"
       rx="2.0420001"
       cy="218.39101"
       cx="141.343"
       transform="matrix(-0.9153,-0.4029,0.4029,-0.9153,182.7239,416.62431)"
       d="m 143.385,218.39101 c 0,1.53977 -0.91423,2.788 -2.042,2.788 -1.12776,0 -2.042,-1.24823 -2.042,-2.788 0,-1.53977 0.91424,-2.788 2.042,-2.788 1.12777,0 2.042,1.24823 2.042,2.788 z" /></g></svg>